<?xml version="1.0" standalone="no"?>
<!DOCTYPE svg PUBLIC "-//W3C//DTD SVG 1.1//EN" "http://www.w3.org/Graphics/SVG/1.1/DTD/svg11.dtd" >
<svg>
<metadata>
Created by FontForge 20090914 at Thu Mar 21 03:20:57 2013
 By www-data
Copyright (C) 2010 Maniackers Design / Masayuki sato All Rights Reserved. / www.mksd.jp (2011.07.11update)
</metadata>
<defs>
<font id="232MKSDRoundMedium" horiz-adv-x="552" >
  <font-face 
    font-family="232MKSDRoundMedium"
    font-weight="400"
    font-stretch="normal"
    units-per-em="1000"
    panose-1="0 0 4 0 0 0 0 0 0 0"
    ascent="800"
    descent="-200"
    x-height="578"
    cap-height="776"
    bbox="54 -198.001 1090 994"
    underline-thickness="20"
    underline-position="-123"
    unicode-range="U+0020-U+F002"
  />
<missing-glyph horiz-adv-x="500" 
d="M63 0v800h375v-800h-375zM125 63h250v675h-250v-675z" />
    <glyph glyph-name=".notdef" horiz-adv-x="500" 
d="M63 0v800h375v-800h-375zM125 63h250v675h-250v-675z" />
    <glyph glyph-name="space" unicode=" " horiz-adv-x="300" 
 />
    <glyph glyph-name="exclam" unicode="!" horiz-adv-x="231" 
d="M165 223c0 -13.333 -4.83301 -24.833 -14.5 -34.5s-21.5 -14.5 -35.5 -14.5c-13.333 0 -24.833 4.83301 -34.5 14.5s-14.5 21.167 -14.5 34.5v505c0 13.333 4.83301 24.833 14.5 34.5s21.167 14.5 34.5 14.5c14 0 25.833 -4.83301 35.5 -14.5s14.5 -21.167 14.5 -34.5
v-505zM174 59c0 -16.667 -5.66699 -30.667 -17 -42s-25.333 -17 -42 -17c-16 0 -29.667 5.66699 -41 17s-17 25.333 -17 42c0 16 5.66699 29.833 17 41.5s25 17.5 41 17.5c16.667 0 30.667 -5.83301 42 -17.5s17 -25.5 17 -41.5z" />
    <glyph glyph-name="quotedbl" unicode="&#x22;" horiz-adv-x="343" 
d="M282 650c0 -13.333 -4.83301 -24.833 -14.5 -34.5s-21.167 -14.5 -34.5 -14.5s-24.833 4.83301 -34.5 14.5s-14.5 21.167 -14.5 34.5v78c0 13.333 4.83301 24.833 14.5 34.5s21.167 14.5 34.5 14.5s24.833 -4.83301 34.5 -14.5s14.5 -21.167 14.5 -34.5v-78zM159 650
c0 -13.333 -4.83301 -24.833 -14.5 -34.5s-21.167 -14.5 -34.5 -14.5s-24.833 4.83301 -34.5 14.5s-14.5 21.167 -14.5 34.5v78c0 13.333 4.83301 24.833 14.5 34.5s21.167 14.5 34.5 14.5s24.833 -4.83301 34.5 -14.5s14.5 -21.167 14.5 -34.5v-78z" />
    <glyph glyph-name="numbersign" unicode="#" horiz-adv-x="592" 
d="M531 300c0 -13.333 -4.83301 -24.833 -14.5 -34.5s-21.167 -14.5 -34.5 -14.5h-43c-3.33301 0 -5 -1.66699 -5 -5v-197c0 -14 -4.83301 -25.667 -14.5 -35s-21.5 -14 -35.5 -14c-13.333 0 -24.833 4.66699 -34.5 14s-14.5 21 -14.5 35v197c0 3.33301 -1.66699 5 -5 5h-68
c-3.33301 0 -5 -1.66699 -5 -5v-197c0 -14 -4.83301 -25.667 -14.5 -35s-21.167 -14 -34.5 -14c-14 0 -25.833 4.66699 -35.5 14s-14.5 21 -14.5 35v197c0 3.33301 -1.66699 5 -5 5h-43c-13.333 0 -24.833 4.83301 -34.5 14.5s-14.5 21.167 -14.5 34.5
c0 14 4.83301 25.833 14.5 35.5s21.167 14.5 34.5 14.5h43c3.33301 0 5 1.66699 5 5v66c0 4 -1.66699 6 -5 6h-43c-13.333 0 -24.833 4.83301 -34.5 14.5s-14.5 21.167 -14.5 34.5s4.83301 24.833 14.5 34.5s21.167 14.5 34.5 14.5h43c3.33301 0 5 2 5 6v197
c0 13.333 4.83301 24.833 14.5 34.5s21.5 14.5 35.5 14.5c13.333 0 24.833 -4.83301 34.5 -14.5s14.5 -21.167 14.5 -34.5v-197c0 -4 1.66699 -6 5 -6h68c3.33301 0 5 2 5 6v197c0 13.333 4.83301 24.833 14.5 34.5s21.167 14.5 34.5 14.5c14 0 25.833 -4.83301 35.5 -14.5
s14.5 -21.167 14.5 -34.5v-197c0 -4 1.66699 -6 5 -6h43c13.333 0 24.833 -4.83301 34.5 -14.5s14.5 -21.167 14.5 -34.5s-4.83301 -24.833 -14.5 -34.5s-21.167 -14.5 -34.5 -14.5h-43c-3.33301 0 -5 -2 -5 -6v-66c0 -3.33301 1.66699 -5 5 -5h43
c13.333 0 24.833 -4.83301 34.5 -14.5s14.5 -21.5 14.5 -35.5zM335 355v66c0 4 -1.66699 6 -5 6h-68c-3.33301 0 -5 -2 -5 -6v-66c0 -3.33301 1.66699 -5 5 -5h68c3.33301 0 5 1.66699 5 5z" />
    <glyph glyph-name="dollar" unicode="$" 
d="M491 187c0 -47.333 -15.332 -88.833 -45.999 -124.5s-68.667 -56.834 -114 -63.501c-4 -0.666992 -6 -2.66699 -6 -6v-55c0 -14 -4.83301 -25.833 -14.5 -35.5s-21.167 -14.5 -34.5 -14.5s-24.833 4.83301 -34.5 14.5s-14.5 21.5 -14.5 35.5v55
c0 3.33301 -2 5.33301 -6 6c-38.667 6 -72.5 22.667 -101.5 50s-47.5 60.333 -55.5 99c-2.66699 13.333 -0.166992 25.666 7.5 36.999s18.167 18.333 31.5 21s25.666 0.333984 36.999 -6.99902s18.333 -17.666 21 -30.999c6.66699 -34.667 26.667 -57.334 60 -68.001
c4 -1.33301 6 0 6 4v238c0 3.33301 -2 5.66602 -6 6.99902c-46.667 12 -85 37.333 -115 76s-45 82.667 -45 132v33c0 47.333 15.333 88.833 46 124.5s68.667 56.834 114 63.501c4 0.666992 6 2.66699 6 6v55c0 14 4.83301 25.667 14.5 35s21.167 14 34.5 14
s24.833 -4.66699 34.5 -14s14.5 -21 14.5 -35v-55c0 -3.33301 2 -5.33301 6 -6c40 -6 74.667 -23.333 104 -52s47.333 -63.667 54 -105c2 -13.333 -1 -25.5 -9 -36.5s-18.667 -17.5 -32 -19.5c-13.333 -2.66699 -25.5 0 -36.5 8s-17.5 18.667 -19.5 32
c-6 36.667 -26.333 60.667 -61 72c-4 1.33301 -6 0 -6 -4v-238c0 -3.33301 2 -5.66602 6 -6.99902c46.667 -12 85 -37.333 115 -76s45 -82.667 45 -132v-33zM227.001 457v216.001c0 4 -2 5.33301 -6 4c-18 -6 -32.833 -16.833 -44.5 -32.5s-17.5 -33.834 -17.5 -54.501v-33
c0 -47.333 21 -82 63 -104c3.33301 -1.33301 5 0 5 4zM393.001 187.001v32.999c0 47.333 -21 82 -63 104c-3.33301 1.33301 -5 0 -5 -4v-216c0 -4 2 -5.33301 6 -4c18 6 32.833 16.833 44.5 32.5s17.5 33.834 17.5 54.501z" />
    <glyph glyph-name="percent" unicode="%" horiz-adv-x="598" 
d="M327 644c0 -36.667 -13.167 -68 -39.5 -94s-57.833 -39 -94.5 -39s-68 13 -94 39s-39 57.333 -39 94s13 68 39 94s57.333 39 94 39s68.167 -13 94.5 -39s39.5 -57.333 39.5 -94zM532 704l-380 -679c-9.33301 -16.667 -23.666 -25 -42.999 -25
c-13.333 0 -24.833 4.66699 -34.5 14s-14.5 21 -14.5 35c0 8.66699 2 16.667 6 24l380 679c9.33301 16.667 23.666 25 42.999 25c13.333 0 24.833 -4.83301 34.5 -14.5s14.5 -21.167 14.5 -34.5c0 -8.66699 -2 -16.667 -6 -24zM538 133c0 -36.667 -13 -68 -39 -94
s-57.333 -39 -94 -39s-68.167 13 -94.5 39s-39.5 57.333 -39.5 94s13.167 68 39.5 94s57.833 39 94.5 39s68 -13 94 -39s39 -57.333 39 -94zM228 644c0 9.33301 -3.33301 17.333 -10 24s-15 10 -25 10c-9.33301 0 -17.333 -3.33301 -24 -10s-10 -14.667 -10 -24
c0 -10 3.33301 -18.333 10 -25s14.667 -10 24 -10c10 0 18.333 3.33301 25 10s10 15 10 25zM439 133c0 9.33301 -3.33301 17.5 -10 24.5s-14.667 10.5 -24 10.5c-10 0 -18.333 -3.5 -25 -10.5s-10 -15.167 -10 -24.5c0 -10 3.33301 -18.333 10 -25s15 -10 25 -10
c9.33301 0 17.333 3.33301 24 10s10 15 10 25z" />
    <glyph glyph-name="ampersand" unicode="&#x26;" horiz-adv-x="670" 
d="M611 73c0 -15.333 -6.33496 -28 -19.002 -38c-8.66699 -7.33301 -19 -11 -31 -11c-15.333 0 -28 6 -38 18l-82 101c-2.66699 2.66699 -5 2.66699 -7 0l-42 -64c-34.667 -54 -84.667 -81 -150 -81c-41.333 0 -78.333 12.667 -111 38c-48 38 -72 87.333 -72 148
c0 44.667 14.333 84.334 43 119.001l101 122c2.66699 2.66699 2.66699 5.66699 0 9l-53 65c-26 33.333 -39 69.666 -39 108.999c0 48.667 17.333 90 52 124c30.667 30 67.334 45 110.001 45c44.667 0 82.334 -15.667 113.001 -47c32.667 -33.333 49 -73 49 -119
c0 -40 -13 -75.667 -39 -107l-58 -71c-2.66699 -2.66699 -2.66699 -5.33398 0 -8.00098l87 -107c2 -2.66699 4 -2.66699 6 0l64 97c9.33301 14.667 23 22 41 22c13.333 0 24.833 -4.83301 34.5 -14.5s14.5 -21.167 14.5 -34.5c0 -10 -2.66699 -19 -8 -27l-80 -123
c-2.66699 -2.66699 -2.66699 -5.66699 0 -9l102 -125c8 -9.33301 12 -19.666 12 -30.999zM335.998 611c0 19.333 -6.66699 36.001 -20 50.001c-12 11.333 -26.333 17 -43 17c-16 0 -29.667 -5.66699 -41 -17c-15.333 -14.667 -23 -32.334 -23 -53.001
c0 -18 5.66699 -33.667 17 -47l41 -50c2.66699 -2.66699 5 -2.66699 7 0l46 55c10.667 13.333 16 28.333 16 45zM368.998 223.001c2 2.66699 1.66699 5.66699 -1 9l-94 115c-2.66699 3.33301 -5 3.33301 -7 0l-89 -106c-13.333 -16.667 -20 -35.667 -20 -57
c0 -28.667 11.333 -52 34 -70c18.667 -14.667 39.667 -20 63 -16c24 3.33301 42.333 15 55 35z" />
    <glyph glyph-name="quotesingle" unicode="'" horiz-adv-x="220" 
d="M159 650c0 -13.333 -4.83301 -24.833 -14.5 -34.5s-21.167 -14.5 -34.5 -14.5s-24.833 4.83301 -34.5 14.5s-14.5 21.167 -14.5 34.5v78c0 13.333 4.83301 24.833 14.5 34.5s21.167 14.5 34.5 14.5s24.833 -4.83301 34.5 -14.5s14.5 -21.167 14.5 -34.5v-78z" />
    <glyph glyph-name="parenleft" unicode="(" horiz-adv-x="360" 
d="M299 49c0 -14 -4.83301 -25.667 -14.5 -35s-21.167 -14 -34.5 -14c-52 -0 -96.5 18.333 -133.5 55s-55.5 81 -55.5 133v400c0 52 18.5 96.5 55.5 133.5s81.5 55.5 133.5 55.5c13.333 0 24.833 -4.83301 34.5 -14.5s14.5 -21.167 14.5 -34.5
c0 -14 -4.83301 -25.833 -14.5 -35.5s-21.167 -14.5 -34.5 -14.5c-25.333 0 -46.833 -8.66699 -64.5 -26s-26.5 -38.666 -26.5 -63.999v-400c0 -24.667 8.83301 -45.834 26.5 -63.501s39.167 -26.5 64.5 -26.5c13.333 0 24.833 -4.83301 34.5 -14.5s14.5 -21.167 14.5 -34.5
z" />
    <glyph glyph-name="parenright" unicode=")" horiz-adv-x="360" 
d="M299 188c0 -52 -18.5 -96.333 -55.5 -133s-81.5 -55 -133.5 -55c-13.333 0 -24.833 4.66699 -34.5 14s-14.5 21 -14.5 35c0 13.333 4.83301 24.833 14.5 34.5s21.167 14.5 34.5 14.5c25.333 0 46.833 8.83301 64.5 26.5s26.5 38.834 26.5 63.501v400
c0 25.333 -8.83301 46.666 -26.5 63.999s-39.167 26 -64.5 26c-13.333 0 -24.833 4.83301 -34.5 14.5s-14.5 21.5 -14.5 35.5c0 13.333 4.83301 24.833 14.5 34.5s21.167 14.5 34.5 14.5c52 0 96.5 -18.5 133.5 -55.5s55.5 -81.5 55.5 -133.5v-400z" />
    <glyph glyph-name="asterisk" unicode="*" horiz-adv-x="501" 
d="M393 158c-8.66699 0 -16.667 2.33301 -24 7l-64 37c-3.33301 2 -5 1 -5 -3v-74c0 -13.333 -4.83301 -24.833 -14.5 -34.5s-21.167 -14.5 -34.5 -14.5c-14 0 -25.833 4.83301 -35.5 14.5s-14.5 21.167 -14.5 34.5v74c0 4 -1.33301 5 -4 3l-65 -37
c-7.33301 -4.66699 -15.333 -7 -24 -7c-14 0 -25.667 4.83301 -35 14.5s-14 21.5 -14 35.5c0 18.667 8 32.667 24 42l64 37c1.33301 0.666992 2 1.66699 2 3s-0.666992 2.33301 -2 3l-64 37c-16 9.33301 -24 23.333 -24 42c0 14 4.66699 25.833 14 35.5s21 14.5 35 14.5
c8.66699 0 16.667 -2.33301 24 -7l65 -37c2.66699 -2 4 -1 4 3v74c0 13.333 4.83301 24.833 14.5 34.5s21.5 14.5 35.5 14.5c13.333 0 24.833 -4.83301 34.5 -14.5s14.5 -21.167 14.5 -34.5v-74c0 -4 1.66699 -5 5 -3l64 37c7.33301 4.66699 15.333 7 24 7
c14 0 25.667 -4.83301 35 -14.5s14 -21.5 14 -35.5c0 -18.667 -8 -32.667 -24 -42l-64 -37c-1.33301 -0.666992 -2 -1.66699 -2 -3s0.666992 -2.33301 2 -3l64 -37c16 -9.33301 24 -23.333 24 -42c0 -14 -4.66699 -25.833 -14 -35.5s-21 -14.5 -35 -14.5z" />
    <glyph glyph-name="plus" unicode="+" horiz-adv-x="470" 
d="M409 290c0 -13.333 -4.83301 -24.833 -14.5 -34.5s-21.167 -14.5 -34.5 -14.5h-70c-4 0 -6 -2 -6 -6v-70c0 -13.333 -4.83301 -24.833 -14.5 -34.5s-21.167 -14.5 -34.5 -14.5s-24.833 4.83301 -34.5 14.5s-14.5 21.167 -14.5 34.5v70c0 4 -2 6 -6 6h-70
c-13.333 0 -24.833 4.83301 -34.5 14.5s-14.5 21.167 -14.5 34.5s4.83301 24.833 14.5 34.5s21.167 14.5 34.5 14.5h70c4 0 6 2 6 6v70c0 13.333 4.83301 24.833 14.5 34.5s21.167 14.5 34.5 14.5s24.833 -4.83301 34.5 -14.5s14.5 -21.167 14.5 -34.5v-70c0 -4 2 -6 6 -6
h70c13.333 0 24.833 -4.83301 34.5 -14.5s14.5 -21.167 14.5 -34.5z" />
    <glyph glyph-name="comma" unicode="," horiz-adv-x="240" 
d="M179 -29c0 -16.667 -8.33301 -25 -25 -25c-16 0 -24 8.33301 -24 25v24c0 4 -2 5.66699 -6 5h-4c-16 0 -29.833 5.66699 -41.5 17s-17.5 25.333 -17.5 42c0 16 5.83301 29.833 17.5 41.5s25.5 17.5 41.5 17.5s29.833 -5.83301 41.5 -17.5s17.5 -25.5 17.5 -41.5v-88z" />
    <glyph glyph-name="hyphen" unicode="-" horiz-adv-x="469" 
d="M408 290c0 -13.333 -4.66699 -24.833 -14 -34.5s-21 -14.5 -35 -14.5h-249c-14 0 -25.667 4.83301 -35 14.5s-14 21.167 -14 34.5s4.66699 24.833 14 34.5s21 14.5 35 14.5h249c14 0 25.667 -4.83301 35 -14.5s14 -21.167 14 -34.5z" />
    <glyph glyph-name="hyphen" unicode="&#x2010;" horiz-adv-x="469" 
d="M408 290c0 -13.333 -4.66699 -24.833 -14 -34.5s-21 -14.5 -35 -14.5h-249c-14 0 -25.667 4.83301 -35 14.5s-14 21.167 -14 34.5s4.66699 24.833 14 34.5s21 14.5 35 14.5h249c14 0 25.667 -4.83301 35 -14.5s14 -21.167 14 -34.5z" />
    <glyph glyph-name="period" unicode="." horiz-adv-x="240" 
d="M179 59c0 -16.667 -5.83301 -30.667 -17.5 -42s-25.5 -17 -41.5 -17s-29.833 5.66699 -41.5 17s-17.5 25.333 -17.5 42c0 16 5.83301 29.833 17.5 41.5s25.5 17.5 41.5 17.5s29.833 -5.83301 41.5 -17.5s17.5 -25.5 17.5 -41.5z" />
    <glyph glyph-name="slash" unicode="/" horiz-adv-x="527" 
d="M462 707l-308 -679.001c-8.66699 -18.667 -23.667 -28 -45 -28c-13.333 0 -24.833 4.66699 -34.5 14s-14.5 21 -14.5 35c0 6.66699 1.66699 13.334 5 20.001l308 679c8.66699 19.333 23.667 29 45 29c13.333 0 24.833 -4.83301 34.5 -14.5s14.5 -21.167 14.5 -34.5
c0 -7.33301 -1.66699 -14.333 -5 -21z" />
    <glyph glyph-name="zero" unicode="0" 
d="M492 185c0 -52 -18.5 -96.5 -55.5 -133.5s-81.5 -55.5 -133.5 -55.5h-54c-52 0 -96.5 18.5 -133.5 55.5s-55.5 81.5 -55.5 133.5v405c0 52 18.5 96.5 55.5 133.5s81.5 55.5 133.5 55.5h54c52 0 96.5 -18.5 133.5 -55.5s55.5 -81.5 55.5 -133.5v-405zM393 185v405
c0 25.333 -8.83301 46.833 -26.5 64.5s-38.834 26.5 -63.501 26.5h-54c-24.667 0 -45.834 -8.83301 -63.501 -26.5s-26.5 -39.167 -26.5 -64.5v-405c0 -24.667 8.83301 -45.834 26.5 -63.501s38.834 -26.5 63.501 -26.5h54c24.667 0 45.834 8.83301 63.501 26.5
s26.5 38.834 26.5 63.501z" />
    <glyph glyph-name="one" unicode="1" 
d="M393 48c0 -13.333 -4.83301 -24.833 -14.5 -34.5s-21.5 -14.5 -35.5 -14.5c-13.333 0 -24.833 4.83301 -34.5 14.5s-14.5 21.167 -14.5 34.5v589c0 3.33301 -1.66699 4 -5 2l-56 -32c-7.33301 -4.66699 -15.333 -7 -24 -7c-14 0 -25.833 4.83301 -35.5 14.5
s-14.5 21.167 -14.5 34.5c0 19.333 8.33301 33.666 25 42.999l135 78c16 9.33301 32.333 9.33301 49 0s25 -23.666 25 -42.999v-679z" />
    <glyph glyph-name="two" unicode="2" 
d="M489 48c0 -13.333 -4.83105 -24.832 -14.498 -34.499s-21.167 -14.5 -34.5 -14.5h-333c-20 0 -34.667 8.66699 -44 26s-8.33301 34.333 3 51l304 448c13.333 20 20 42 20 66c0 25.333 -8.83301 46.833 -26.5 64.5s-38.834 26.5 -63.501 26.5h-54
c-37.333 0 -64.333 -16.667 -81 -50c-8.66699 -18 -23.334 -27 -44.001 -27c-13.333 0 -24.833 4.66699 -34.5 14s-14.5 21 -14.5 35c0 7.33301 1.66699 14.666 5 21.999c16.667 32 40 57.333 70 76s63 28 99 28h54c52 0 96.5 -18.5 133.5 -55.5s55.5 -81.5 55.5 -133.5
c0 -44 -12.667 -84.667 -38 -122l-248 -366c-2 -3.33301 -1.33301 -5 2 -5h235c13.333 0 24.833 -4.66699 34.5 -14s14.5 -21 14.5 -35z" />
    <glyph glyph-name="three" unicode="3" 
d="M492 185c0 -52 -18.333 -96.333 -55 -133s-81 -55 -133 -55h-69c-36 0 -69.167 9.33301 -99.5 28s-53.5 44 -69.5 76c-3.33301 7.33301 -5 14.666 -5 21.999c0 14 4.83301 25.667 14.5 35s21.167 14 34.5 14c20.667 0 35.334 -9 44.001 -27
c16.667 -33.333 43.667 -50 81 -50h69c24.667 0 45.834 8.83301 63.501 26.5s26.5 38.834 26.5 63.501v64c0 24.667 -8.83301 45.834 -26.5 63.501s-38.834 26.5 -63.501 26.5h-72c-13.333 0 -24.833 4.83301 -34.5 14.5s-14.5 21.167 -14.5 34.5s4.83301 24.833 14.5 34.5
s21.167 14.5 34.5 14.5h72c24.667 0 45.834 8.83301 63.501 26.5s26.5 38.834 26.5 63.501v63c0 25.333 -8.83301 46.833 -26.5 64.5s-38.834 26.5 -63.501 26.5h-69c-38 0 -65.333 -17.333 -82 -52c-8.66699 -18.667 -23.334 -28 -44.001 -28
c-13.333 0 -24.833 4.83301 -34.5 14.5s-14.5 21.167 -14.5 34.5c0 7.33301 1.66699 14.666 5 21.999c15.333 32.667 38.5 58.667 69.5 78s64.5 29 100.5 29h69c52 0 96.333 -18.5 133 -55.5s55 -81.5 55 -133.5v-63c0 -52.667 -19.333 -97.667 -58 -135
c-2.66699 -2.66699 -2.66699 -5.33398 0 -8.00098c38.667 -37.333 58 -82.333 58 -135v-64z" />
    <glyph glyph-name="four" unicode="4" 
d="M491 193c0 -13.333 -4.83301 -24.833 -14.5 -34.5s-21.167 -14.5 -34.5 -14.5h-70c-4 0 -6 -2 -6 -6v-90c0 -13.333 -4.83301 -24.833 -14.5 -34.5s-21.167 -14.5 -34.5 -14.5s-24.833 4.83301 -34.5 14.5s-14.5 21.167 -14.5 34.5v90c0 4 -2 6 -6 6h-153
c-16 0 -29 6.33301 -39 19s-13 26.667 -9 42l139 535c6.66699 24 22.667 36 48 36c13.333 0 24.833 -4.66699 34.5 -14s14.5 -21 14.5 -35c0 -4 -0.333008 -8 -1 -12l-122 -468c-1.33301 -3.33301 0 -5 4 -5h84c4 0 6 2 6 6v138c0 14 4.83301 25.667 14.5 35
s21.167 14 34.5 14s24.833 -4.66699 34.5 -14s14.5 -21 14.5 -35v-138c0 -4 2 -6 6 -6h70c13.333 0 24.833 -4.83301 34.5 -14.5s14.5 -21.167 14.5 -34.5z" />
    <glyph glyph-name="five" unicode="5" 
d="M492 185c0 -52 -18.501 -96.5 -55.501 -133.5s-81.5 -55.5 -133.5 -55.5h-69c-35.333 0 -68.166 9.33301 -98.499 28s-53.5 43.667 -69.5 75c-3.33301 7.33301 -5 15 -5 23c0 13.333 4.83301 24.833 14.5 34.5s21.167 14.5 34.5 14.5c20 0 34.667 -9 44 -27
c16.667 -32.667 43.334 -49 80.001 -49h69c24.667 0 45.834 8.83301 63.501 26.5s26.5 38.834 26.5 63.501v112c0 25.333 -8.83301 46.666 -26.5 63.999s-38.834 26 -63.501 26h-69c-36.667 0 -63.334 -16.333 -80.001 -49c-9.33301 -18 -24 -27 -44 -27
c-13.333 0 -24.833 4.83301 -34.5 14.5s-14.5 21.167 -14.5 34.5v367c0 13.333 4.66699 24.833 14 34.5s21 14.5 35 14.5h316c13.333 0 24.833 -4.83301 34.5 -14.5s14.5 -21.167 14.5 -34.5s-4.83301 -24.833 -14.5 -34.5s-21.167 -14.5 -34.5 -14.5h-262
c-3.33301 0 -5 -2 -5 -6v-198c0 -4 1.66699 -5 5 -3c24.667 10 48 15 70 15h69c52 0 96.5 -18.5 133.5 -55.5s55.5 -81.5 55.5 -133.5v-112z" />
    <glyph glyph-name="six" unicode="6" 
d="M492 185c0 -52 -18.499 -96.501 -55.499 -133.501s-81.5 -55.5 -133.5 -55.5h-54c-52 0 -96.5 18.5 -133.5 55.5s-55.5 81.5 -55.5 133.5v405c0 52 18.5 96.5 55.5 133.5s81.5 55.5 133.5 55.5h54c36 0 69.167 -9.5 99.5 -28.5s53.5 -44.5 69.5 -76.5
c3.33301 -7.33301 5 -14.666 5 -21.999c0 -13.333 -4.83301 -24.833 -14.5 -34.5s-21.167 -14.5 -34.5 -14.5c-20 0 -34.667 9 -44 27c-16.667 34 -43.667 51 -81 51h-54c-24.667 0 -45.834 -8.83301 -63.501 -26.5s-26.5 -39.167 -26.5 -64.5v-122
c0 -3.33301 1.66699 -4.33301 5 -3c26.667 14 55 21 85 21h54c52 0 96.5 -18.5 133.5 -55.5s55.5 -81.5 55.5 -133.5v-112zM393.001 184.999v112c0 25.333 -8.83301 46.666 -26.5 63.999s-38.834 26 -63.501 26h-54c-24.667 0 -45.834 -8.66699 -63.501 -26
s-26.5 -38.666 -26.5 -63.999v-112c0 -24.667 8.83301 -45.834 26.5 -63.501s38.834 -26.5 63.501 -26.5h54c24.667 0 45.834 8.83301 63.501 26.5s26.5 38.834 26.5 63.501z" />
    <glyph glyph-name="seven" unicode="7" 
d="M491 715l-167.001 -678c-6 -25.333 -21.667 -38 -47 -38c-14 0 -25.667 4.83301 -35 14.5s-14 21.167 -14 34.5c0 4 0.333008 8 1 12l150 613c0.666992 3.33301 -0.666016 5 -3.99902 5h-210c-4 0 -6 -2 -6 -6v-56c0 -13.333 -4.66699 -24.833 -14 -34.5
s-21 -14.5 -35 -14.5c-13.333 0 -24.833 4.83301 -34.5 14.5s-14.5 21.167 -14.5 34.5v111c0 13.333 4.83301 24.833 14.5 34.5s21.167 14.5 34.5 14.5h333c16 0 29 -6.16699 39 -18.5s13 -26.5 9 -42.5z" />
    <glyph glyph-name="eight" unicode="8" 
d="M492 185c0 -52 -18.5 -96.5 -55.5 -133.5s-81.5 -55.5 -133.5 -55.5h-54c-52 0 -96.5 18.5 -133.5 55.5s-55.5 81.5 -55.5 133.5v63c0 53.333 19.333 98.666 58 135.999c1.33301 0.666992 2 1.66699 2 3c0 2 -0.666992 3.33301 -2 4
c-38.667 37.333 -58 82.666 -58 135.999v63c0 52 18.5 96.5 55.5 133.5s81.5 55.5 133.5 55.5h54c52 0 96.5 -18.5 133.5 -55.5s55.5 -81.5 55.5 -133.5v-63c0 -53.333 -19.333 -98.666 -58 -135.999c-1.33301 -0.666992 -2 -2 -2 -4c0 -1.33301 0.666992 -2.33301 2 -3
c38.667 -37.333 58 -82.666 58 -135.999v-63zM393 527v63c0 24.667 -8.83301 45.834 -26.5 63.501s-38.834 26.5 -63.501 26.5h-54c-24.667 0 -45.834 -8.83301 -63.501 -26.5s-26.5 -38.834 -26.5 -63.501v-63c0 -24.667 8.83301 -45.834 26.5 -63.501
s38.834 -26.5 63.501 -26.5h54c24.667 0 45.834 8.83301 63.501 26.5s26.5 38.834 26.5 63.501zM393 185v63c0 24.667 -8.83301 45.834 -26.5 63.501s-38.834 26.5 -63.501 26.5h-54c-24.667 0 -45.834 -8.83301 -63.501 -26.5s-26.5 -38.834 -26.5 -63.501v-63
c0 -24.667 8.83301 -45.834 26.5 -63.501s38.834 -26.5 63.501 -26.5h54c24.667 0 45.834 8.83301 63.501 26.5s26.5 38.834 26.5 63.501z" />
    <glyph glyph-name="nine" unicode="9" 
d="M492 185c0 -52 -18.501 -96.501 -55.501 -133.501s-81.5 -55.5 -133.5 -55.5h-54c-36 0 -69.167 9.5 -99.5 28.5s-53.5 44.833 -69.5 77.5c-3.33301 6.66699 -5 13.667 -5 21c0 14 4.83301 25.667 14.5 35s21.167 14 34.5 14c20 0 34.667 -9 44 -27
c16.667 -33.333 43.667 -50 81 -50h54c24.667 0 45.834 8.83301 63.501 26.5s26.5 38.834 26.5 63.501v122c0 3.33301 -1.66699 4.33301 -5 3c-26.667 -13.333 -55 -20 -85 -20h-54c-52 0 -96.5 18.333 -133.5 55s-55.5 81 -55.5 133v112c0 52 18.5 96.5 55.5 133.5
s81.5 55.5 133.5 55.5h54c52 0 96.5 -18.5 133.5 -55.5s55.5 -81.5 55.5 -133.5v-405zM392.999 477.999v112c0 25.333 -8.83301 46.833 -26.5 64.5s-38.834 26.5 -63.501 26.5h-54c-24.667 0 -45.834 -8.83301 -63.501 -26.5s-26.5 -39.167 -26.5 -64.5v-112
c0 -24.667 8.83301 -45.834 26.5 -63.501s38.834 -26.5 63.501 -26.5h54c24.667 0 45.834 8.83301 63.501 26.5s26.5 38.834 26.5 63.501z" />
    <glyph glyph-name="colon" unicode=":" horiz-adv-x="240" 
d="M179 401c0 -16 -5.83301 -29.833 -17.5 -41.5s-25.5 -17.5 -41.5 -17.5s-29.833 5.83301 -41.5 17.5s-17.5 25.5 -17.5 41.5c0 16.667 5.83301 30.667 17.5 42s25.5 17 41.5 17s29.833 -5.66699 41.5 -17s17.5 -25.333 17.5 -42zM179 113
c0 -16.667 -5.83301 -30.667 -17.5 -42s-25.5 -17 -41.5 -17s-29.833 5.66699 -41.5 17s-17.5 25.333 -17.5 42c0 16 5.83301 29.833 17.5 41.5s25.5 17.5 41.5 17.5s29.833 -5.83301 41.5 -17.5s17.5 -25.5 17.5 -41.5z" />
    <glyph glyph-name="semicolon" unicode=";" horiz-adv-x="240" 
d="M179 401c0 -16 -5.83301 -29.833 -17.5 -41.5s-25.5 -17.5 -41.5 -17.5s-29.833 5.83301 -41.5 17.5s-17.5 25.5 -17.5 41.5c0 16.667 5.83301 30.667 17.5 42s25.5 17 41.5 17s29.833 -5.66699 41.5 -17s17.5 -25.333 17.5 -42zM179 24c0 -16 -8.33301 -24 -25 -24
c-16 0 -24 8 -24 24v25c0 4 -2 5.66699 -6 5h-4c-16 0 -29.833 5.66699 -41.5 17s-17.5 25.333 -17.5 42c0 16 5.83301 29.833 17.5 41.5s25.5 17.5 41.5 17.5s29.833 -5.83301 41.5 -17.5s17.5 -25.5 17.5 -41.5v-89z" />
    <glyph glyph-name="less" unicode="&#x3c;" horiz-adv-x="371" 
d="M310 48c0 -14 -4.83301 -25.667 -14.5 -35s-21.167 -14 -34.5 -14c-18 0 -31.667 7.33301 -41 22l-151 228c-5.33301 8.66699 -8 17.667 -8 27c0 10 2.66699 19 8 27l151 229c9.33301 14.667 23 22 41 22c13.333 0 24.833 -4.83301 34.5 -14.5s14.5 -21.167 14.5 -34.5
c0 -10 -2.66699 -19 -8 -27l-130 -197c-2 -3.33301 -2 -6.33301 0 -9l130 -197c5.33301 -8 8 -17 8 -27z" />
    <glyph glyph-name="equal" unicode="=" horiz-adv-x="470" 
d="M409 378c0 -14 -4.83301 -25.667 -14.5 -35s-21.167 -14 -34.5 -14h-250c-13.333 0 -24.833 4.66699 -34.5 14s-14.5 21 -14.5 35c0 13.333 4.83301 24.833 14.5 34.5s21.167 14.5 34.5 14.5h250c13.333 0 24.833 -4.83301 34.5 -14.5s14.5 -21.167 14.5 -34.5zM409 202
c0 -13.333 -4.83301 -24.833 -14.5 -34.5s-21.167 -14.5 -34.5 -14.5h-250c-13.333 0 -24.833 4.83301 -34.5 14.5s-14.5 21.167 -14.5 34.5c0 14 4.83301 25.667 14.5 35s21.167 14 34.5 14h250c13.333 0 24.833 -4.66699 34.5 -14s14.5 -21 14.5 -35z" />
    <glyph glyph-name="greater" unicode="&#x3e;" horiz-adv-x="371" 
d="M302 249l-151 -228c-9.33301 -14.667 -23 -22 -41 -22c-13.333 0 -24.833 4.66699 -34.5 14s-14.5 21 -14.5 35c0 10 2.66699 19 8 27l130 197c2 2.66699 2 5.66699 0 9l-130 197c-5.33301 8 -8 17 -8 27c0 13.333 4.83301 24.833 14.5 34.5s21.167 14.5 34.5 14.5
c18 0 31.667 -7.33301 41 -22l151 -229c5.33301 -8 8 -17 8 -27c0 -9.33301 -2.66699 -18.333 -8 -27z" />
    <glyph glyph-name="question" unicode="?" horiz-adv-x="534" 
d="M474 592c0 -51.333 -18.3311 -95.332 -54.998 -131.999l-74 -71c-22.667 -23.333 -34 -51 -34 -83v-83c0 -13.333 -4.83301 -24.833 -14.5 -34.5s-21.5 -14.5 -35.5 -14.5c-13.333 0 -24.833 4.83301 -34.5 14.5s-14.5 21.167 -14.5 34.5v83c0 60 21.667 111 65 153
l74 72c16.667 17.333 25 37.666 25 60.999c0 24.667 -8.5 45.167 -25.5 61.5s-37.833 24.5 -62.5 24.5h-54c-37.333 0 -64.333 -16.667 -81 -50c-8.66699 -18.667 -23.334 -28 -44.001 -28c-13.333 0 -24.833 4.83301 -34.5 14.5s-14.5 21.167 -14.5 34.5
c0 7.33301 1.66699 14.333 5 21c15.333 32.667 38.333 58.667 69 78s64 29 100 29h54c24 0 47 -4.33301 69 -13c35.333 -14 63.666 -36.667 84.999 -68s32 -66 32 -104zM321.002 59.001c0 -16.667 -5.66699 -30.667 -17 -42s-25.333 -17 -42 -17
c-16 0 -29.667 5.66699 -41 17s-17 25.333 -17 42c0 16 5.66699 29.833 17 41.5s25 17.5 41 17.5c16.667 0 30.667 -5.83301 42 -17.5s17 -25.5 17 -41.5z" />
    <glyph glyph-name="at" unicode="@" horiz-adv-x="625" 
d="M564 384c0 -48 -17 -88.999 -51 -122.999s-75 -51 -123 -51c-47.333 0 -88 17 -122 51s-51 74.667 -51 122c0 48 17 89 51 123s74.667 51 122 51h70c4 0 6 1.66699 6 5v26c0 25.333 -8.83301 46.666 -26.5 63.999s-38.834 26 -63.501 26h-127
c-24.667 0 -45.834 -8.66699 -63.501 -26s-26.5 -38.666 -26.5 -63.999v-400c0 -24.667 8.83301 -45.834 26.5 -63.501s38.834 -26.5 63.501 -26.5h127c37.333 0 64.333 17 81 51c8.66699 18 23.334 27 44.001 27c13.333 0 24.833 -4.83301 34.5 -14.5
s14.5 -21.167 14.5 -34.5c0 -7.33301 -1.66699 -14.666 -5 -21.999c-16 -32.667 -39.167 -58.334 -69.5 -77.001s-63.5 -28 -99.5 -28h-127c-52 -0 -96.333 18.333 -133 55s-55 81 -55 133v400c0 52 18.333 96.5 55 133.5s81 55.5 133 55.5h127c52 0 96.333 -18.5 133 -55.5
s55 -81.5 55 -133.5v-204zM466 384.001v69.002c0 3.33301 -2 5 -6 5h-70c-20.667 0 -38.334 -7.33301 -53.001 -22s-22 -32.334 -22 -53.001s7.33301 -38.334 22 -53.001s32.334 -22 53.001 -22s38.5 7.5 53.5 22.5s22.5 32.833 22.5 53.5z" />
    <glyph glyph-name="A" unicode="A" horiz-adv-x="618" 
d="M556 62c1.33301 -4.66699 1.99805 -9.33398 1.99805 -14.001c0 -13.333 -4.83301 -24.833 -14.5 -34.5s-21.5 -14.5 -35.5 -14.5c-24 0 -39.667 11.667 -47 35l-32 109c-0.666992 3.33301 -3 5 -7 5h-226c-4 0 -6.33301 -1.66699 -7 -5l-32 -109
c-7.33301 -23.333 -23 -35 -47 -35c-14 0 -25.833 4.83301 -35.5 14.5s-14.5 21.167 -14.5 34.5c0 4.66699 0.666992 9.33398 2 14.001l200 679c6.66699 23.333 22.334 35 47.001 35s40.334 -11.667 47.001 -35zM396.998 252l-86 293c0 1.33301 -0.666992 2 -2 2
s-2 -0.666992 -2 -2l-86 -293c-1.33301 -3.33301 0 -5 4 -5h168c4 0 5.33301 1.66699 4 5z" />
    <glyph glyph-name="B" unicode="B" 
d="M492 188c0 -52 -18.5 -96.332 -55.5 -132.999s-81.5 -55 -133.5 -55h-193c-14 0 -25.833 4.66699 -35.5 14s-14.5 21 -14.5 35v678c0 13.333 4.83301 24.833 14.5 34.5s21.5 14.5 35.5 14.5h193c52 0 96.5 -18.333 133.5 -55s55.5 -81 55.5 -133v-61
c0 -52.667 -19.333 -97.667 -58 -135c-2.66699 -2.66699 -2.66699 -5.33398 0 -8.00098c38.667 -37.333 58 -82.333 58 -135v-61zM393 527.001v60.998c0 24.667 -8.83301 45.834 -26.5 63.501s-38.834 26.5 -63.501 26.5h-139c-3.33301 0 -5 -2 -5 -6v-229
c0 -4 1.66699 -6 5 -6h139c24.667 0 45.834 8.83301 63.501 26.5s26.5 38.834 26.5 63.501zM393 187.999v60.998c0 24.667 -8.83301 45.834 -26.5 63.501s-38.834 26.5 -63.501 26.5h-139c-3.33301 0 -5 -2 -5 -6v-229c0 -4 1.66699 -6 5 -6h139
c24.667 0 45.834 8.83301 63.501 26.5s26.5 38.834 26.5 63.501z" />
    <glyph glyph-name="C" unicode="C" horiz-adv-x="539" 
d="M474 672c2.66699 -6.66699 4.00098 -13.667 4.00098 -21c0 -14 -4.83301 -25.833 -14.5 -35.5s-21.167 -14.5 -34.5 -14.5c-20.667 0 -35.334 9.33301 -44.001 28c-16.667 34.667 -44 52 -82 52h-54c-24.667 0 -45.834 -8.83301 -63.501 -26.5s-26.5 -39.167 -26.5 -64.5
v-405c0 -24.667 8.83301 -45.834 26.5 -63.501s38.834 -26.5 63.501 -26.5h54c38 0 65 16.667 81 50c9.33301 18.667 24.333 28 45 28c13.333 0 24.833 -4.83301 34.5 -14.5s14.5 -21.167 14.5 -34.5c0 -7.33301 -1.66699 -14.666 -5 -21.999
c-16 -32 -39.333 -57.667 -70 -77s-64 -29 -100 -29h-54c-52 0 -96.333 18.5 -133 55.5s-55 81.5 -55 133.5v405c0 52 18.333 96.5 55 133.5s81 55.5 133 55.5h54c36 0 69.5 -9.66699 100.5 -29s54.5 -45.333 70.5 -78z" />
    <glyph glyph-name="D" unicode="D" 
d="M492 188c0 -52 -18.5 -96.5 -55.5 -133.5s-81.5 -55.5 -133.5 -55.5h-193c-14 0 -25.833 4.83301 -35.5 14.5s-14.5 21.167 -14.5 34.5v679c0 13.333 4.83301 24.833 14.5 34.5s21.5 14.5 35.5 14.5h193c52 0 96.5 -18.333 133.5 -55s55.5 -81 55.5 -133v-400zM393 188
v399.999c0 24.667 -8.83301 45.834 -26.5 63.501s-38.834 26.5 -63.501 26.5h-139c-3.33301 0 -5 -2 -5 -6v-569c0 -4 1.66699 -6 5 -6h139c24.667 0 45.834 8.83301 63.501 26.5s26.5 39.167 26.5 64.5z" />
    <glyph glyph-name="E" unicode="E" horiz-adv-x="514" 
d="M453 48c0 -13.333 -4.83301 -24.833 -14.5 -34.5s-21.167 -14.5 -34.5 -14.5h-294c-13.333 0 -24.833 4.83301 -34.5 14.5s-14.5 21.167 -14.5 34.5v679c0 13.333 4.83301 24.833 14.5 34.5s21.167 14.5 34.5 14.5h294c13.333 0 24.833 -4.83301 34.5 -14.5
s14.5 -21.167 14.5 -34.5s-4.83301 -24.833 -14.5 -34.5s-21.167 -14.5 -34.5 -14.5h-239c-4 0 -6 -2 -6 -6v-230c0 -3.33301 2 -5 6 -5h200c13.333 0 24.833 -4.83301 34.5 -14.5s14.5 -21.167 14.5 -34.5c0 -14 -4.83301 -25.667 -14.5 -35s-21.167 -14 -34.5 -14h-200
c-4 0 -6 -2 -6 -6v-230c0 -4 2 -6 6 -6h239c13.333 0 24.833 -4.66699 34.5 -14s14.5 -21 14.5 -35z" />
    <glyph glyph-name="F" unicode="F" horiz-adv-x="515" 
d="M454 727c0 -13.333 -4.83301 -24.833 -14.5 -34.5s-21.5 -14.5 -35.5 -14.5h-239c-3.33301 0 -5 -2 -5 -6v-230c0 -3.33301 1.66699 -5 5 -5h200c14 0 25.833 -4.83301 35.5 -14.5s14.5 -21.167 14.5 -34.5c0 -14 -4.83301 -25.667 -14.5 -35s-21.5 -14 -35.5 -14h-200
c-3.33301 0 -5 -2 -5 -6v-285c0 -13.333 -4.83301 -24.833 -14.5 -34.5s-21.167 -14.5 -34.5 -14.5c-14 0 -25.833 4.83301 -35.5 14.5s-14.5 21.167 -14.5 34.5v679c0 13.333 4.83301 24.833 14.5 34.5s21.5 14.5 35.5 14.5h293c14 0 25.833 -4.83301 35.5 -14.5
s14.5 -21.167 14.5 -34.5z" />
    <glyph glyph-name="G" unicode="G" 
d="M492 185c0 -52 -18.501 -96.5 -55.501 -133.5s-81.5 -55.5 -133.5 -55.5h-54c-52 0 -96.5 18.5 -133.5 55.5s-55.5 81.5 -55.5 133.5v405c0 52 18.5 96.5 55.5 133.5s81.5 55.5 133.5 55.5h54c36 0 69.333 -9.66699 100 -29s54 -45 70 -77c3.33301 -6.66699 5 -14 5 -22
c0 -13.333 -4.83301 -24.833 -14.5 -34.5s-21.5 -14.5 -35.5 -14.5c-20 0 -34.667 9.33301 -44 28c-16 34 -43 51 -81 51h-54c-24.667 0 -45.834 -8.83301 -63.501 -26.5s-26.5 -39.167 -26.5 -64.5v-405c0 -24.667 8.83301 -45.834 26.5 -63.501s38.834 -26.5 63.501 -26.5
h54c24.667 0 45.834 8.83301 63.501 26.5s26.5 38.834 26.5 63.501v148c0 4 -1.66699 6 -5 6h-62c-13.333 0 -24.833 4.83301 -34.5 14.5s-14.5 21.167 -14.5 34.5s4.83301 24.833 14.5 34.5s21.167 14.5 34.5 14.5h116c14 0 25.833 -4.83301 35.5 -14.5
s14.5 -21.167 14.5 -34.5v-203z" />
    <glyph glyph-name="H" unicode="H" 
d="M492 48c0 -13.333 -4.83301 -24.833 -14.5 -34.5s-21.5 -14.5 -35.5 -14.5c-13.333 0 -24.833 4.83301 -34.5 14.5s-14.5 21.167 -14.5 34.5v285c0 4 -1.66699 6 -5 6h-224c-3.33301 0 -5 -2 -5 -6v-285c0 -13.333 -4.83301 -24.833 -14.5 -34.5
s-21.167 -14.5 -34.5 -14.5c-14 0 -25.833 4.83301 -35.5 14.5s-14.5 21.167 -14.5 34.5v679c0 13.333 4.83301 24.833 14.5 34.5s21.5 14.5 35.5 14.5c13.333 0 24.833 -4.83301 34.5 -14.5s14.5 -21.167 14.5 -34.5v-285c0 -3.33301 1.66699 -5 5 -5h224
c3.33301 0 5 1.66699 5 5v285c0 13.333 4.83301 24.833 14.5 34.5s21.167 14.5 34.5 14.5c14 0 25.833 -4.83301 35.5 -14.5s14.5 -21.167 14.5 -34.5v-679z" />
    <glyph glyph-name="I" unicode="I" horiz-adv-x="219" 
d="M159 48c0 -13.333 -4.83301 -24.833 -14.5 -34.5s-21.167 -14.5 -34.5 -14.5c-14 0 -25.833 4.83301 -35.5 14.5s-14.5 21.167 -14.5 34.5v679c0 13.333 4.83301 24.833 14.5 34.5s21.5 14.5 35.5 14.5c13.333 0 24.833 -4.83301 34.5 -14.5s14.5 -21.167 14.5 -34.5
v-679z" />
    <glyph glyph-name="J" unicode="J" horiz-adv-x="481" 
d="M420 188c0 -52 -18.5 -96.5 -55.5 -133.5s-81.5 -55.5 -133.5 -55.5h-121c-13.333 0 -24.833 4.83301 -34.5 14.5s-14.5 21.167 -14.5 34.5c0 14 4.83301 25.667 14.5 35s21.167 14 34.5 14h121c25.333 0 46.833 8.83301 64.5 26.5s26.5 39.167 26.5 64.5v539
c0 13.333 4.66699 24.833 14 34.5s21 14.5 35 14.5c13.333 0 24.833 -4.83301 34.5 -14.5s14.5 -21.167 14.5 -34.5v-539z" />
    <glyph glyph-name="K" unicode="K" 
d="M484 74c5.33301 -8 8 -16.666 8 -25.999c0 -13.333 -4.83301 -24.833 -14.5 -34.5s-21.5 -14.5 -35.5 -14.5c-18 0 -31.667 8 -41 24l-186 302c-2 2.66699 -4 2.66699 -6 0l-48 -64c-1.33301 -2.66699 -2 -5.66699 -2 -9v-204c0 -13.333 -4.83301 -24.833 -14.5 -34.5
s-21.167 -14.5 -34.5 -14.5c-14 0 -25.833 4.83301 -35.5 14.5s-14.5 21.167 -14.5 34.5v679c0 13.333 4.83301 24.833 14.5 34.5s21.5 14.5 35.5 14.5c13.333 0 24.833 -4.83301 34.5 -14.5s14.5 -21.167 14.5 -34.5v-297c0 -4.66699 1.33301 -5 4 -1l240 327
c9.33301 13.333 22.333 20 39 20c14 0 25.833 -4.83301 35.5 -14.5s14.5 -21.167 14.5 -34.5c0 -10.667 -3.33301 -20.334 -10 -29.001l-204 -279c-2 -2.66699 -2 -5.66699 0 -9z" />
    <glyph glyph-name="L" unicode="L" horiz-adv-x="514" 
d="M453 48c0 -13.333 -4.83301 -24.833 -14.5 -34.5s-21.167 -14.5 -34.5 -14.5h-294c-13.333 0 -24.833 4.83301 -34.5 14.5s-14.5 21.167 -14.5 34.5v679c0 13.333 4.83301 24.833 14.5 34.5s21.167 14.5 34.5 14.5s24.833 -4.83301 34.5 -14.5s14.5 -21.167 14.5 -34.5
v-624c0 -4 2 -6 6 -6h239c13.333 0 24.833 -4.66699 34.5 -14s14.5 -21 14.5 -35z" />
    <glyph glyph-name="M" unicode="M" horiz-adv-x="696" 
d="M635 48c0 -13.333 -4.83203 -24.833 -14.499 -34.5s-21.167 -14.5 -34.5 -14.5s-24.833 4.83301 -34.5 14.5s-14.5 21.167 -14.5 34.5v458c0 0.666992 -0.666992 1.33398 -2 2.00098c-1.33301 0 -2.33301 -0.333008 -3 -1l-140 -287
c-8.66699 -18 -23.334 -27 -44.001 -27s-35.334 9 -44.001 27l-140 287c-0.666992 0.666992 -1.66699 1 -3 1c-1.33301 -0.666992 -2 -1.33398 -2 -2.00098v-458c0 -13.333 -4.83301 -24.833 -14.5 -34.5s-21.167 -14.5 -34.5 -14.5s-24.833 4.83301 -34.5 14.5
s-14.5 21.167 -14.5 34.5v679c0 14 4.83301 25.667 14.5 35s21.167 14 34.5 14c20.667 0 35.334 -9 44.001 -27l192 -390c1.33301 -3.33301 2.66602 -3.33301 3.99902 0l192 390c8.66699 18 23.334 27 44.001 27c13.333 0 24.833 -4.66699 34.5 -14s14.5 -21 14.5 -35v-679z
" />
    <glyph glyph-name="N" unicode="N" 
d="M492 48c0 -13.333 -4.83301 -24.834 -14.5 -34.501s-21.5 -14.5 -35.5 -14.5c-20 0 -34.667 9.33301 -44 28l-235 479c-0.666992 1.33301 -1.66699 2 -3 2c-0.666992 -0.666992 -1 -1.66699 -1 -3v-457c0 -13.333 -4.83301 -24.833 -14.5 -34.5
s-21.167 -14.5 -34.5 -14.5c-14 0 -25.833 4.83301 -35.5 14.5s-14.5 21.167 -14.5 34.5v679c0 14 4.83301 25.667 14.5 35s21.5 14 35.5 14c20 0 34.667 -9 44 -27l235 -480c0.666992 -1.33301 1.66699 -1.66602 3 -0.999023c0.666992 0 1 0.666992 1 2v457
c0 13.333 4.83301 24.833 14.5 34.5s21.167 14.5 34.5 14.5c14 0 25.833 -4.83301 35.5 -14.5s14.5 -21.167 14.5 -34.5v-679z" />
    <glyph glyph-name="O" unicode="O" 
d="M492 185c0 -52 -18.5 -96.5 -55.5 -133.5s-81.5 -55.5 -133.5 -55.5h-54c-52 0 -96.5 18.5 -133.5 55.5s-55.5 81.5 -55.5 133.5v405c0 52 18.5 96.5 55.5 133.5s81.5 55.5 133.5 55.5h54c52 0 96.5 -18.5 133.5 -55.5s55.5 -81.5 55.5 -133.5v-405zM393 185v405
c0 25.333 -8.83301 46.833 -26.5 64.5s-38.834 26.5 -63.501 26.5h-54c-24.667 0 -45.834 -8.83301 -63.501 -26.5s-26.5 -39.167 -26.5 -64.5v-405c0 -24.667 8.83301 -45.834 26.5 -63.501s38.834 -26.5 63.501 -26.5h54c24.667 0 45.834 8.83301 63.501 26.5
s26.5 38.834 26.5 63.501z" />
    <glyph glyph-name="P" unicode="P" 
d="M492 527c0 -52 -18.5 -96.333 -55.5 -133s-81.5 -55 -133.5 -55h-139c-3.33301 0 -5 -2 -5 -6v-285c0 -13.333 -4.83301 -24.833 -14.5 -34.5s-21.167 -14.5 -34.5 -14.5c-14 0 -25.833 4.83301 -35.5 14.5s-14.5 21.167 -14.5 34.5v679
c0 13.333 4.83301 24.833 14.5 34.5s21.5 14.5 35.5 14.5h193c52 0 96.5 -18.333 133.5 -55s55.5 -81 55.5 -133v-61zM393 527v60.998c0 24.667 -8.83301 45.834 -26.5 63.501s-38.834 26.5 -63.501 26.5h-139c-3.33301 0 -5 -2 -5 -6v-229c0 -4 1.66699 -6 5 -6h139
c24.667 0 45.834 8.83301 63.501 26.5s26.5 38.834 26.5 63.501z" />
    <glyph glyph-name="Q" unicode="Q" 
d="M492 185c0 -52.667 -19 -97.332 -57 -133.999c-2.66699 -2.66699 -3 -5.66699 -1 -9l50 -79c4.66699 -8 7 -16.667 7 -26c0 -14 -4.66699 -25.667 -14 -35s-21 -14 -35 -14c-18 0 -31.667 7.66699 -41 23l-54 85c-2 3.33301 -5 4.66602 -9 3.99902
c-11.333 -2.66699 -23 -4 -35 -4h-54c-52 0 -96.5 18.5 -133.5 55.5s-55.5 81.5 -55.5 133.5v405c0 52 18.5 96.5 55.5 133.5s81.5 55.5 133.5 55.5h54c52 0 96.5 -18.5 133.5 -55.5s55.5 -81.5 55.5 -133.5v-405zM393 185.002v405c0 25.333 -8.83301 46.833 -26.5 64.5
s-38.834 26.5 -63.501 26.5h-54c-24.667 0 -45.834 -8.83301 -63.501 -26.5s-26.5 -39.167 -26.5 -64.5v-405c0 -24.667 8.83301 -45.834 26.5 -63.501s38.834 -26.5 63.501 -26.5h54c24.667 0 45.834 8.83301 63.501 26.5s26.5 38.834 26.5 63.501z" />
    <glyph glyph-name="R" unicode="R" 
d="M492 527c0 -36.667 -10 -70.333 -30 -101s-46.333 -53.667 -79 -69c-3.33301 -2 -4.33301 -4.66699 -3 -8l108 -283c2.66699 -6 4 -12 4 -18c0 -13.333 -4.83301 -24.833 -14.5 -34.5s-21.5 -14.5 -35.5 -14.5c-22 0 -37.333 10.667 -46 32l-115 303
c-1.33301 3.33301 -4 5 -8 5h-109c-3.33301 0 -5 -2 -5 -6v-285c0 -13.333 -4.83301 -24.833 -14.5 -34.5s-21.167 -14.5 -34.5 -14.5c-14 0 -25.833 4.83301 -35.5 14.5s-14.5 21.167 -14.5 34.5v679c0 13.333 4.83301 24.833 14.5 34.5s21.5 14.5 35.5 14.5h193
c52 0 96.5 -18.333 133.5 -55s55.5 -81 55.5 -133v-61zM393 527.001v60.998c0 24.667 -8.83301 45.834 -26.5 63.501s-38.834 26.5 -63.501 26.5h-139c-3.33301 0 -5 -2 -5 -6v-229c0 -4 1.66699 -6 5 -6h139c24.667 0 45.834 8.83301 63.501 26.5s26.5 38.834 26.5 63.501z
" />
    <glyph glyph-name="S" unicode="S" 
d="M492 186c0 -52.667 -18.498 -97.502 -55.498 -134.502s-81.5 -55.5 -133.5 -55.5h-54c-44.667 0 -84.334 14.333 -119.001 43s-56.667 65 -66 109c-2.66699 13.333 -0.166992 25.5 7.5 36.5s18.167 18.167 31.5 21.5c13.333 2.66699 25.666 0.166992 36.999 -7.5
s18.333 -18.167 21 -31.5c4 -21.333 14.333 -38.833 31 -52.5s35.667 -20.5 57 -20.5h54c24.667 0 45.834 9 63.501 27s26.5 39.667 26.5 65v33c0 28.667 -9 53.834 -27 75.501s-41 34.834 -69 39.501l-58 10c-52 8.66699 -94.833 33 -128.5 73s-50.5 86.667 -50.5 140v33
c0 52 18.5 96.667 55.5 134s81.5 56 133.5 56h54c46.667 0 87.5 -15 122.5 -45s56.167 -68.333 63.5 -115c2 -13.333 -0.833008 -25.5 -8.5 -36.5s-18.5 -17.5 -32.5 -19.5c-13.333 -2 -25.5 1 -36.5 9s-17.5 18.667 -19.5 32c-3.33301 22 -13.5 40.167 -30.5 54.5
s-36.5 21.5 -58.5 21.5h-54c-24.667 0 -45.834 -8.83301 -63.501 -26.5s-26.5 -39.167 -26.5 -64.5v-33c0 -28.667 9 -54 27 -76s41 -35.333 69 -40l58 -10c52 -8.66699 94.833 -33 128.5 -73s50.5 -86.333 50.5 -139v-33z" />
    <glyph glyph-name="T" unicode="T" 
d="M492 727c0 -13.333 -4.83301 -24.833 -14.5 -34.5s-21.5 -14.5 -35.5 -14.5h-111c-4 0 -6 -2 -6 -6v-624c0 -13.333 -4.83301 -24.833 -14.5 -34.5s-21.167 -14.5 -34.5 -14.5s-24.833 4.83301 -34.5 14.5s-14.5 21.167 -14.5 34.5v624c0 4 -2 6 -6 6h-111
c-14 0 -25.833 4.83301 -35.5 14.5s-14.5 21.167 -14.5 34.5s4.83301 24.833 14.5 34.5s21.5 14.5 35.5 14.5h332c14 0 25.833 -4.83301 35.5 -14.5s14.5 -21.167 14.5 -34.5z" />
    <glyph glyph-name="U" unicode="U" 
d="M492 185c0 -52 -18.502 -96.5 -55.502 -133.5s-81.5 -55.5 -133.5 -55.5h-54c-52 0 -96.5 18.5 -133.5 55.5s-55.5 81.5 -55.5 133.5v542c0 13.333 4.83301 24.833 14.5 34.5s21.5 14.5 35.5 14.5c13.333 0 24.833 -4.83301 34.5 -14.5s14.5 -21.167 14.5 -34.5v-542
c0 -24.667 8.83301 -45.834 26.5 -63.501s38.834 -26.5 63.501 -26.5h54c24.667 0 45.834 8.83301 63.501 26.5s26.5 38.834 26.5 63.501v542c0 13.333 4.83301 24.833 14.5 34.5s21.167 14.5 34.5 14.5c14 0 25.833 -4.83301 35.5 -14.5s14.5 -21.167 14.5 -34.5v-542z" />
    <glyph glyph-name="V" unicode="V" horiz-adv-x="618" 
d="M556 713l-199.998 -679c-6.66699 -23.333 -22.334 -35 -47.001 -35s-40.334 11.667 -47.001 35l-200 679c-1.33301 4.66699 -2 9.33398 -2 14.001c0 14 4.83301 25.667 14.5 35s21.5 14 35.5 14c24 0 39.667 -11.667 47 -35l150 -511
c0 -0.666992 0.666992 -1.33398 2 -2.00098c1.33301 0.666992 2 1.33398 2 2.00098l150 511c7.33301 23.333 23 35 47 35c14 0 25.833 -4.66699 35.5 -14s14.5 -21 14.5 -35c0 -4.66699 -0.666992 -9.33398 -2 -14.001z" />
    <glyph glyph-name="W" unicode="W" horiz-adv-x="858" 
d="M796 716l-160.002 -679c-6 -25.333 -21.667 -38 -47 -38c-26 0 -42 12.667 -48 38l-110 466c0 1.33301 -0.666992 2 -2 2s-2 -0.666992 -2 -2l-110 -466c-6 -25.333 -22 -38 -48 -38s-41.667 12.667 -47 38l-160 679c-0.666992 3.33301 -1 7 -1 11
c0 14 4.83301 25.667 14.5 35s21.167 14 34.5 14c26 0 42 -12.667 48 -38l109 -466c0.666992 -0.666992 1.33398 -1 2.00098 -1c1.33301 0 2.33301 0.333008 3 1l109 466c6 25.333 22 38 48 38s42 -12.667 48 -38l109 -466c0.666992 -0.666992 1.66699 -1 3 -1
c0.666992 0 1.33398 0.333008 2.00098 1l109 466c6 25.333 22 38 48 38c13.333 0 24.833 -4.66699 34.5 -14s14.5 -21 14.5 -35c0 -4 -0.333008 -7.66699 -1 -11z" />
    <glyph glyph-name="X" unicode="X" 
d="M486 70c3.33301 -6.66699 5 -14 5 -22c0 -13.333 -4.83301 -24.833 -14.5 -34.5s-21.167 -14.5 -34.5 -14.5c-20.667 0 -35.334 9.33301 -44.001 28l-120 244c-1.33301 3.33301 -2.66602 3.33301 -3.99902 0l-120 -244c-8.66699 -18.667 -23.334 -28 -44.001 -28
c-13.333 0 -24.833 4.83301 -34.5 14.5s-14.5 21.167 -14.5 34.5c0 8 1.66699 15.333 5 22l153 313c1.33301 3.33301 1.33301 6.66602 0 9.99902l-153 313c-3.33301 6.66699 -5 13.667 -5 21c0 14 4.83301 25.667 14.5 35s21.167 14 34.5 14c20.667 0 35.334 -9 44.001 -27
l120 -244c1.33301 -3.33301 2.66602 -3.33301 3.99902 0l120 244c8.66699 18 23.334 27 44.001 27c13.333 0 24.833 -4.83301 34.5 -14.5s14.5 -21.167 14.5 -34.5c0 -7.33301 -1.66699 -14.333 -5 -21l-153 -313c-1.33301 -3.33301 -1.33301 -6.66602 0 -9.99902z" />
    <glyph glyph-name="Y" unicode="Y" 
d="M487 705l-160 -326c-1.33301 -1.33301 -2 -3.33301 -2 -6v-325c0 -13.333 -4.83301 -24.833 -14.5 -34.5s-21.167 -14.5 -34.5 -14.5s-24.833 4.83301 -34.5 14.5s-14.5 21.167 -14.5 34.5v325c0 2.66699 -0.666992 4.66699 -2 6l-160 326
c-3.33301 7.33301 -5 14.666 -5 21.999c0 14 4.83301 25.667 14.5 35s21.5 14 35.5 14c20 0 34.667 -9 44 -27l120 -244c0 -1.33301 0.666992 -2 2 -2s2 0.666992 2 2l120 244c9.33301 18 24 27 44 27c14 0 25.833 -4.66699 35.5 -14s14.5 -21 14.5 -35
c0 -7.33301 -1.66699 -14.666 -5 -21.999z" />
    <glyph glyph-name="Z" unicode="Z" 
d="M492 48c0 -13.333 -4.83301 -24.834 -14.5 -34.501s-21.5 -14.5 -35.5 -14.5h-332c-14 0 -25.833 4.83301 -35.5 14.5s-14.5 21.167 -14.5 34.5c0 8 1.66699 15.333 5 22l296 603c2 3.33301 1 5 -3 5h-248c-14 0 -25.833 4.83301 -35.5 14.5s-14.5 21.167 -14.5 34.5
s4.83301 24.833 14.5 34.5s21.5 14.5 35.5 14.5h332c14 0 25.833 -4.83301 35.5 -14.5s14.5 -21.167 14.5 -34.5c0 -7.33301 -1.66699 -14.666 -5 -21.999l-296 -603c-2 -3.33301 -1 -5 3 -5h248c14 0 25.833 -4.66699 35.5 -14s14.5 -21 14.5 -35z" />
    <glyph glyph-name="bracketleft" unicode="[" horiz-adv-x="354" 
d="M294 49c0 -14 -4.83301 -25.667 -14.5 -35s-21.5 -14 -35.5 -14h-134c-14 0 -25.833 4.66699 -35.5 14s-14.5 21 -14.5 35v679c0 13.333 4.83301 24.833 14.5 34.5s21.5 14.5 35.5 14.5h134c14 0 25.833 -4.83301 35.5 -14.5s14.5 -21.167 14.5 -34.5
c0 -14 -4.83301 -25.833 -14.5 -35.5s-21.5 -14.5 -35.5 -14.5h-80c-3.33301 0 -5 -1.66699 -5 -5v-569c0 -4 1.66699 -6 5 -6h80c14 0 25.833 -4.83301 35.5 -14.5s14.5 -21.167 14.5 -34.5z" />
    <glyph glyph-name="backslash" unicode="\" horiz-adv-x="525" 
d="M461 69c3.33301 -6.66699 5 -13.333 5 -20c0 -14 -4.83301 -25.667 -14.5 -35s-21.167 -14 -34.5 -14c-21.333 -0 -36.333 9.33301 -45 28l-308 679c-3.33301 6.66699 -5 13.667 -5 21c0 13.333 4.83301 24.833 14.5 34.5s21.167 14.5 34.5 14.5
c21.333 0 36.333 -9.66699 45 -29z" />
    <glyph glyph-name="bracketright" unicode="]" horiz-adv-x="354" 
d="M294 49c0 -14 -4.83301 -25.667 -14.5 -35s-21.5 -14 -35.5 -14h-134c-14 0 -25.833 4.66699 -35.5 14s-14.5 21 -14.5 35c0 13.333 4.83301 24.833 14.5 34.5s21.5 14.5 35.5 14.5h80c3.33301 0 5 2 5 6v569c0 3.33301 -1.66699 5 -5 5h-80
c-14 0 -25.833 4.83301 -35.5 14.5s-14.5 21.5 -14.5 35.5c0 13.333 4.83301 24.833 14.5 34.5s21.5 14.5 35.5 14.5h134c14 0 25.833 -4.83301 35.5 -14.5s14.5 -21.167 14.5 -34.5v-679z" />
    <glyph glyph-name="asciicircum" unicode="^" horiz-adv-x="420" 
d="M350 643c8.66699 -9.33301 12.998 -20.333 12.998 -33c0 -14.667 -5.16699 -26.5 -15.5 -35.5s-21.833 -13.5 -34.5 -13.5c-14.667 0 -26.667 5.66699 -36 17l-63 71c-1.33301 1.33301 -2.66602 2 -3.99902 2s-2.66602 -0.666992 -3.99902 -2l-62 -71
c-10 -11.333 -22.333 -17 -37 -17c-12.667 0 -23.667 4.33301 -33 13c-11.333 9.33301 -17 21.333 -17 36c0 12.667 4.33301 23.667 13 33l103 117c10 11.333 22.333 17 37 17s27 -5.66699 37 -17z" />
    <glyph glyph-name="underscore" unicode="_" horiz-adv-x="469" 
d="M408 49c0 -14 -4.66699 -25.667 -14 -35s-21 -14 -35 -14h-249c-14 0 -25.667 4.66699 -35 14s-14 21 -14 35c0 13.333 4.66699 24.833 14 34.5s21 14.5 35 14.5h249c14 0 25.667 -4.83301 35 -14.5s14 -21.167 14 -34.5z" />
    <glyph glyph-name="grave" unicode="`" horiz-adv-x="267" 
d="M157 804c-14 0 -25.667 4.66797 -35 14.001l-46 47c-10 9.33301 -15 20.666 -15 33.999c0 14 4.83301 25.833 14.5 35.5s21.167 14.5 34.5 14.5c14 0 25.667 -5 35 -15l46 -46c10 -10 15 -21.667 15 -35s-4.83301 -24.833 -14.5 -34.5s-21.167 -14.5 -34.5 -14.5z" />
    <glyph glyph-name="a" unicode="a" horiz-adv-x="502" 
d="M441 188c0 -52 -18.333 -96.334 -55 -133.001s-81 -55 -133 -55h-4c-52 0 -96.333 18.333 -133 55s-55 81 -55 133v29c0 52 18.333 96.5 55 133.5s81 55.5 133 55.5h4c30 0 58.333 -7 85 -21c3.33301 -1.33301 5 -0.333008 5 3v4c0 24.667 -8.83301 45.834 -26.5 63.501
s-38.834 26.5 -63.501 26.5h-4c-24.667 0 -46 -9 -64 -27c-9.33301 -9.33301 -20.666 -14 -33.999 -14c-14 0 -25.833 4.83301 -35.5 14.5s-14.5 21.167 -14.5 34.5c0 14 5 25.667 15 35c36.667 36.667 81 55 133 55h4c52 0 96.333 -18.333 133 -55s55 -81 55 -133v-204z
M343 187.999v29c0 25.333 -8.83301 46.833 -26.5 64.5s-38.834 26.5 -63.501 26.5h-4c-24.667 0 -45.834 -8.83301 -63.501 -26.5s-26.5 -39.167 -26.5 -64.5v-29c0 -24.667 8.83301 -45.834 26.5 -63.501s38.834 -26.5 63.501 -26.5h4c24.667 0 45.834 8.83301 63.501 26.5
s26.5 38.834 26.5 63.501z" />
    <glyph glyph-name="b" unicode="b" horiz-adv-x="502" 
d="M441 188c0 -52 -18.333 -96.333 -55 -133s-81 -55 -133 -55h-4c-52 -0 -96.333 18.333 -133 55s-55 81 -55 133v539c0 13.333 4.66699 24.833 14 34.5s21 14.5 35 14.5c13.333 0 24.833 -4.83301 34.5 -14.5s14.5 -21.167 14.5 -34.5v-164c0 -4 1.66699 -5 5 -3
c26.667 13.333 55 20 85 20h4c52 0 96.333 -18.333 133 -55s55 -81 55 -133v-204zM343 188v204c0 24.667 -8.83301 45.834 -26.5 63.501s-38.834 26.5 -63.501 26.5h-4c-24.667 0 -45.834 -8.83301 -63.501 -26.5s-26.5 -38.834 -26.5 -63.501v-204
c0 -24.667 8.83301 -45.834 26.5 -63.501s38.834 -26.5 63.501 -26.5h4c24.667 0 45.834 8.83301 63.501 26.5s26.5 38.834 26.5 63.501z" />
    <glyph glyph-name="c" unicode="c" horiz-adv-x="485" 
d="M419 96c-16.667 -30.667 -39.833 -54.832 -69.5 -72.499s-61.834 -26.5 -96.501 -26.5h-4c-52 0 -96.5 18.333 -133.5 55s-55.5 81 -55.5 133v209c0 52 18.5 96.5 55.5 133.5s81.5 55.5 133.5 55.5h4c34 0 65.833 -8.83301 95.5 -26.5s52.834 -41.5 69.501 -71.5
c4 -7.33301 6 -15.333 6 -24c0 -13.333 -4.83301 -24.833 -14.5 -34.5s-21.167 -14.5 -34.5 -14.5c-19.333 0 -33.666 8.66699 -42.999 26c-17.333 31.333 -43.666 47 -78.999 47h-4c-24.667 0 -45.834 -8.83301 -63.501 -26.5s-26.5 -39.167 -26.5 -64.5v-209
c0 -24.667 8.83301 -45.834 26.5 -63.501s38.834 -26.5 63.501 -26.5h4c35.333 0 61.666 16 78.999 48c9.33301 17.333 23.666 26 42.999 26c14 0 25.833 -4.83301 35.5 -14.5s14.5 -21.5 14.5 -35.5c0 -8 -2 -15.667 -6 -23z" />
    <glyph glyph-name="d" unicode="d" horiz-adv-x="502" 
d="M441 188c0 -52 -18.333 -96.333 -55 -133s-81 -55 -133 -55h-4c-52 -0 -96.333 18.333 -133 55s-55 81 -55 133v204c0 52 18.333 96.333 55 133s81 55 133 55h4c30 0 58.333 -6.66699 85 -20c3.33301 -2 5 -1 5 3v164c0 13.333 4.83301 24.833 14.5 34.5
s21.167 14.5 34.5 14.5c14 0 25.667 -4.83301 35 -14.5s14 -21.167 14 -34.5v-539zM343 188v204c0 24.667 -8.83301 45.834 -26.5 63.501s-38.834 26.5 -63.501 26.5h-4c-24.667 0 -45.834 -8.83301 -63.501 -26.5s-26.5 -38.834 -26.5 -63.501v-204
c0 -24.667 8.83301 -45.834 26.5 -63.501s38.834 -26.5 63.501 -26.5h4c24.667 0 45.834 8.83301 63.501 26.5s26.5 38.834 26.5 63.501z" />
    <glyph glyph-name="e" unicode="e" horiz-adv-x="502" 
d="M441 290c0 -14 -4.66504 -25.832 -13.998 -35.499s-21 -14.5 -35 -14.5h-227c-4 0 -6 -1.66699 -6 -5v-50c0 -24.667 8.83301 -45.834 26.5 -63.501s38.834 -26.5 63.501 -26.5h4c35.333 0 61.666 15.667 78.999 47c9.33301 17.333 23.666 26 42.999 26
c14 0 25.667 -4.83301 35 -14.5s14 -21.167 14 -34.5c0 -8.66699 -2 -16.667 -6 -24c-16 -30 -38.833 -53.833 -68.5 -71.5s-61.834 -26.5 -96.501 -26.5h-4c-52 0 -96.333 18.333 -133 55s-55 81 -55 133v209c0 52 18.333 96.5 55 133.5s81 55.5 133 55.5h4
c52 0 96.333 -18.5 133 -55.5s55 -81.5 55 -133.5v-104zM343.002 344.001l0.00195312 50c0 25.333 -8.83301 46.833 -26.5 64.5s-38.834 26.5 -63.501 26.5h-4c-24.667 0 -45.834 -8.83301 -63.501 -26.5s-26.5 -39.167 -26.5 -64.5v-50c0 -3.33301 2 -5 6 -5h172
c4 0 6 1.66699 6 5z" />
    <glyph glyph-name="f" unicode="f" horiz-adv-x="386" 
d="M325 531c0 -13.333 -4.83398 -24.834 -14.501 -34.501s-21.167 -14.5 -34.5 -14.5h-111c-3.33301 0 -5 -2 -5 -6v-427c0 -14 -4.83301 -25.667 -14.5 -35s-21.5 -14 -35.5 -14c-13.333 0 -24.833 4.66699 -34.5 14s-14.5 21 -14.5 35v539c0 52 18.5 96.5 55.5 133.5
s81.5 55.5 133.5 55.5h26c13.333 0 24.833 -4.83301 34.5 -14.5s14.5 -21.167 14.5 -34.5c0 -14 -4.83301 -25.833 -14.5 -35.5s-21.167 -14.5 -34.5 -14.5h-26c-25.333 0 -46.666 -8.66699 -63.999 -26s-26 -38.666 -26 -63.999v-2c0 -4 1.66699 -6 5 -6h111
c13.333 0 24.833 -4.83301 34.5 -14.5s14.5 -21.167 14.5 -34.5z" />
    <glyph glyph-name="g" unicode="g" horiz-adv-x="502" 
d="M441 -9c0 -52 -18.332 -96.501 -54.999 -133.501s-81 -55.5 -133 -55.5h-4c-34.667 0 -66.834 9 -96.501 27s-52.834 42 -69.501 72c-4 7.33301 -6 15.333 -6 24c0 13.333 4.83301 24.833 14.5 34.5s21.167 14.5 34.5 14.5c20 0 34.667 -8.66699 44 -26
c16.667 -31.333 43 -47 79 -47h4c24.667 0 45.834 8.83301 63.501 26.5s26.5 38.834 26.5 63.501v26c0 3.33301 -1.66699 4.33301 -5 3c-26.667 -14 -55 -21 -85 -21h-4c-52 0 -96.333 18.5 -133 55.5s-55 81.5 -55 133.5v203c0 52 18.333 96.5 55 133.5s81 55.5 133 55.5h4
c52 0 96.333 -18.5 133 -55.5s55 -81.5 55 -133.5v-400zM343.001 187.999v203c0 25.333 -8.83301 46.833 -26.5 64.5s-38.834 26.5 -63.501 26.5h-4c-24.667 0 -45.834 -8.83301 -63.501 -26.5s-26.5 -39.167 -26.5 -64.5v-203c0 -24.667 8.83301 -45.834 26.5 -63.501
s38.834 -26.5 63.501 -26.5h4c24.667 0 45.834 8.83301 63.501 26.5s26.5 38.834 26.5 63.501z" />
    <glyph glyph-name="h" unicode="h" horiz-adv-x="502" 
d="M441 49c0 -14 -4.66504 -25.667 -13.998 -35s-21 -14 -35 -14c-13.333 0 -24.833 4.66699 -34.5 14s-14.5 21 -14.5 35v343c0 24.667 -8.83301 45.834 -26.5 63.501s-38.834 26.5 -63.501 26.5h-4c-24.667 0 -45.834 -8.83301 -63.501 -26.5s-26.5 -38.834 -26.5 -63.501
v-343c0 -14 -4.83301 -25.667 -14.5 -35s-21.167 -14 -34.5 -14c-14 0 -25.667 4.66699 -35 14s-14 21 -14 35v678c0 13.333 4.66699 24.833 14 34.5s21 14.5 35 14.5c13.333 0 24.833 -4.83301 34.5 -14.5s14.5 -21.167 14.5 -34.5v-164c0 -4 1.66699 -5 5 -3
c26.667 13.333 55 20 85 20h4c52 0 96.333 -18.333 133 -55s55 -81 55 -133v-343z" />
    <glyph glyph-name="i" unicode="i" horiz-adv-x="230" 
d="M174 718c0 -16 -5.83301 -29.833 -17.5 -41.5s-25.5 -17.5 -41.5 -17.5s-29.833 5.83301 -41.5 17.5s-17.5 25.5 -17.5 41.5c0 16.667 5.83301 30.667 17.5 42s25.5 17 41.5 17s29.833 -5.66699 41.5 -17s17.5 -25.333 17.5 -42zM164 49
c0 -14 -4.83301 -25.667 -14.5 -35s-21.167 -14 -34.5 -14s-24.833 4.66699 -34.5 14s-14.5 21 -14.5 35v482c0 13.333 4.83301 24.833 14.5 34.5s21.167 14.5 34.5 14.5s24.833 -4.83301 34.5 -14.5s14.5 -21.167 14.5 -34.5v-482z" />
    <glyph glyph-name="j" unicode="j" horiz-adv-x="319" 
d="M265 718c0 -16.667 -5.83301 -30.667 -17.5 -42s-25.5 -17 -41.5 -17c-16.667 0 -30.667 5.66699 -42 17s-17 25.333 -17 42c0 16 5.66699 29.833 17 41.5s25.333 17.5 42 17.5c16 0 29.833 -5.83301 41.5 -17.5s17.5 -25.5 17.5 -41.5zM254 -9
c0 -70.667 -31.333 -125.333 -94 -164l-29 -18c-8 -4.66699 -17 -7 -27 -7c-18.667 0 -32.667 7.66699 -42 23c-5.33301 8 -8 16.667 -8 26c0 18 7.66699 31.667 23 41l33 20c30.667 18.667 46 45 46 79v540c0 13.333 4.83301 24.833 14.5 34.5s21.167 14.5 34.5 14.5
c14 0 25.667 -4.83301 35 -14.5s14 -21.167 14 -34.5v-540z" />
    <glyph glyph-name="k" unicode="k" horiz-adv-x="492" 
d="M423 74c5.33301 -7.33301 8 -15.667 8 -25c0 -14 -4.83301 -25.833 -14.5 -35.5s-21.167 -14.5 -34.5 -14.5c-18.667 0 -32.667 8 -42 24l-124 202c-2 2.66699 -4.33301 2.66699 -7 0l-47 -64c-1.33301 -2.66699 -2 -5.66699 -2 -9v-103
c0 -14 -4.83301 -25.667 -14.5 -35s-21.5 -14 -35.5 -14c-13.333 0 -24.833 4.66699 -34.5 14s-14.5 21 -14.5 35v679c0 13.333 4.83301 24.833 14.5 34.5s21.167 14.5 34.5 14.5c14 0 25.833 -4.83301 35.5 -14.5s14.5 -21.167 14.5 -34.5v-398c0 -4.66699 1.33301 -5 4 -1
l169 231c10 13.333 23.333 20 40 20c13.333 0 24.833 -4.83301 34.5 -14.5s14.5 -21.167 14.5 -34.5c0 -10.667 -3.33301 -20.334 -10 -29.001l-133 -182c-2.66699 -3.33301 -3 -6.66602 -1 -9.99902z" />
    <glyph glyph-name="l" unicode="l" horiz-adv-x="295" 
d="M186 0c-10 0 -19 2.66699 -27 8c-66 42.667 -99 103.667 -99 183v536c0 13.333 4.83301 24.833 14.5 34.5s21.167 14.5 34.5 14.5c14 0 25.667 -4.83301 35 -14.5s14 -21.167 14 -34.5v-536c0 -43.333 18.333 -77 55 -101c14.667 -10 22 -23.667 22 -41
c0 -13.333 -4.83301 -24.833 -14.5 -34.5s-21.167 -14.5 -34.5 -14.5z" />
    <glyph glyph-name="m" unicode="m" horiz-adv-x="688" 
d="M627 49c0 -14 -4.66504 -25.667 -13.998 -35s-21 -14 -35 -14c-13.333 0 -24.833 4.66699 -34.5 14s-14.5 21 -14.5 35v365c0 18.667 -6.66699 34.667 -20 48s-29.333 20 -48 20s-34.667 -6.66699 -48 -20s-20 -29.333 -20 -48v-365c0 -14 -4.83301 -25.667 -14.5 -35
s-21.167 -14 -34.5 -14s-24.833 4.66699 -34.5 14s-14.5 21 -14.5 35v365c0 18.667 -6.66699 34.667 -20 48s-29.333 20 -48 20s-34.667 -6.66699 -48 -20s-20 -29.333 -20 -48v-365c0 -14 -4.83301 -25.667 -14.5 -35s-21.167 -14 -34.5 -14c-14 0 -25.667 4.66699 -35 14
s-14 21 -14 35v365c0 46 16.167 85.167 48.5 117.5s71.5 48.5 117.5 48.5c43.333 0 81 -14.667 113 -44c1.33301 -1.33301 2.66602 -2 3.99902 -2s2.66602 0.666992 3.99902 2c32 29.333 69.667 44 113 44c46 0 85.167 -16.167 117.5 -48.5s48.5 -71.5 48.5 -117.5v-365z
" />
    <glyph glyph-name="n" unicode="n" horiz-adv-x="502" 
d="M442 52c0 -14 -4.83105 -25.833 -14.498 -35.5s-21.5 -14.5 -35.5 -14.5c-13.333 0 -24.833 4.83301 -34.5 14.5s-14.5 21.5 -14.5 35.5v342c0 25.333 -8.83301 46.833 -26.5 64.5s-38.834 26.5 -63.501 26.5h-4c-24.667 0 -45.834 -8.83301 -63.501 -26.5
s-26.5 -39.167 -26.5 -64.5v-342c0 -14 -4.83301 -25.833 -14.5 -35.5s-21.167 -14.5 -34.5 -14.5s-24.833 4.83301 -34.5 14.5s-14.5 21.5 -14.5 35.5v342c0 52 18.333 96.5 55 133.5s81 55.5 133 55.5h4c52 0 96.5 -18.5 133.5 -55.5s55.5 -81.5 55.5 -133.5v-342z" />
    <glyph glyph-name="o" unicode="o" horiz-adv-x="502" 
d="M441 185c0 -52 -18.333 -96.333 -55 -133s-81 -55 -133 -55h-4c-52 0 -96.333 18.333 -133 55s-55 81 -55 133v209c0 52 18.333 96.5 55 133.5s81 55.5 133 55.5h4c52 0 96.333 -18.5 133 -55.5s55 -81.5 55 -133.5v-209zM343 185v209
c0 25.333 -8.83301 46.833 -26.5 64.5s-38.834 26.5 -63.501 26.5h-4c-24.667 0 -45.834 -8.83301 -63.501 -26.5s-26.5 -39.167 -26.5 -64.5v-209c0 -24.667 8.83301 -45.834 26.5 -63.501s38.834 -26.5 63.501 -26.5h4c24.667 0 45.834 8.83301 63.501 26.5
s26.5 38.834 26.5 63.501z" />
    <glyph glyph-name="p" unicode="p" horiz-adv-x="502" 
d="M441 193c0 -52 -18.333 -96.5 -55 -133.5s-81 -55.5 -133 -55.5h-4c-30 0 -58.333 7 -85 21c-3.33301 1.33301 -5 0.333008 -5 -3v-165c0 -13.333 -4.83301 -24.833 -14.5 -34.5s-21.167 -14.5 -34.5 -14.5c-14 0 -25.667 4.83301 -35 14.5s-14 21.167 -14 34.5v539
c0 52 18.333 96.5 55 133.5s81 55.5 133 55.5h4c52 0 96.333 -18.5 133 -55.5s55 -81.5 55 -133.5v-203zM343 193v203c0 24.667 -8.83301 45.834 -26.5 63.501s-38.834 26.5 -63.501 26.5h-4c-24.667 0 -45.834 -8.83301 -63.501 -26.5s-26.5 -38.834 -26.5 -63.501v-203
c0 -25.333 8.83301 -46.833 26.5 -64.5s38.834 -26.5 63.501 -26.5h4c24.667 0 45.834 8.83301 63.501 26.5s26.5 39.167 26.5 64.5z" />
    <glyph glyph-name="q" unicode="q" horiz-adv-x="502" 
d="M441 -143c0 -13.333 -4.66699 -24.833 -14 -34.5s-21 -14.5 -35 -14.5c-13.333 0 -24.833 4.83301 -34.5 14.5s-14.5 21.167 -14.5 34.5v165c0 3.33301 -1.66699 4.33301 -5 3c-26.667 -14 -55 -21 -85 -21h-4c-52 0 -96.333 18.5 -133 55.5s-55 81.5 -55 133.5v203
c0 52 18.333 96.5 55 133.5s81 55.5 133 55.5h4c52 0 96.333 -18.5 133 -55.5s55 -81.5 55 -133.5v-539zM343 193v203c0 24.667 -8.83301 45.834 -26.5 63.501s-38.834 26.5 -63.501 26.5h-4c-24.667 0 -45.834 -8.83301 -63.501 -26.5s-26.5 -38.834 -26.5 -63.501v-203
c0 -25.333 8.83301 -46.833 26.5 -64.5s38.834 -26.5 63.501 -26.5h4c24.667 0 45.834 8.83301 63.501 26.5s26.5 39.167 26.5 64.5z" />
    <glyph glyph-name="r" unicode="r" horiz-adv-x="449" 
d="M339 466c-5.33301 0 -10.667 0.999023 -16 2.99902l-17 6c-12 4.66699 -24.667 7 -38 7c-22.667 0 -43.667 -7 -63 -21c-30.667 -22 -46 -52 -46 -90v-322c0 -14 -4.83301 -25.667 -14.5 -35s-21.5 -14 -35.5 -14c-13.333 0 -24.833 4.66699 -34.5 14s-14.5 21 -14.5 35
v322c0 72.667 29.667 129.667 89 171c36 25.333 76 38 120 38c24 0 47.333 -4.33301 70 -13l17 -6c22 -7.33301 33 -22.666 33 -45.999c0 -13.333 -4.83301 -24.833 -14.5 -34.5s-21.5 -14.5 -35.5 -14.5z" />
    <glyph glyph-name="s" unicode="s" horiz-adv-x="444" 
d="M377 115c-9.33301 -35.333 -28.332 -63.833 -56.999 -85.5s-61 -32.5 -97 -32.5h-3c-61.333 0 -111 24.667 -149 74c-6.66699 8.66699 -10 18.667 -10 30c0 16 6.33301 29 19 39c8.66699 6.66699 18.667 10 30 10c16 0 29 -6.33301 39 -19c18 -23.333 41.667 -35 71 -35
h3c18 0 32.833 6.16699 44.5 18.5s17.5 27.5 17.5 45.5c0 23.333 -10.333 41 -31 53l-115 70c-52.667 31.333 -79 77 -79 137c0 15.333 2 30.333 6 45c10 35.333 29.167 63.833 57.5 85.5s60.833 32.5 97.5 32.5h3c62 0 112 -25 150 -75c6.66699 -9.33301 10 -19.333 10 -30
c0 -16.667 -6.66699 -29.667 -20 -39c-8.66699 -6.66699 -18.334 -10 -29.001 -10c-16.667 0 -30 6.33301 -40 19c-18 24 -41.667 36 -71 36h-3c-18 0 -32.833 -6.16699 -44.5 -18.5s-17.5 -27.5 -17.5 -45.5c0 -23.333 10 -41 30 -53l116 -70c52 -31.333 78 -77 78 -137
c0 -15.333 -2 -30.333 -6 -45z" />
    <glyph glyph-name="t" unicode="t" horiz-adv-x="385" 
d="M324 49c0 -14 -4.83398 -25.666 -14.501 -34.999s-21.167 -14 -34.5 -14h-26c-52 0 -96.333 18.333 -133 55s-55 81 -55 133v540c0 13.333 4.83301 24.833 14.5 34.5s21.167 14.5 34.5 14.5s24.833 -4.83301 34.5 -14.5s14.5 -21.167 14.5 -34.5v-142c0 -4 2 -6 6 -6h110
c13.333 0 24.833 -4.83301 34.5 -14.5s14.5 -21.167 14.5 -34.5s-4.83301 -24.833 -14.5 -34.5s-21.167 -14.5 -34.5 -14.5h-110c-4 0 -6 -2 -6 -6v-288c0 -24.667 8.83301 -45.834 26.5 -63.501s38.834 -26.5 63.501 -26.5h26c13.333 0 24.833 -4.83301 34.5 -14.5
s14.5 -21.167 14.5 -34.5z" />
    <glyph glyph-name="u" unicode="u" horiz-adv-x="502" 
d="M441 185c0 -52 -18.335 -96.333 -55.002 -133s-81 -55 -133 -55h-4c-52 0 -96.333 18.333 -133 55s-55 81 -55 133v346c0 13.333 4.66699 24.833 14 34.5s21 14.5 35 14.5c13.333 0 24.833 -4.83301 34.5 -14.5s14.5 -21.167 14.5 -34.5v-346
c0 -24.667 8.83301 -45.834 26.5 -63.501s38.834 -26.5 63.501 -26.5h4c24.667 0 45.834 8.83301 63.501 26.5s26.5 38.834 26.5 63.501v346c0 13.333 4.83301 24.833 14.5 34.5s21.167 14.5 34.5 14.5c14 0 25.667 -4.83301 35 -14.5s14 -21.167 14 -34.5v-346z" />
    <glyph glyph-name="v" unicode="v" horiz-adv-x="531" 
d="M469 516l-157.001 -482c-7.33301 -22.667 -22.666 -34 -45.999 -34c-24 -0 -39.667 11.333 -47 34l-157 482c-1.33301 4.66699 -2 9.66699 -2 15c0 13.333 4.83301 24.833 14.5 34.5s21.167 14.5 34.5 14.5c24 0 39.667 -11.333 47 -34l107 -331
c1.33301 -4.66699 3 -4.66699 5 0l107 331c7.33301 22.667 23 34 47 34c13.333 0 24.833 -4.83301 34.5 -14.5s14.5 -21.167 14.5 -34.5c0 -5.33301 -0.666992 -10.333 -2 -15z" />
    <glyph glyph-name="w" unicode="w" horiz-adv-x="727" 
d="M665 516l-127.002 -482c-6 -24.667 -21.667 -37 -47 -37s-41.333 12.333 -48 37l-77 293c-0.666992 1.33301 -1.66699 2 -3 2c-0.666992 0 -1.33398 -0.666992 -2.00098 -2l-77 -293c-6.66699 -24.667 -22.667 -37 -48 -37s-41 12.333 -47 37l-127 482
c-1.33301 4 -2 8.33301 -2 13c0 13.333 4.83301 24.833 14.5 34.5s21.167 14.5 34.5 14.5c25.333 0 41.333 -12.333 48 -37l77 -293c0.666992 -1.33301 1.33398 -2 2.00098 -2c1.33301 0 2.33301 0.666992 3 2l77 293c6.66699 24.667 22.334 37 47.001 37
c25.333 0 41.333 -12.333 48 -37l77 -293c0.666992 -1.33301 1.66699 -2 3 -2c0.666992 0 1.33398 0.666992 2.00098 2l77 293c6.66699 24.667 22.667 37 48 37c13.333 0 24.833 -4.83301 34.5 -14.5s14.5 -21.167 14.5 -34.5c0 -4.66699 -0.666992 -9 -2 -13z" />
    <glyph glyph-name="x" unicode="x" horiz-adv-x="498" 
d="M432 506l-123 -211.001c-2 -3.33301 -2 -6.66602 0 -9.99902l123 -211c4.66699 -8 7 -16.333 7 -25c0 -14 -4.83301 -25.667 -14.5 -35s-21.167 -14 -34.5 -14c-19.333 0 -33.666 8 -42.999 24l-95 163c-2 3.33301 -4 3.33301 -6 0l-95 -163
c-9.33301 -16 -23.666 -24 -42.999 -24c-13.333 0 -24.833 4.66699 -34.5 14s-14.5 21 -14.5 35c0 8.66699 2.33301 17 7 25l123 211c1.33301 1.33301 2 3 2 5c0 1.33301 -0.666992 3 -2 5l-123 211c-4.66699 8 -7 16.333 -7 25c0 13.333 4.83301 24.833 14.5 34.5
s21.167 14.5 34.5 14.5c19.333 0 33.666 -8 42.999 -24l95 -164c2 -2.66699 4 -2.66699 6 0l95 164c9.33301 16 23.666 24 42.999 24c13.333 0 24.833 -4.83301 34.5 -14.5s14.5 -21.167 14.5 -34.5c0 -8.66699 -2.33301 -17 -7 -25z" />
    <glyph glyph-name="y" unicode="y" horiz-adv-x="501" 
d="M439 517l-171.003 -584.001c-9.33301 -31.333 -28 -60.333 -56 -87c-31.333 -29.333 -62.333 -44 -93 -44c-14 0 -25.667 4.83301 -35 14.5s-14 21.167 -14 34.5c0 26.667 12.667 42.667 38 48c34 8 56 28.667 66 62l24 83c0.666992 2.66699 0.666992 5.33398 0 8.00098
l-136 465c-1.33301 4.66699 -2 9.33398 -2 14.001c0 13.333 4.83301 24.833 14.5 34.5s21.167 14.5 34.5 14.5c24.667 0 40.334 -11.667 47.001 -35l92 -314c0.666992 -1.33301 1.66699 -2 3 -2c0.666992 0 1.33398 0.666992 2.00098 2l92 314
c6.66699 23.333 22.334 35 47.001 35c13.333 0 24.833 -4.83301 34.5 -14.5s14.5 -21.167 14.5 -34.5c0 -4.66699 -0.666992 -9.33398 -2 -14.001z" />
    <glyph glyph-name="z" unicode="z" horiz-adv-x="502" 
d="M441 49c0 -14 -4.66699 -25.667 -14 -35s-21 -14 -35 -14h-282c-14 -0 -25.667 4.83301 -35 14.5s-14 21.167 -14 34.5c0 8.66699 2 17 6 25l237 403c1.33301 3.33301 0.333008 5 -3 5h-191c-14 0 -25.667 4.83301 -35 14.5s-14 21.167 -14 34.5s4.66699 24.833 14 34.5
s21 14.5 35 14.5h282c14 0 25.667 -4.83301 35 -14.5s14 -21.167 14 -34.5c0 -8.66699 -2 -17 -6 -25l-237 -403c-1.33301 -3.33301 -0.333008 -5 3 -5h191c14 0 25.667 -4.83301 35 -14.5s14 -21.167 14 -34.5z" />
    <glyph glyph-name="braceleft" unicode="{" horiz-adv-x="478" 
d="M417 49c0 -14 -4.83301 -25.667 -14.5 -35s-21.167 -14 -34.5 -14c-52 -0 -96.5 18.333 -133.5 55s-55.5 81 -55.5 133v145c0 4 -1.66699 6 -5 6h-64c-13.333 0 -24.833 4.83301 -34.5 14.5s-14.5 21.167 -14.5 34.5c0 14 4.83301 25.667 14.5 35s21.167 14 34.5 14h64
c3.33301 0 5 2 5 6v145c0 52 18.5 96.5 55.5 133.5s81.5 55.5 133.5 55.5c13.333 0 24.833 -4.83301 34.5 -14.5s14.5 -21.167 14.5 -34.5c0 -14 -4.83301 -25.833 -14.5 -35.5s-21.167 -14.5 -34.5 -14.5c-24.667 0 -45.834 -8.66699 -63.501 -26
s-26.5 -38.666 -26.5 -63.999v-400c0 -24.667 8.83301 -45.834 26.5 -63.501s38.834 -26.5 63.501 -26.5c13.333 0 24.833 -4.83301 34.5 -14.5s14.5 -21.167 14.5 -34.5z" />
    <glyph glyph-name="bar" unicode="|" horiz-adv-x="220" 
d="M159 49c0 -14 -4.83301 -25.667 -14.5 -35s-21.167 -14 -34.5 -14s-24.833 4.66699 -34.5 14s-14.5 21 -14.5 35v679c0 13.333 4.83301 24.833 14.5 34.5s21.167 14.5 34.5 14.5s24.833 -4.83301 34.5 -14.5s14.5 -21.167 14.5 -34.5v-679z" />
    <glyph glyph-name="braceright" unicode="}" horiz-adv-x="477" 
d="M417 388c0 -13.333 -4.83301 -24.833 -14.5 -34.5s-21.5 -14.5 -35.5 -14.5h-63c-4 0 -6 -2 -6 -6v-145c0 -52 -18.333 -96.333 -55 -133s-81 -55 -133 -55c-14 0 -25.833 4.66699 -35.5 14s-14.5 21 -14.5 35c0 13.333 4.83301 24.833 14.5 34.5s21.5 14.5 35.5 14.5
c24.667 0 45.834 8.83301 63.501 26.5s26.5 38.834 26.5 63.501v400c0 25.333 -8.83301 46.666 -26.5 63.999s-38.834 26 -63.501 26c-14 0 -25.833 4.83301 -35.5 14.5s-14.5 21.5 -14.5 35.5c0 13.333 4.83301 24.833 14.5 34.5s21.5 14.5 35.5 14.5
c52 0 96.333 -18.5 133 -55.5s55 -81.5 55 -133.5v-145c0 -4 2 -6 6 -6h63c14 0 25.833 -4.66699 35.5 -14s14.5 -21 14.5 -35z" />
    <glyph glyph-name="asciitilde" unicode="~" horiz-adv-x="534" 
d="M469 344l-14 -24c-24.667 -43.333 -62 -65 -112 -65s-87.333 21.667 -112 65l-14 24c-5.33301 10 -14 15 -26 15s-21 -5 -27 -15l-14 -24c-9.33301 -16.667 -23.333 -25 -42 -25c-13.333 0 -24.833 4.83301 -34.5 14.5s-14.5 21.167 -14.5 34.5c0 8.66699 2 17 6 25
l14 24c24.667 43.333 62 65 112 65s87.333 -21.667 112 -65l14 -24c5.33301 -10.667 14 -16 26 -16s21 5.33301 27 16l13 24c10 16 24.333 24 43 24c13.333 0 24.833 -4.66699 34.5 -14s14.5 -21 14.5 -35c0 -8.66699 -2 -16.667 -6 -24z" />
    <glyph glyph-name="nonbreakingspace" unicode="&#xa0;" horiz-adv-x="300" 
 />
    <glyph glyph-name="exclamdown" unicode="&#xa1;" horiz-adv-x="230" 
d="M174 718c0 -16 -5.83301 -29.833 -17.5 -41.5s-25.5 -17.5 -41.5 -17.5s-29.833 5.83301 -41.5 17.5s-17.5 25.5 -17.5 41.5s5.83301 29.833 17.5 41.5s25.5 17.5 41.5 17.5s29.833 -5.83301 41.5 -17.5s17.5 -25.5 17.5 -41.5zM164 49
c0 -13.333 -4.66699 -24.833 -14 -34.5s-21 -14.5 -35 -14.5c-13.333 -0 -24.833 4.83301 -34.5 14.5s-14.5 21.167 -14.5 34.5v505c0 13.333 4.83301 24.833 14.5 34.5s21.167 14.5 34.5 14.5c14 0 25.667 -4.83301 35 -14.5s14 -21.167 14 -34.5v-505z" />
    <glyph glyph-name="cent" unicode="&#xa2;" horiz-adv-x="485" 
d="M419 95c-29.333 -53.333 -74.333 -85.334 -135 -96.001c-7.33301 -1.33301 -11 -5.66602 -11 -12.999v-64c0 -14 -7 -21 -21 -21s-21 7 -21 21v64c0 7.33301 -3.66699 11.666 -11 12.999c-45.333 6.66699 -83.333 27.667 -114 63s-46 76.333 -46 123v209
c0 46.667 15.333 87.667 46 123s68.667 56.333 114 63c7.33301 1.33301 11 5.66602 11 12.999v64c0 14 7 21 21 21s21 -7 21 -21v-65c0 -7.33301 3.66699 -11.333 11 -12c60.667 -10.667 105.334 -42.667 134.001 -96c4 -7.33301 6 -15 6 -23
c0 -14 -4.83301 -25.833 -14.5 -35.5s-21.167 -14.5 -34.5 -14.5c-19.333 0 -34 9.16699 -44 27.5s-25.667 31.5 -47 39.5c-7.33301 2.66699 -11 0.333984 -11 -6.99902v-363c0 -7.33301 3.66699 -9.66602 11 -6.99902c21.333 7.33301 37.333 21 48 41
c9.33301 17.333 23.666 26 42.999 26c14 0 25.833 -4.83301 35.5 -14.5s14.5 -21.167 14.5 -34.5c0 -8.66699 -2 -16.667 -6 -24zM231 106.999v364.001c0 8 -3.66699 10.667 -11 8c-40.667 -14 -61 -42.333 -61 -85v-209c0 -42.667 20.333 -71 61 -85
c7.33301 -2.66699 11 -0.333984 11 6.99902z" />
    <glyph glyph-name="sterling" unicode="&#xa3;" horiz-adv-x="647" 
d="M587 423c0 -13.333 -4.83105 -24.833 -14.498 -34.5s-21.5 -14.5 -35.5 -14.5c-13.333 0 -24.833 4.83301 -34.5 14.5s-14.5 21.167 -14.5 34.5v164c0 25.333 -8.83301 46.833 -26.5 64.5s-38.834 26.5 -63.501 26.5h-26c-24.667 0 -45.834 -8.83301 -63.501 -26.5
s-26.5 -39.167 -26.5 -64.5v-143c0 -7.33301 3.66699 -11 11 -11h66c13.333 0 24.833 -4.83301 34.5 -14.5s14.5 -21.167 14.5 -34.5c0 -14 -4.83301 -25.833 -14.5 -35.5s-21.167 -14.5 -34.5 -14.5h-66c-7.33301 0 -11 -3.66699 -11 -11v-215
c0 -7.33301 3.66699 -11 11 -11h242c14 0 25.667 -4.83301 35 -14.5s14 -21.167 14 -34.5c0 -14 -4.66699 -25.667 -14 -35s-21 -14 -35 -14h-425c-14 0 -25.833 4.66699 -35.5 14s-14.5 21 -14.5 35c0 13.333 4.83301 24.833 14.5 34.5s21.5 14.5 35.5 14.5h62
c7.33301 0 11 3.66699 11 11v215c0 7.33301 -3.66699 11 -11 11h-62c-14 0 -25.833 4.83301 -35.5 14.5s-14.5 21.5 -14.5 35.5c0 13.333 4.83301 24.833 14.5 34.5s21.5 14.5 35.5 14.5h62c7.33301 0 11 3.66699 11 11v143c0 52 18.5 96.5 55.5 133.5s81.5 55.5 133.5 55.5
h26c52 0 96.5 -18.5 133.5 -55.5s55.5 -81.5 55.5 -133.5v-164z" />
    <glyph glyph-name="yen" unicode="&#xa5;" 
d="M492 241c0 -13.333 -4.83301 -24.833 -14.5 -34.5s-21.5 -14.5 -35.5 -14.5h-111c-4 0 -6 -1.66699 -6 -5v-138c0 -14 -4.83301 -25.667 -14.5 -35s-21.167 -14 -34.5 -14s-24.833 4.66699 -34.5 14s-14.5 21 -14.5 35v138c0 3.33301 -2 5 -6 5h-111
c-14 0 -25.833 4.83301 -35.5 14.5s-14.5 21.167 -14.5 34.5c0 14 4.83301 25.667 14.5 35s21.5 14 35.5 14h111c4 0 6 2 6 6v51c0 3.33301 -2 5 -6 5h-111c-14 0 -25.833 4.83301 -35.5 14.5s-14.5 21.5 -14.5 35.5c0 13.333 4.83301 24.833 14.5 34.5s21.5 14.5 35.5 14.5
h75c4 0 5 1.66699 3 5l-123 250c-3.33301 6.66699 -5 14 -5 22c0 13.333 4.83301 24.833 14.5 34.5s21.5 14.5 35.5 14.5c20 0 34.667 -9.33301 44 -28l120 -244c0 -0.666992 0.666992 -1 2 -1s2 0.333008 2 1l120 244c9.33301 18.667 24 28 44 28
c14 0 25.833 -4.83301 35.5 -14.5s14.5 -21.167 14.5 -34.5c0 -8 -1.66699 -15.333 -5 -22l-123 -250c-2 -3.33301 -1 -5 3 -5h75c14 0 25.833 -4.83301 35.5 -14.5s14.5 -21.167 14.5 -34.5c0 -14 -4.83301 -25.833 -14.5 -35.5s-21.5 -14.5 -35.5 -14.5h-111
c-4 0 -6 -1.66699 -6 -5v-51c0 -4 2 -6 6 -6h111c14 0 25.833 -4.66699 35.5 -14s14.5 -21 14.5 -35z" />
    <glyph glyph-name="brokenbar" unicode="&#xa6;" horiz-adv-x="219" 
d="M159 457c0 -13.333 -4.83301 -24.833 -14.5 -34.5s-21.167 -14.5 -34.5 -14.5c-14 0 -25.833 4.83301 -35.5 14.5s-14.5 21.167 -14.5 34.5v270c0 13.333 4.83301 24.833 14.5 34.5s21.5 14.5 35.5 14.5c13.333 0 24.833 -4.83301 34.5 -14.5s14.5 -21.167 14.5 -34.5
v-270zM159 48c0 -13.333 -4.83301 -24.833 -14.5 -34.5s-21.167 -14.5 -34.5 -14.5c-14 0 -25.833 4.83301 -35.5 14.5s-14.5 21.167 -14.5 34.5v270c0 13.333 4.83301 24.833 14.5 34.5s21.5 14.5 35.5 14.5c13.333 0 24.833 -4.83301 34.5 -14.5s14.5 -21.167 14.5 -34.5
v-270z" />
    <glyph glyph-name="section" unicode="&#xa7;" horiz-adv-x="444" 
d="M380 386c5.33301 -26 4.33301 -51.999 -3 -77.999c-9.33301 -33.333 -27.666 -61 -54.999 -83c-5.33301 -4.66699 -5.33301 -9 0 -13c40.667 -32 61 -74 61 -126c0 -14.667 -2 -29.334 -6 -44.001c-9.33301 -35.333 -28.333 -63.833 -57 -85.5s-61 -32.5 -97 -32.5h-3
c-61.333 0 -111 24.333 -149 73c-6.66699 9.33301 -10 19.333 -10 30c0 16.667 6.33301 29.667 19 39c8.66699 6.66699 18.667 10 30 10c16 0 29 -6.33301 39 -19c18 -23.333 41.667 -35 71 -35h3c18 0 32.833 6.16699 44.5 18.5s17.5 27.5 17.5 45.5
c0 23.333 -10.333 41 -31 53l-116 70c-40 26 -64.667 60.333 -74 103c-6 26 -5.33301 52.333 2 79c10 34 28.667 61.667 56 83c5.33301 4.66699 5.33301 9.33398 0 14.001c-41.333 32 -62 73.667 -62 125c0 15.333 2 30.333 6 45c10 35.333 29.167 63.833 57.5 85.5
s60.833 32.5 97.5 32.5h3c62 0 112 -25 150 -75c6.66699 -8.66699 10 -18.667 10 -30c0 -16 -6.66699 -29 -20 -39c-8.66699 -6.66699 -18.334 -10 -29.001 -10c-16.667 0 -30 6.33301 -40 19c-18 24 -41.667 36 -71 36h-3c-18 0 -32.833 -6.16699 -44.5 -18.5
s-17.5 -27.5 -17.5 -45.5c0 -23.333 10 -41 30 -53l116 -70c40.667 -26.667 65.667 -61.334 75 -104.001zM284 348.001c0 17.333 -6 32.166 -18 44.499s-26.667 18.5 -44 18.5s-32 -6.16699 -44 -18.5s-18 -27.166 -18 -44.499s6 -32 18 -44s26.667 -18 44 -18s32 6 44 18
s18 26.667 18 44z" />
    <glyph glyph-name="dieresis" unicode="&#xa8;" horiz-adv-x="441" 
d="M350 718c0 -16.667 -8.33301 -25 -25 -25c-16 0 -24 8.33301 -24 25v24c0 4 -2 5.66699 -6 5h-4c-16.667 0 -30.667 5.83301 -42 17.5s-17 25.5 -17 41.5c0 16.667 5.66699 30.667 17 42s25.333 17 42 17c16 0 29.833 -5.66699 41.5 -17s17.5 -25.333 17.5 -42v-88z
M209 718c0 -16.667 -8 -25 -24 -25c-16.667 0 -25 8.33301 -25 25v24c0 4 -1.66699 5.66699 -5 5h-5c-16 0 -29.833 5.83301 -41.5 17.5s-17.5 25.5 -17.5 41.5c0 16.667 5.83301 30.667 17.5 42s25.5 17 41.5 17c16.667 0 30.667 -5.66699 42 -17s17 -25.333 17 -42v-88z
" />
    <glyph glyph-name="copyright" unicode="&#xa9;" horiz-adv-x="899" 
d="M838 388c0 -106.667 -38 -198 -114 -274s-167.333 -114 -274 -114c-107.333 0 -199 38 -275 114s-114 167.333 -114 274c0 107.333 38 199 114 275s167.667 114 275 114c106.667 0 198 -38 274 -114s114 -167.667 114 -275zM740 388c0 80 -28.333 148.333 -85 205
s-125 85 -205 85c-80.667 0 -149.334 -28.333 -206.001 -85s-85 -125 -85 -205s28.333 -148.333 85 -205s125.334 -85 206.001 -85c80 0 148.333 28.333 205 85s85 125 85 205zM605 233c-43.333 -42.667 -95 -64.002 -155 -64.002c-60.667 0 -112.5 21.333 -155.5 64
s-64.5 94.334 -64.5 155.001s21.333 112.5 64 155.5s94.334 64.5 155.001 64.5c61.333 0 113.333 -21.667 156 -65c9.33301 -9.33301 14 -20.666 14 -33.999c0 -14 -4.83301 -25.667 -14.5 -35s-21.167 -14 -34.5 -14s-25 4.66699 -35 14c-23.333 23.333 -52 35 -86 35
c-33.333 0 -61.833 -11.833 -85.5 -35.5s-35.5 -52.167 -35.5 -85.5s11.833 -61.833 35.5 -85.5s52.5 -35.5 86.5 -35.5c33.333 0 61.666 12 84.999 36c10 9.33301 21.667 14 35 14s24.833 -4.83301 34.5 -14.5s14.5 -21.167 14.5 -34.5c0 -14 -4.66699 -25.667 -14 -35z
" />
    <glyph glyph-name="ordfeminine" unicode="&#xaa;" horiz-adv-x="377" 
d="M317 627c0 -35.333 -12.499 -65.334 -37.499 -90.001s-54.833 -37 -89.5 -37h-3c-34.667 0 -64.5 12.333 -89.5 37s-37.5 54.667 -37.5 90v18c0 35.333 12.5 65.333 37.5 90s54.833 37 89.5 37h3c12.667 0 25 -2 37 -6c2.66699 -0.666992 4.66699 0 6 2
s1.66602 4 0.999023 6c-8.66699 19.333 -23.334 29 -44.001 29h-3c-11.333 0 -22.166 -4.16699 -32.499 -12.5s-20.166 -12.5 -29.499 -12.5c-10.667 0 -19.834 3.83301 -27.501 11.5s-11.5 16.834 -11.5 27.501s3.66699 20 11 28c25.333 24.667 55.333 37 90 37h3
c34.667 0 64.5 -12.5 89.5 -37.5s37.5 -54.833 37.5 -89.5v-128zM238.001 626.999v18c0 13.333 -4.66699 24.833 -14 34.5s-20.666 14.5 -33.999 14.5h-3c-13.333 0 -24.666 -4.83301 -33.999 -14.5s-14 -21.167 -14 -34.5v-18c0 -13.333 4.66699 -24.833 14 -34.5
s20.666 -14.5 33.999 -14.5h3c13.333 0 24.666 4.83301 33.999 14.5s14 21.167 14 34.5z" />
    <glyph glyph-name="guillemotleft" unicode="&#xab;" horiz-adv-x="539" 
d="M478 48c0 -14 -4.83301 -25.667 -14.5 -35s-21.167 -14 -34.5 -14c-18 0 -32 7.33301 -42 22l-150 228c-5.33301 8.66699 -8 17.667 -8 27c0 10 2.66699 19 8 27l150 229c10 14.667 24 22 42 22c13.333 0 24.833 -4.83301 34.5 -14.5s14.5 -21.167 14.5 -34.5
c0 -10 -2.66699 -19 -8 -27l-130 -197c-2 -3.33301 -2 -6.33301 0 -9l130 -197c5.33301 -8 8 -17 8 -27zM310 48c0 -14 -4.83301 -25.667 -14.5 -35s-21.167 -14 -34.5 -14c-18 0 -31.667 7.33301 -41 22l-151 228c-5.33301 8.66699 -8 17.667 -8 27c0 10 2.66699 19 8 27
l151 229c9.33301 14.667 23 22 41 22c13.333 0 24.833 -4.83301 34.5 -14.5s14.5 -21.167 14.5 -34.5c0 -10 -2.66699 -19 -8 -27l-130 -197c-2 -3.33301 -2 -6.33301 0 -9l130 -197c5.33301 -8 8 -17 8 -27z" />
    <glyph glyph-name="logicalnot" unicode="&#xac;" horiz-adv-x="704" 
d="M644 97c0 -13.333 -4.83301 -24.833 -14.5 -34.5s-21.5 -14.5 -35.5 -14.5c-13.333 0 -24.833 4.83301 -34.5 14.5s-14.5 21.167 -14.5 34.5v130c0 8 -3.66699 12 -11 12h-424c-14 0 -25.833 4.66699 -35.5 14s-14.5 21 -14.5 35c0 13.333 4.83301 24.833 14.5 34.5
s21.5 14.5 35.5 14.5h484c14 0 25.833 -4.83301 35.5 -14.5s14.5 -21.167 14.5 -34.5v-191z" />
    <glyph glyph-name="minus" unicode="&#xad;" horiz-adv-x="469" 
d="M408 290c0 -13.333 -4.66699 -24.833 -14 -34.5s-21 -14.5 -35 -14.5h-249c-14 0 -25.667 4.83301 -35 14.5s-14 21.167 -14 34.5s4.66699 24.833 14 34.5s21 14.5 35 14.5h249c14 0 25.667 -4.83301 35 -14.5s14 -21.167 14 -34.5z" />
    <glyph glyph-name="minus" unicode="&#x2212;" horiz-adv-x="469" 
d="M408 290c0 -13.333 -4.66699 -24.833 -14 -34.5s-21 -14.5 -35 -14.5h-249c-14 0 -25.667 4.83301 -35 14.5s-14 21.167 -14 34.5s4.66699 24.833 14 34.5s21 14.5 35 14.5h249c14 0 25.667 -4.83301 35 -14.5s14 -21.167 14 -34.5z" />
    <glyph glyph-name="registered" unicode="&#xae;" horiz-adv-x="898" 
d="M838 388c0 -106.667 -38 -198 -114 -274s-167.667 -114 -275 -114s-199 38 -275 114s-114 167.333 -114 274c0 107.333 38 199 114 275s167.667 114 275 114s199 -38 275 -114s114 -167.667 114 -275zM739 388c0 80 -28.333 148.333 -85 205s-125 85 -205 85
s-148.333 -28.333 -205 -85s-85 -125 -85 -205s28.333 -148.333 85 -205s125 -85 205 -85s148.333 28.333 205 85s85 125 85 205zM592 457c0 -38.667 -15.9971 -69.335 -47.9971 -92.002c-2.66699 -2.66699 -3.33398 -5.66699 -2.00098 -9l47 -123
c2 -5.33301 3 -10.666 3 -15.999c0 -12.667 -4.33301 -23.167 -13 -31.5s-19 -12.5 -31 -12.5c-20.667 0 -34.667 9.33301 -42 28l-52 137c-1.33301 3.33301 -4 5 -8 5h-16c-3.33301 0 -5 -1.66699 -5 -5v-121c0 -12 -4.33301 -22.333 -13 -31s-19.334 -13 -32.001 -13
c-12 0 -22.333 4.33301 -31 13s-13 19 -13 31v341c0 12 4.33301 22.333 13 31s19 13 31 13h98c31.333 0 58.166 -11.167 80.499 -33.5s33.5 -49.166 33.5 -80.499v-31zM503.003 456.999v31c0 16.667 -8.33301 25 -25 25h-48c-3.33301 0 -5 -1.66699 -5 -5v-71
c0 -3.33301 1.66699 -5 5 -5h48c16.667 0 25 8.33301 25 25z" />
    <glyph glyph-name="macron" unicode="&#xaf;" horiz-adv-x="469" 
d="M408 290c0 -13.333 -4.66699 -24.833 -14 -34.5s-21 -14.5 -35 -14.5h-249c-14 0 -25.667 4.83301 -35 14.5s-14 21.167 -14 34.5s4.66699 24.833 14 34.5s21 14.5 35 14.5h249c14 0 25.667 -4.83301 35 -14.5s14 -21.167 14 -34.5z" />
    <glyph glyph-name="macron" unicode="&#x2c9;" horiz-adv-x="469" 
d="M408 290c0 -13.333 -4.66699 -24.833 -14 -34.5s-21 -14.5 -35 -14.5h-249c-14 0 -25.667 4.83301 -35 14.5s-14 21.167 -14 34.5s4.66699 24.833 14 34.5s21 14.5 35 14.5h249c14 0 25.667 -4.83301 35 -14.5s14 -21.167 14 -34.5z" />
    <glyph glyph-name="degree" unicode="&#xb0;" horiz-adv-x="899" 
d="M838 388c0 -106.667 -38 -198 -114 -274s-167.333 -114 -274 -114c-107.333 0 -199 38 -275 114s-114 167.333 -114 274c0 107.333 38 199 114 275s167.667 114 275 114c106.667 0 198 -38 274 -114s114 -167.667 114 -275zM740 388c0 80 -28.333 148.333 -85 205
s-125 85 -205 85c-80.667 0 -149.334 -28.333 -206.001 -85s-85 -125 -85 -205s28.333 -148.333 85 -205s125.334 -85 206.001 -85c80 0 148.333 28.333 205 85s85 125 85 205z" />
    <glyph glyph-name="plusminus" unicode="&#xb1;" horiz-adv-x="469" 
d="M408 322c0 -13.333 -4.66699 -24.833 -14 -34.5s-21 -14.5 -35 -14.5h-70c-3.33301 0 -5 -2 -5 -6v-70c0 -13.333 -4.83301 -24.833 -14.5 -34.5s-21.5 -14.5 -35.5 -14.5c-13.333 0 -24.833 4.83301 -34.5 14.5s-14.5 21.167 -14.5 34.5v70c0 4 -1.66699 6 -5 6h-70
c-14 0 -25.667 4.83301 -35 14.5s-14 21.167 -14 34.5s4.66699 24.833 14 34.5s21 14.5 35 14.5h70c3.33301 0 5 2 5 6v70c0 13.333 4.83301 24.833 14.5 34.5s21.167 14.5 34.5 14.5c14 0 25.833 -4.83301 35.5 -14.5s14.5 -21.167 14.5 -34.5v-70c0 -4 1.66699 -6 5 -6h70
c14 0 25.667 -4.83301 35 -14.5s14 -21.167 14 -34.5zM408 48c0 -14 -4.66699 -25.667 -14 -35s-21 -14 -35 -14h-249c-14 0 -25.667 4.66699 -35 14s-14 21 -14 35c0 13.333 4.66699 24.833 14 34.5s21 14.5 35 14.5h249c14 0 25.667 -4.83301 35 -14.5
s14 -21.167 14 -34.5z" />
    <glyph glyph-name="twosuperior" unicode="&#xb2;" horiz-adv-x="452" 
d="M391 313c0 -14 -4.83398 -25.668 -14.501 -35.001s-21.167 -14 -34.5 -14h-232c-20.667 0 -35.667 9.33301 -45 28c-8.66699 18.667 -6.33398 36 6.99902 52l209 249c12.667 15.333 15 32 7 50c-10 22.667 -27.333 34 -52 34h-21c-15.333 0 -28.5 -5.5 -39.5 -16.5
s-16.5 -23.667 -16.5 -38s-4.83301 -26.333 -14.5 -36s-21.167 -14.5 -34.5 -14.5s-24.833 4.83301 -34.5 14.5s-14.5 21.167 -14.5 34.5c0 42.667 15 79 45 109s66.333 45 109 45h21c30.667 0 58.834 -8.33301 84.501 -25s44.834 -38.667 57.501 -66
c8 -19.333 12 -39.333 12 -60c0 -35.333 -11.333 -66.666 -34 -93.999l-133 -160c-2 -1.33301 -2.33301 -3 -1 -5c0.666992 -2 2 -3 4 -3h116c13.333 0 24.833 -4.83301 34.5 -14.5s14.5 -21.167 14.5 -34.5z" />
    <glyph glyph-name="threesuperior" unicode="&#xb3;" horiz-adv-x="411" 
d="M353 411c0 -40.667 -14.499 -75.3262 -43.499 -103.993s-63.5 -43 -103.5 -43h-10c-60.667 0 -104.334 27 -131.001 81c-4 7.33301 -6 14.666 -6 21.999c0 14 4.83301 25.833 14.5 35.5s21.167 14.5 34.5 14.5c16.667 0 31.334 -9 44.001 -27s27.334 -27 44.001 -27h10
c13.333 0 24.666 4.66699 33.999 14s14 20.666 14 33.999v11c0 13.333 -4.66699 24.666 -14 33.999s-20.666 14 -33.999 14h-12c-14 0 -25.667 4.83301 -35 14.5s-14 21.167 -14 34.5c0 14 4.66699 25.833 14 35.5s21 14.5 35 14.5h12c13.333 0 24.666 4.66699 33.999 14
s14 20.666 14 33.999v11c0 13.333 -4.66699 24.666 -14 33.999s-20.666 14 -33.999 14h-10c-16.667 0 -31.334 -9.33301 -44.001 -28s-27.334 -28 -44.001 -28c-14 0 -25.833 4.83301 -35.5 14.5s-14.5 21.5 -14.5 35.5c0 7.33301 1.66699 14.333 5 21
c12 25.333 30.167 45.5 54.5 60.5s50.5 22.5 78.5 22.5h10c40 0 74.5 -14.333 103.5 -43s43.5 -63 43.5 -103v-11c0 -32.667 -10.333 -62.334 -31 -89.001c-4 -6 -4 -11.667 0 -17c20.667 -26.667 31 -56.334 31 -89.001v-11z" />
    <glyph glyph-name="acute" unicode="&#xb4;" horiz-adv-x="265" 
d="M190 865l-46 -47.001c-9.33301 -9.33301 -21 -14 -35 -14c-13.333 0 -24.833 4.83301 -34.5 14.5s-14.5 21.167 -14.5 34.5s5 25 15 35l46 46c9.33301 10 21 15 35 15c13.333 0 24.833 -4.83301 34.5 -14.5s14.5 -21.5 14.5 -35.5c0 -13.333 -5 -24.666 -15 -33.999z" />
    <glyph glyph-name="mu" unicode="&#xb5;" horiz-adv-x="502" 
d="M441 185c0 -52 -18.335 -96.333 -55.002 -133s-81 -55 -133 -55h-4c-28 0 -54.667 6 -80 18c-6.66699 3.33301 -10 1.33301 -10 -6v-72c0 -13.333 -4.83301 -24.833 -14.5 -34.5s-21.167 -14.5 -34.5 -14.5c-14 0 -25.667 4.83301 -35 14.5s-14 21.167 -14 34.5v594
c0 13.333 4.66699 24.833 14 34.5s21 14.5 35 14.5c13.333 0 24.833 -4.83301 34.5 -14.5s14.5 -21.167 14.5 -34.5v-346c0 -24.667 8.83301 -45.834 26.5 -63.501s38.834 -26.5 63.501 -26.5h4c24.667 0 45.834 8.83301 63.501 26.5s26.5 38.834 26.5 63.501v346
c0 13.333 4.83301 24.833 14.5 34.5s21.167 14.5 34.5 14.5c14 0 25.667 -4.83301 35 -14.5s14 -21.167 14 -34.5v-346z" />
    <glyph glyph-name="mu" unicode="&#x3bc;" horiz-adv-x="502" 
d="M441 185c0 -52 -18.335 -96.333 -55.002 -133s-81 -55 -133 -55h-4c-28 0 -54.667 6 -80 18c-6.66699 3.33301 -10 1.33301 -10 -6v-72c0 -13.333 -4.83301 -24.833 -14.5 -34.5s-21.167 -14.5 -34.5 -14.5c-14 0 -25.667 4.83301 -35 14.5s-14 21.167 -14 34.5v594
c0 13.333 4.66699 24.833 14 34.5s21 14.5 35 14.5c13.333 0 24.833 -4.83301 34.5 -14.5s14.5 -21.167 14.5 -34.5v-346c0 -24.667 8.83301 -45.834 26.5 -63.501s38.834 -26.5 63.501 -26.5h4c24.667 0 45.834 8.83301 63.501 26.5s26.5 38.834 26.5 63.501v346
c0 13.333 4.83301 24.833 14.5 34.5s21.167 14.5 34.5 14.5c14 0 25.667 -4.83301 35 -14.5s14 -21.167 14 -34.5v-346z" />
    <glyph glyph-name="paragraph" unicode="&#xb6;" horiz-adv-x="524" 
d="M464 48c0 -14 -4.83203 -25.666 -14.499 -34.999s-21.5 -14 -35.5 -14c-13.333 0 -24.833 4.66699 -34.5 14s-14.5 21 -14.5 35v152c0 7.33301 -3.66699 11 -11 11h-27c-7.33301 0 -11 -3.66699 -11 -11v-152c0 -14 -4.83301 -25.667 -14.5 -35s-21.167 -14 -34.5 -14
c-14 0 -25.833 4.66699 -35.5 14s-14.5 21 -14.5 35v155c0 7.33301 -3.33301 11.666 -10 12.999c-42.667 10 -77.834 32 -105.501 66s-41.5 73.333 -41.5 118v187c0 52 18.5 96.5 55.5 133.5s81.5 55.5 133.5 55.5h165c14 0 25.833 -4.83301 35.5 -14.5
s14.5 -21.167 14.5 -34.5v-679zM365.001 315.001v357c0 3.33301 -1.66699 5 -5 5h-33c-7.33301 0 -11 -3.66699 -11 -11v-345c0 -8 3.66699 -12 11 -12h33c3.33301 0 5 2 5 6zM217.001 326.001v335c0 7.33301 -3.33301 9.33301 -10 6c-32 -17.333 -48 -44 -48 -80v-187
c0 -36 16 -62.667 48 -80c6.66699 -3.33301 10 -1.33301 10 6z" />
    <glyph glyph-name="periodcentered" unicode="&#xb7;" horiz-adv-x="240" 
d="M179 297c0 -16 -5.83301 -29.833 -17.5 -41.5s-25.5 -17.5 -41.5 -17.5s-29.833 5.83301 -41.5 17.5s-17.5 25.5 -17.5 41.5s5.83301 29.833 17.5 41.5s25.5 17.5 41.5 17.5s29.833 -5.83301 41.5 -17.5s17.5 -25.5 17.5 -41.5z" />
    <glyph glyph-name="periodcentered" unicode="&#x2219;" horiz-adv-x="240" 
d="M179 297c0 -16 -5.83301 -29.833 -17.5 -41.5s-25.5 -17.5 -41.5 -17.5s-29.833 5.83301 -41.5 17.5s-17.5 25.5 -17.5 41.5s5.83301 29.833 17.5 41.5s25.5 17.5 41.5 17.5s29.833 -5.83301 41.5 -17.5s17.5 -25.5 17.5 -41.5z" />
    <glyph glyph-name="cedilla" unicode="&#xb8;" horiz-adv-x="325" 
d="M264 -70c0 -28.667 -10.167 -53.333 -30.5 -74s-44.833 -31 -73.5 -31h-50c-14 0 -25.667 4.83301 -35 14.5s-14 21.167 -14 34.5c0 14 4.66699 25.667 14 35s21 14 35 14h50c4 0 6 2.33301 6 7v80c0 14 4.83301 25.833 14.5 35.5s21.167 14.5 34.5 14.5
c14 0 25.667 -4.83301 35 -14.5s14 -21.5 14 -35.5v-80z" />
    <glyph glyph-name="onesuperior" unicode="&#xb9;" horiz-adv-x="471" 
d="M332 314c0 -14 -4.83301 -25.834 -14.5 -35.501s-21.167 -14.5 -34.5 -14.5c-14 0 -25.833 4.83301 -35.5 14.5s-14.5 21.5 -14.5 35.5v315c0 7.33301 -3 9.33301 -9 6l-11 -7c-8 -4 -16.333 -6 -25 -6c-13.333 0 -24.833 4.83301 -34.5 14.5s-14.5 21.167 -14.5 34.5
c0 18.667 8.33301 32.667 25 42l94 55c16.667 9.33301 33 9.33301 49 0c16.667 -9.33301 25 -23.666 25 -42.999v-411z" />
    <glyph glyph-name="ordmasculine" unicode="&#xba;" horiz-adv-x="377" 
d="M316 624c0 -34.667 -12.333 -64.5 -37 -89.5s-54.334 -37.5 -89.001 -37.5h-3c-34.667 0 -64.334 12.5 -89.001 37.5s-37 54.833 -37 89.5v131c0 35.333 12.333 65.333 37 90s54.334 37 89.001 37h3c34.667 0 64.334 -12.333 89.001 -37s37 -54.667 37 -90v-131zM238 624
v131c0 13.333 -4.66699 24.833 -14 34.5s-20.666 14.5 -33.999 14.5h-3c-13.333 0 -24.666 -4.83301 -33.999 -14.5s-14 -21.167 -14 -34.5v-131c0 -13.333 4.66699 -24.666 14 -33.999s20.666 -14 33.999 -14h3c13.333 0 24.666 4.66699 33.999 14s14 20.666 14 33.999z
" />
    <glyph glyph-name="guillemotright" unicode="&#xbb;" horiz-adv-x="539" 
d="M470 249l-151 -228c-9.33301 -14.667 -23 -22 -41 -22c-13.333 0 -24.833 4.66699 -34.5 14s-14.5 21 -14.5 35c0 10 2.66699 19 8 27l130 197c2 2.66699 2 5.66699 0 9l-130 197c-5.33301 8 -8 17 -8 27c0 13.333 4.83301 24.833 14.5 34.5s21.167 14.5 34.5 14.5
c18 0 31.667 -7.33301 41 -22l151 -229c5.33301 -8 8 -17 8 -27c0 -9.33301 -2.66699 -18.333 -8 -27zM302 249l-150 -228c-10 -14.667 -24 -22 -42 -22c-13.333 0 -24.833 4.66699 -34.5 14s-14.5 21 -14.5 35c0 10 2.66699 19 8 27l130 197c2 2.66699 2 5.66699 0 9
l-130 197c-5.33301 8 -8 17 -8 27c0 13.333 4.83301 24.833 14.5 34.5s21.167 14.5 34.5 14.5c18 0 32 -7.33301 42 -22l150 -229c5.33301 -8 8 -17 8 -27c0 -9.33301 -2.66699 -18.333 -8 -27z" />
    <glyph glyph-name="onequarter" unicode="&#xbc;" horiz-adv-x="919" 
d="M861 150c0 -13.333 -4.83301 -24.833 -14.5 -34.5s-21.5 -14.5 -35.5 -14.5h-10c-7.33301 0 -11 -3.66699 -11 -11v-41c0 -13.333 -4.83301 -24.833 -14.5 -34.5s-21.167 -14.5 -34.5 -14.5s-24.833 4.83301 -34.5 14.5s-14.5 21.167 -14.5 34.5v41
c0 7.33301 -3.66699 11 -11 11h-103c-16 0 -28.833 6.33301 -38.5 19s-12.5 27 -8.5 43l81 319c6.66699 24.667 22.667 37 48 37c13.333 0 24.833 -4.83301 34.5 -14.5s14.5 -21.167 14.5 -34.5c0 -4 -0.333008 -8.33301 -1 -13l-63 -247c-2 -6.66699 0.666992 -10 8 -10h28
c7.33301 0 11 3.66699 11 11v75c0 13.333 4.83301 24.833 14.5 34.5s21.167 14.5 34.5 14.5s24.833 -4.83301 34.5 -14.5s14.5 -21.167 14.5 -34.5v-75c0 -7.33301 3.66699 -11 11 -11h10c14 0 25.833 -4.83301 35.5 -14.5s14.5 -21.5 14.5 -35.5zM670 703l-380 -679
c-9.33301 -16.667 -23.666 -25 -42.999 -25c-13.333 0 -24.833 4.83301 -34.5 14.5s-14.5 21.167 -14.5 34.5c0 8.66699 2.33301 16.667 7 24l379 679c9.33301 16.667 23.666 25 42.999 25c13.333 0 24.833 -4.66699 34.5 -14s14.5 -21 14.5 -35
c0 -8.66699 -2 -16.667 -6 -24zM251 314c0 -14 -4.83398 -25.834 -14.501 -35.501s-21.167 -14.5 -34.5 -14.5s-24.833 4.83301 -34.5 14.5s-14.5 21.5 -14.5 35.5v315c0 7.33301 -3.33301 9.33301 -10 6l-11 -7c-7.33301 -4 -15.333 -6 -24 -6
c-14 0 -25.833 4.83301 -35.5 14.5s-14.5 21.167 -14.5 34.5c0 18.667 8.33301 32.667 25 42l94 55c16.667 9.33301 33.334 9.33301 50.001 0c16 -9.33301 24 -23.666 24 -42.999v-411z" />
    <glyph glyph-name="onehalf" unicode="&#xbd;" horiz-adv-x="980" 
d="M922 50c0 -13.333 -4.83203 -24.832 -14.499 -34.499s-21.167 -14.5 -34.5 -14.5h-233c-20 0 -34.667 8.66699 -44 26c-8.66699 17.333 -7.66699 34.333 3 51l213 313c8 12 12 25 12 39c0 13.333 -4.83301 24.666 -14.5 33.999s-21.167 14 -34.5 14h-37
c-16.667 0 -31.334 -9 -44.001 -27s-27.334 -27 -44.001 -27c-13.333 0 -24.833 4.83301 -34.5 14.5s-14.5 21.167 -14.5 34.5c0 8 1.66699 15.333 5 22c27.333 54.667 71.333 82 132 82h37c40.667 0 75.334 -14.5 104.001 -43.5s43 -63.5 43 -103.5
c0 -34 -9.66699 -65.333 -29 -94l-154 -227c-4 -6.66699 -2.33301 -10 5 -10h129c13.333 0 24.833 -4.66699 34.5 -14s14.5 -21 14.5 -35zM669.001 703.001l-379 -679c-9.33301 -16.667 -23.666 -25 -42.999 -25c-13.333 0 -24.833 4.83301 -34.5 14.5
s-14.5 21.167 -14.5 34.5c0 8.66699 2 16.667 6 24l379 679c9.33301 16.667 23.666 25 42.999 25c13.333 0 24.833 -4.66699 34.5 -14s14.5 -21 14.5 -35c0 -8.66699 -2 -16.667 -6 -24zM251.001 314.001c0 -14 -4.83301 -25.834 -14.5 -35.501s-21.5 -14.5 -35.5 -14.5
c-13.333 0 -24.833 4.83301 -34.5 14.5s-14.5 21.5 -14.5 35.5v315c0 7.33301 -3 9.33301 -9 6l-11 -7c-8 -4 -16.333 -6 -25 -6c-13.333 0 -24.833 4.83301 -34.5 14.5s-14.5 21.167 -14.5 34.5c0 18.667 8.33301 32.667 25 42l94 55c16 9.33301 32.333 9.33301 49 0
s25 -23.666 25 -42.999v-411z" />
    <glyph glyph-name="threequarters" unicode="&#xbe;" horiz-adv-x="963" 
d="M905 150c0 -13.333 -4.83301 -24.833 -14.5 -34.5s-21.5 -14.5 -35.5 -14.5h-10c-7.33301 0 -11 -3.66699 -11 -11v-41c0 -13.333 -4.83301 -24.833 -14.5 -34.5s-21.167 -14.5 -34.5 -14.5s-24.833 4.83301 -34.5 14.5s-14.5 21.167 -14.5 34.5v41
c0 7.33301 -3.66699 11 -11 11h-103c-16 0 -28.833 6.33301 -38.5 19s-12.5 27 -8.5 43l81 319c6.66699 24.667 22.667 37 48 37c13.333 0 24.833 -4.83301 34.5 -14.5s14.5 -21.167 14.5 -34.5c0 -4 -0.333008 -8.33301 -1 -13l-63 -247c-2 -6.66699 0.666992 -10 8 -10h28
c7.33301 0 11 3.66699 11 11v75c0 13.333 4.83301 24.833 14.5 34.5s21.167 14.5 34.5 14.5s24.833 -4.83301 34.5 -14.5s14.5 -21.167 14.5 -34.5v-75c0 -7.33301 3.66699 -11 11 -11h10c14 0 25.833 -4.83301 35.5 -14.5s14.5 -21.5 14.5 -35.5zM714 703l-380 -679
c-9.33301 -16.667 -23.666 -25 -42.999 -25c-13.333 0 -24.833 4.83301 -34.5 14.5s-14.5 21.167 -14.5 34.5c0 8.66699 2.33301 16.667 7 24l379 679c9.33301 16.667 23.666 25 42.999 25c13.333 0 24.833 -4.66699 34.5 -14s14.5 -21 14.5 -35
c0 -8.66699 -2 -16.667 -6 -24zM352 411c0 -40.667 -14.333 -75.3262 -43 -103.993s-63 -43 -103 -43h-10c-60.667 0 -104.667 27 -132 81c-3.33301 7.33301 -5 14.666 -5 21.999c0 14 4.83301 25.833 14.5 35.5s21.167 14.5 34.5 14.5c16.667 0 31.334 -9 44.001 -27
s27.334 -27 44.001 -27h10c13.333 0 24.666 4.66699 33.999 14s14 20.666 14 33.999v11c0 13.333 -4.66699 24.666 -14 33.999s-20.666 14 -33.999 14h-12c-14 0 -25.667 4.83301 -35 14.5s-14 21.167 -14 34.5c0 14 4.66699 25.833 14 35.5s21 14.5 35 14.5h12
c13.333 0 24.666 4.66699 33.999 14s14 20.666 14 33.999v11c0 13.333 -4.66699 24.666 -14 33.999s-20.666 14 -33.999 14h-10c-16.667 0 -31.334 -9.33301 -44.001 -28s-27.334 -28 -44.001 -28c-14 0 -25.833 4.83301 -35.5 14.5s-14.5 21.5 -14.5 35.5
c0 7.33301 1.66699 14.333 5 21c12 25.333 30.167 45.5 54.5 60.5s50.5 22.5 78.5 22.5h10c40 0 74.333 -14.333 103 -43s43 -63 43 -103v-11c0 -32.667 -10 -62.334 -30 -89.001c-4.66699 -6 -4.66699 -11.667 0 -17c20 -26.667 30 -56.334 30 -89.001v-11z" />
    <glyph glyph-name="questiondown" unicode="&#xbf;" horiz-adv-x="534" 
d="M331 718c0 -16 -5.83301 -29.833 -17.5 -41.5s-25.5 -17.5 -41.5 -17.5c-16.667 0 -30.667 5.83301 -42 17.5s-17 25.5 -17 41.5s5.66699 29.833 17 41.5s25.333 17.5 42 17.5c16 0 29.833 -5.83301 41.5 -17.5s17.5 -25.5 17.5 -41.5zM469 106
c-15.333 -32 -38.334 -57.667 -69.001 -77s-64 -29 -100 -29h-54c-52 0 -96 18 -132 54s-54 79.667 -54 131s18.333 95 55 131l74 73c22.667 22.667 34 50 34 82v83c0 13.333 4.83301 24.833 14.5 34.5s21.5 14.5 35.5 14.5c13.333 0 24.833 -4.83301 34.5 -14.5
s14.5 -21.167 14.5 -34.5v-83c0 -60 -21.667 -111 -65 -153l-73 -72c-17.333 -16.667 -26 -37 -26 -61c0 -24.667 8.5 -45.334 25.5 -62.001s37.833 -25 62.5 -25h54c37.333 0 64.333 17 81 51c8.66699 18.667 23.334 28 44.001 28c13.333 0 24.833 -4.83301 34.5 -14.5
s14.5 -21.167 14.5 -34.5c0 -7.33301 -1.66699 -14.666 -5 -21.999z" />
    <glyph glyph-name="Agrave" unicode="&#xc0;" horiz-adv-x="616" 
d="M331 809c-13.333 0 -25 4.99902 -35 14.999l-46 46c-9.33301 10 -14 21.667 -14 35s4.66699 24.833 14 34.5s21 14.5 35 14.5c13.333 0 25 -4.66699 35 -14l46 -47c9.33301 -9.33301 14 -20.666 14 -33.999c0 -14 -4.66699 -25.833 -14 -35.5s-21 -14.5 -35 -14.5z
M555 60.999c1.33301 -4.66699 1.99805 -9.33398 1.99805 -14.001c0 -13.333 -4.83301 -24.833 -14.5 -34.5s-21.5 -14.5 -35.5 -14.5c-24 0 -39.667 11.667 -47 35l-32 109c-0.666992 3.33301 -3 5 -7 5h-226c-4 0 -6.33301 -1.66699 -7 -5l-32 -109
c-7.33301 -23.333 -23 -35 -47 -35c-14 0 -25.833 4.83301 -35.5 14.5s-14.5 21.167 -14.5 34.5c0 4.66699 0.666992 9.33398 2 14.001l200 679c6.66699 23.333 22.334 35 47.001 35s40.334 -11.667 47.001 -35zM395.998 250.999l-86 293c0 1.33301 -0.666992 2 -2 2
s-2 -0.666992 -2 -2l-86 -293c-1.33301 -3.33301 0 -5 4 -5h168c4 0 5.33301 1.66699 4 5z" />
    <glyph glyph-name="Aacute" unicode="&#xc1;" horiz-adv-x="617" 
d="M366 870l-46 -45.999c-9.33301 -10 -21 -15 -35 -15c-13.333 0 -24.833 4.83301 -34.5 14.5s-14.5 21.5 -14.5 35.5c0 13.333 5 24.666 15 33.999l46 47c9.33301 9.33301 21 14 35 14c13.333 0 24.833 -4.83301 34.5 -14.5s14.5 -21.167 14.5 -34.5s-5 -25 -15 -35z
M555 61.001c1.33301 -4.66699 2 -9.33398 2 -14.001c0 -13.333 -4.83301 -24.833 -14.5 -34.5s-21.167 -14.5 -34.5 -14.5c-24.667 0 -40.334 11.667 -47.001 35l-32 109c-1.33301 3.33301 -3.66602 5 -6.99902 5h-227c-3.33301 0 -5.66602 -1.66699 -6.99902 -5l-32 -109
c-6.66699 -23.333 -22.334 -35 -47.001 -35c-13.333 0 -24.833 4.83301 -34.5 14.5s-14.5 21.167 -14.5 34.5c0 4.66699 0.666992 9.33398 2 14.001l199 679c7.33301 23.333 23 35 47 35c24.667 0 40.667 -11.667 48 -35zM397 251.001l-85.9971 293
c-0.666992 1.33301 -1.66699 2 -3 2c-0.666992 0 -1.33398 -0.666992 -2.00098 -2l-86 -293c-0.666992 -3.33301 0.666016 -5 3.99902 -5h169c3.33301 0 4.66602 1.66699 3.99902 5z" />
    <glyph glyph-name="Acircumflex" unicode="&#xc2;" horiz-adv-x="617" 
d="M417 893c10 -9.33301 14.9971 -20.666 14.9971 -33.999c0 -14 -4.83301 -25.833 -14.5 -35.5s-21.5 -14.5 -35.5 -14.5c-13.333 0 -24.666 5 -33.999 15l-32 32c-5.33301 4.66699 -10.666 4.66699 -15.999 0l-32 -32c-9.33301 -10 -20.666 -15 -33.999 -15
c-14 0 -25.667 4.83301 -35 14.5s-14 21.5 -14 35.5c0 13.333 4.66699 24.666 14 33.999l74 75c10 9.33301 21.667 14 35 14s25 -4.66699 35 -14zM554.997 61c1.33301 -4.66699 2 -9.33398 2 -14.001c0 -13.333 -4.83301 -24.833 -14.5 -34.5s-21.167 -14.5 -34.5 -14.5
c-24.667 0 -40.334 11.667 -47.001 35l-32 109c-1.33301 3.33301 -3.66602 5 -6.99902 5h-227c-3.33301 0 -5.66602 -1.66699 -6.99902 -5l-32 -109c-6.66699 -23.333 -22.334 -35 -47.001 -35c-13.333 0 -24.833 4.83301 -34.5 14.5s-14.5 21.167 -14.5 34.5
c0 4.66699 0.666992 9.33398 2 14.001l199 679c7.33301 23.333 23 35 47 35c24.667 0 40.667 -11.667 48 -35zM396.997 251l-85.9971 293c-0.666992 1.33301 -1.66699 2 -3 2c-0.666992 0 -1.33398 -0.666992 -2.00098 -2l-86 -293
c-0.666992 -3.33301 0.666016 -5 3.99902 -5h169c3.33301 0 4.66602 1.66699 3.99902 5z" />
    <glyph glyph-name="Atilde" unicode="&#xc3;" horiz-adv-x="616" 
d="M449 866l-34 -35c-14.667 -14.667 -32 -22 -52 -22c-10 0 -19.667 2 -29 6l-65 28c-6.66699 2.66699 -12.667 1.33398 -18 -3.99902l-15 -15c-9.33301 -10 -21 -15 -35 -15c-13.333 0 -24.833 4.83301 -34.5 14.5s-14.5 21.5 -14.5 35.5c0 13.333 5 24.666 15 33.999
l34 35c14.667 14.667 32 22 52 22c10 0 19.667 -2 29 -6l65 -27c6.66699 -3.33301 12.667 -2.33301 18 3l15 15c9.33301 10 21 15 35 15c13.333 0 24.833 -4.83301 34.5 -14.5s14.5 -21.167 14.5 -34.5c0 -14 -5 -25.667 -15 -35zM555 61
c1.33301 -4.66699 1.99805 -9.33398 1.99805 -14.001c0 -13.333 -4.83301 -24.833 -14.5 -34.5s-21.5 -14.5 -35.5 -14.5c-24 0 -39.667 11.667 -47 35l-32 109c-0.666992 3.33301 -3 5 -7 5h-226c-4 0 -6.33301 -1.66699 -7 -5l-32 -109c-7.33301 -23.333 -23 -35 -47 -35
c-14 0 -25.833 4.83301 -35.5 14.5s-14.5 21.167 -14.5 34.5c0 4.66699 0.666992 9.33398 2 14.001l200 679c6.66699 23.333 22.334 35 47.001 35s40.334 -11.667 47.001 -35zM395.998 251l-86 293c0 1.33301 -0.666992 2 -2 2s-2 -0.666992 -2 -2l-86 -293
c-1.33301 -3.33301 0 -5 4 -5h168c4 0 5.33301 1.66699 4 5z" />
    <glyph glyph-name="Adieresis" unicode="&#xc4;" horiz-adv-x="617" 
d="M436 855c0 -13.333 -4.83301 -24.666 -14.5 -33.999s-21.167 -14 -34.5 -14s-24.833 4.66699 -34.5 14s-14.5 20.666 -14.5 33.999s4.83301 24.833 14.5 34.5s21.167 14.5 34.5 14.5s24.833 -4.83301 34.5 -14.5s14.5 -21.167 14.5 -34.5zM279 855
c0 -13.333 -4.83301 -24.666 -14.5 -33.999s-21.167 -14 -34.5 -14s-24.833 4.66699 -34.5 14s-14.5 20.666 -14.5 33.999s4.83301 24.833 14.5 34.5s21.167 14.5 34.5 14.5s24.833 -4.83301 34.5 -14.5s14.5 -21.167 14.5 -34.5zM555 61
c1.33301 -4.66699 2 -9.33398 2 -14.001c0 -13.333 -4.83301 -24.833 -14.5 -34.5s-21.167 -14.5 -34.5 -14.5c-24.667 0 -40.334 11.667 -47.001 35l-32 109c-1.33301 3.33301 -3.66602 5 -6.99902 5h-227c-3.33301 0 -5.66602 -1.66699 -6.99902 -5l-32 -109
c-6.66699 -23.333 -22.334 -35 -47.001 -35c-13.333 0 -24.833 4.83301 -34.5 14.5s-14.5 21.167 -14.5 34.5c0 4.66699 0.666992 9.33398 2 14.001l199 679c7.33301 23.333 23 35 47 35c24.667 0 40.667 -11.667 48 -35zM397 251l-85.9971 293
c-0.666992 1.33301 -1.66699 2 -3 2c-0.666992 0 -1.33398 -0.666992 -2.00098 -2l-86 -293c-0.666992 -3.33301 0.666016 -5 3.99902 -5h169c3.33301 0 4.66602 1.66699 3.99902 5z" />
    <glyph glyph-name="Aring" unicode="&#xc5;" horiz-adv-x="617" 
d="M405 896c0 -26.667 -9.33301 -49.5 -28 -68.5s-41.334 -28.5 -68.001 -28.5s-49.334 9.5 -68.001 28.5s-28 41.833 -28 68.5s9.33301 49.334 28 68.001s41.334 28 68.001 28s49.334 -9.33301 68.001 -28s28 -41.334 28 -68.001zM555 61
c1.33301 -4.66699 2 -9.33398 2 -14.001c0 -13.333 -4.83301 -24.833 -14.5 -34.5s-21.167 -14.5 -34.5 -14.5c-24.667 0 -40.334 11.667 -47.001 35l-32 109c-1.33301 3.33301 -3.66602 5 -6.99902 5h-227c-3.33301 0 -5.66602 -1.66699 -6.99902 -5l-32 -109
c-6.66699 -23.333 -22.334 -35 -47.001 -35c-13.333 0 -24.833 4.83301 -34.5 14.5s-14.5 21.167 -14.5 34.5c0 4.66699 0.666992 9.33398 2 14.001l199 679c7.33301 23.333 23 35 47 35c24.667 0 40.667 -11.667 48 -35zM327 896c0 11.333 -6 17 -18 17
s-18 -5.66699 -18 -17c0 -12 6 -18 18 -18s18 6 18 18zM397 251l-85.9971 293c-0.666992 1.33301 -1.66699 2 -3 2c-0.666992 0 -1.33398 -0.666992 -2.00098 -2l-86 -293c-0.666992 -3.33301 0.666016 -5 3.99902 -5h169c3.33301 0 4.66602 1.66699 3.99902 5z" />
    <glyph glyph-name="AE" unicode="&#xc6;" horiz-adv-x="909" 
d="M850 48c0 -14 -4.83496 -25.6689 -14.502 -35.002s-21.167 -14 -34.5 -14h-294c-26.667 0 -42.667 13 -48 39l-31 104c-1.33301 4 -3.66602 6 -6.99902 6h-226c-4 0 -6.66699 -2 -8 -6l-32 -108c-6.66699 -23.333 -22.334 -35 -47.001 -35
c-13.333 0 -24.833 4.66699 -34.5 14s-14.5 21 -14.5 35c0 4.66699 0.666992 9.33398 2 14.001l200 678c6.66699 24 22.334 36 47.001 36s40.334 -12 47.001 -36l98 -335c0.666992 -1.33301 1.66699 -1.66602 3 -0.999023c1.33301 0 2 0.666992 2 2v321
c0 13.333 4.83301 24.833 14.5 34.5s21.167 14.5 34.5 14.5h294c13.333 0 24.833 -4.83301 34.5 -14.5s14.5 -21.167 14.5 -34.5c0 -14 -4.83301 -25.833 -14.5 -35.5s-21.167 -14.5 -34.5 -14.5h-239c-4 0 -6 -1.66699 -6 -5v-230c0 -4 2 -6 6 -6h200
c13.333 0 24.833 -4.66699 34.5 -14s14.5 -21 14.5 -35c0 -13.333 -4.83301 -24.833 -14.5 -34.5s-21.167 -14.5 -34.5 -14.5h-200c-4 0 -6 -2 -6 -6v-229c0 -4 2 -6 6 -6h239c13.333 0 24.833 -4.83301 34.5 -14.5s14.5 -21.167 14.5 -34.5zM395.998 251.998l-85.998 293
c-0.666992 0.666992 -1.33398 1 -2.00098 1c-1.33301 0 -2 -0.333008 -2 -1l-87 -293c-0.666992 -4 0.666016 -6 3.99902 -6h169c4 0 5.33301 2 4 6z" />
    <glyph glyph-name="Ccedilla" unicode="&#xc7;" horiz-adv-x="539" 
d="M474 669c2.66699 -6.66699 4.00195 -13.6689 4.00195 -21.002c0 -14 -4.83301 -25.833 -14.5 -35.5s-21.167 -14.5 -34.5 -14.5c-20.667 0 -35.334 9.33301 -44.001 28c-16.667 34.667 -44 52 -82 52h-54c-24.667 0 -45.834 -8.83301 -63.501 -26.5
s-26.5 -39.167 -26.5 -64.5v-405c0 -24.667 8.83301 -45.834 26.5 -63.501s38.834 -26.5 63.501 -26.5h54c38 0 65 16.667 81 50c9.33301 18.667 24.333 28 45 28c13.333 0 24.833 -4.83301 34.5 -14.5s14.5 -21.167 14.5 -34.5c0 -7.33301 -1.66699 -14.666 -5 -21.999
c-29.333 -59.333 -77.333 -93.666 -144 -102.999c-6.66699 -1.33301 -10 -5.66602 -10 -12.999v-52c0 -29.333 -10.333 -54.166 -31 -74.499s-45.334 -30.5 -74.001 -30.5h-50c-14 0 -25.667 4.83301 -35 14.5s-14 21.167 -14 34.5s4.66699 24.833 14 34.5s21 14.5 35 14.5
h50c4 0 6 2.33301 6 7v53c0 7.33301 -3.66699 12 -11 14c-42.667 9.33301 -78 31.166 -106 65.499s-42 73.833 -42 118.5v405c0 52 18.333 96.5 55 133.5s81 55.5 133 55.5h54c36 0 69.5 -9.66699 100.5 -29s54.5 -45.333 70.5 -78z" />
    <glyph glyph-name="Egrave" unicode="&#xc8;" horiz-adv-x="513" 
d="M280 816c-14 0 -25.667 5 -35 15l-46 46c-10 9.33301 -15 21 -15 35c0 13.333 4.83301 24.833 14.5 34.5s21.167 14.5 34.5 14.5c14 0 25.667 -5 35 -15l46 -46c10 -9.33301 15 -21 15 -35c0 -13.333 -4.83301 -24.833 -14.5 -34.5s-21.167 -14.5 -34.5 -14.5zM452 49
c0 -13.333 -4.83301 -24.833 -14.5 -34.5s-21.167 -14.5 -34.5 -14.5h-293c-13.333 -0 -24.833 4.83301 -34.5 14.5s-14.5 21.167 -14.5 34.5v677c0 14 4.83301 25.833 14.5 35.5s21.167 14.5 34.5 14.5h293c13.333 0 24.833 -4.83301 34.5 -14.5s14.5 -21.5 14.5 -35.5
c0 -13.333 -4.83301 -24.833 -14.5 -34.5s-21.167 -14.5 -34.5 -14.5h-238c-4 0 -6 -1.66699 -6 -5v-230c0 -3.33301 2 -5 6 -5h199c13.333 0 24.833 -4.83301 34.5 -14.5s14.5 -21.167 14.5 -34.5c0 -14 -4.83301 -25.667 -14.5 -35s-21.167 -14 -34.5 -14h-199
c-4 0 -6 -2 -6 -6v-229c0 -4 2 -6 6 -6h238c13.333 0 24.833 -4.83301 34.5 -14.5s14.5 -21.167 14.5 -34.5z" />
    <glyph glyph-name="Eacute" unicode="&#xc9;" horiz-adv-x="513" 
d="M314 877l-46 -46c-9.33301 -10 -21 -15 -35 -15c-13.333 0 -24.833 4.83301 -34.5 14.5s-14.5 21.167 -14.5 34.5c0 14 5 25.667 15 35l46 46c9.33301 10 21 15 35 15c13.333 0 24.833 -4.83301 34.5 -14.5s14.5 -21.167 14.5 -34.5c0 -14 -5 -25.667 -15 -35zM452 49
c0 -13.333 -4.83301 -24.833 -14.5 -34.5s-21.167 -14.5 -34.5 -14.5h-293c-13.333 -0 -24.833 4.83301 -34.5 14.5s-14.5 21.167 -14.5 34.5v677c0 14 4.83301 25.833 14.5 35.5s21.167 14.5 34.5 14.5h293c13.333 0 24.833 -4.83301 34.5 -14.5s14.5 -21.5 14.5 -35.5
c0 -13.333 -4.83301 -24.833 -14.5 -34.5s-21.167 -14.5 -34.5 -14.5h-238c-4 0 -6 -1.66699 -6 -5v-230c0 -3.33301 2 -5 6 -5h199c13.333 0 24.833 -4.83301 34.5 -14.5s14.5 -21.167 14.5 -34.5c0 -14 -4.83301 -25.667 -14.5 -35s-21.167 -14 -34.5 -14h-199
c-4 0 -6 -2 -6 -6v-229c0 -4 2 -6 6 -6h238c13.333 0 24.833 -4.83301 34.5 -14.5s14.5 -21.167 14.5 -34.5z" />
    <glyph glyph-name="Ecircumflex" unicode="&#xca;" horiz-adv-x="513" 
d="M365 905c10 -9.33301 15.001 -20.666 15.001 -33.999c0 -14 -4.83301 -25.667 -14.5 -35s-21.167 -14 -34.5 -14c-14 0 -25.667 4.66699 -35 14l-32 32c-5.33301 5.33301 -10.333 5.33301 -15 0l-32 -32c-9.33301 -9.33301 -21 -14 -35 -14
c-13.333 0 -24.833 4.66699 -34.5 14s-14.5 21 -14.5 35c0 13.333 5 24.666 15 33.999l74 75c9.33301 9.33301 21 14 35 14c13.333 0 24.666 -4.66699 33.999 -14zM452.001 49c0 -13.333 -4.83301 -24.833 -14.5 -34.5s-21.167 -14.5 -34.5 -14.5h-293
c-13.333 -0 -24.833 4.83301 -34.5 14.5s-14.5 21.167 -14.5 34.5v677c0 14 4.83301 25.833 14.5 35.5s21.167 14.5 34.5 14.5h293c13.333 0 24.833 -4.83301 34.5 -14.5s14.5 -21.5 14.5 -35.5c0 -13.333 -4.83301 -24.833 -14.5 -34.5s-21.167 -14.5 -34.5 -14.5h-238
c-4 0 -6 -1.66699 -6 -5v-230c0 -3.33301 2 -5 6 -5h199c13.333 0 24.833 -4.83301 34.5 -14.5s14.5 -21.167 14.5 -34.5c0 -14 -4.83301 -25.667 -14.5 -35s-21.167 -14 -34.5 -14h-199c-4 0 -6 -2 -6 -6v-229c0 -4 2 -6 6 -6h238c13.333 0 24.833 -4.83301 34.5 -14.5
s14.5 -21.167 14.5 -34.5z" />
    <glyph glyph-name="Edieresis" unicode="&#xcb;" horiz-adv-x="513" 
d="M384 865c0 -13.333 -4.83301 -24.833 -14.5 -34.5s-21.167 -14.5 -34.5 -14.5s-24.833 4.83301 -34.5 14.5s-14.5 21.167 -14.5 34.5s4.83301 24.666 14.5 33.999s21.167 14 34.5 14s24.833 -4.66699 34.5 -14s14.5 -20.666 14.5 -33.999zM227 865
c0 -13.333 -4.83301 -24.833 -14.5 -34.5s-21.167 -14.5 -34.5 -14.5s-24.833 4.83301 -34.5 14.5s-14.5 21.167 -14.5 34.5s4.83301 24.666 14.5 33.999s21.167 14 34.5 14s24.833 -4.66699 34.5 -14s14.5 -20.666 14.5 -33.999zM452 49
c0 -13.333 -4.83301 -24.833 -14.5 -34.5s-21.167 -14.5 -34.5 -14.5h-293c-13.333 -0 -24.833 4.83301 -34.5 14.5s-14.5 21.167 -14.5 34.5v677c0 14 4.83301 25.833 14.5 35.5s21.167 14.5 34.5 14.5h293c13.333 0 24.833 -4.83301 34.5 -14.5s14.5 -21.5 14.5 -35.5
c0 -13.333 -4.83301 -24.833 -14.5 -34.5s-21.167 -14.5 -34.5 -14.5h-238c-4 0 -6 -1.66699 -6 -5v-230c0 -3.33301 2 -5 6 -5h199c13.333 0 24.833 -4.83301 34.5 -14.5s14.5 -21.167 14.5 -34.5c0 -14 -4.83301 -25.667 -14.5 -35s-21.167 -14 -34.5 -14h-199
c-4 0 -6 -2 -6 -6v-229c0 -4 2 -6 6 -6h238c13.333 0 24.833 -4.83301 34.5 -14.5s14.5 -21.167 14.5 -34.5z" />
    <glyph glyph-name="Igrave" unicode="&#xcc;" horiz-adv-x="266" 
d="M156 804c-13.333 0 -25 5 -35 15l-46 46c-9.33301 9.33301 -14 21 -14 35c0 13.333 4.83301 24.833 14.5 34.5s21.167 14.5 34.5 14.5s25 -5 35 -15l46 -46c9.33301 -9.33301 14 -21 14 -35c0 -13.333 -4.83301 -24.833 -14.5 -34.5s-21.167 -14.5 -34.5 -14.5zM182 49
c0 -13.333 -4.83301 -24.833 -14.5 -34.5s-21.167 -14.5 -34.5 -14.5s-24.833 4.83301 -34.5 14.5s-14.5 21.167 -14.5 34.5v677c0 14 4.83301 25.833 14.5 35.5s21.167 14.5 34.5 14.5s24.833 -4.83301 34.5 -14.5s14.5 -21.5 14.5 -35.5v-677z" />
    <glyph glyph-name="Iacute" unicode="&#xcd;" horiz-adv-x="267" 
d="M191 865l-46 -46c-9.33301 -10 -21 -15 -35 -15c-13.333 0 -24.833 4.83301 -34.5 14.5s-14.5 21.167 -14.5 34.5c0 14 5 25.667 15 35l46 46c9.33301 10 21 15 35 15c13.333 0 24.833 -4.83301 34.5 -14.5s14.5 -21.167 14.5 -34.5c0 -14 -5 -25.667 -15 -35zM183 49
c0 -13.333 -4.83301 -24.833 -14.5 -34.5s-21.167 -14.5 -34.5 -14.5c-14 -0 -25.833 4.83301 -35.5 14.5s-14.5 21.167 -14.5 34.5v677c0 14 4.83301 25.833 14.5 35.5s21.5 14.5 35.5 14.5c13.333 0 24.833 -4.83301 34.5 -14.5s14.5 -21.5 14.5 -35.5v-677z" />
    <glyph glyph-name="Icircumflex" unicode="&#xce;" horiz-adv-x="354" 
d="M286 885c9.33301 -9.33301 13.9971 -20.666 13.9971 -33.999c0 -14 -4.66699 -25.667 -14 -35s-21 -14 -35 -14c-13.333 0 -24.666 4.66699 -33.999 14l-32 32c-5.33301 5.33301 -10.666 5.33301 -15.999 0l-32 -32c-9.33301 -9.33301 -20.666 -14 -33.999 -14
c-14 0 -25.667 4.66699 -35 14s-14 21 -14 35c0 13.333 4.66699 24.666 14 33.999l74 75c10 9.33301 21.667 14 35 14s25 -4.66699 35 -14zM225.997 49c0 -13.333 -4.83301 -24.833 -14.5 -34.5s-21.167 -14.5 -34.5 -14.5s-24.833 4.83301 -34.5 14.5
s-14.5 21.167 -14.5 34.5v677c0 14 4.83301 25.833 14.5 35.5s21.167 14.5 34.5 14.5s24.833 -4.83301 34.5 -14.5s14.5 -21.5 14.5 -35.5v-677z" />
    <glyph glyph-name="Idieresis" unicode="&#xcf;" horiz-adv-x="376" 
d="M315 853c0 -14 -4.66699 -25.667 -14 -35s-20.666 -14 -33.999 -14c-14 0 -25.667 4.66699 -35 14s-14 21 -14 35c0 13.333 4.66699 24.666 14 33.999s21 14 35 14c13.333 0 24.666 -4.66699 33.999 -14s14 -20.666 14 -33.999zM158 853c0 -14 -4.66699 -25.667 -14 -35
s-21 -14 -35 -14c-13.333 0 -24.666 4.66699 -33.999 14s-14 21 -14 35c0 13.333 4.66699 24.666 14 33.999s20.666 14 33.999 14c14 0 25.667 -4.66699 35 -14s14 -20.666 14 -33.999zM237 49c0 -13.333 -4.83301 -24.833 -14.5 -34.5s-21.167 -14.5 -34.5 -14.5
s-24.833 4.83301 -34.5 14.5s-14.5 21.167 -14.5 34.5v677c0 14 4.83301 25.833 14.5 35.5s21.167 14.5 34.5 14.5s24.833 -4.83301 34.5 -14.5s14.5 -21.5 14.5 -35.5v-677z" />
    <glyph glyph-name="Eth" unicode="&#xd0;" horiz-adv-x="682" 
d="M621 187c0 -52 -18.333 -96.333 -55 -133s-81 -55 -133 -55h-194c-13.333 0 -24.833 4.66699 -34.5 14s-14.5 21 -14.5 35v279c0 7.33301 -3.66699 11 -11 11h-69c-13.333 0 -24.833 4.83301 -34.5 14.5s-14.5 21.167 -14.5 34.5c0 14 4.83301 25.667 14.5 35
s21.167 14 34.5 14h69c7.33301 0 11 4 11 12v279c0 13.333 4.83301 24.833 14.5 34.5s21.167 14.5 34.5 14.5h194c52 0 96.333 -18.5 133 -55.5s55 -81.5 55 -133.5v-400zM523 187v400c0 25.333 -8.83301 46.666 -26.5 63.999s-38.834 26 -63.501 26h-139
c-4 0 -6 -1.66699 -6 -5v-224c0 -8 3.66699 -12 11 -12h60c14 0 25.667 -4.66699 35 -14s14 -21 14 -35c0 -13.333 -4.66699 -24.833 -14 -34.5s-21 -14.5 -35 -14.5h-60c-7.33301 0 -11 -3.66699 -11 -11v-224c0 -4 2 -6 6 -6h139c24.667 0 45.834 8.83301 63.501 26.5
s26.5 38.834 26.5 63.501z" />
    <glyph glyph-name="Ntilde" unicode="&#xd1;" 
d="M417 866l-34 -34.001c-14.667 -14.667 -32.334 -22 -53.001 -22c-9.33301 0 -18.666 2 -27.999 6l-65 27c-6.66699 2.66699 -12.667 1.33398 -18 -3.99902l-15 -15c-9.33301 -9.33301 -20.666 -14 -33.999 -14c-14 0 -25.833 4.83301 -35.5 14.5s-14.5 21.167 -14.5 34.5
s5 25 15 35l35 34c14.667 14.667 32 22 52 22c10 0 19.333 -2 28 -6l65 -27c6.66699 -3.33301 12.667 -2.33301 18 3l15 15c9.33301 10 20.666 15 33.999 15c14 0 25.833 -4.83301 35.5 -14.5s14.5 -21.167 14.5 -34.5c0 -14 -5 -25.667 -15 -35zM491 48.999
c0 -13.333 -4.83301 -24.832 -14.5 -34.499s-21.167 -14.5 -34.5 -14.5c-20.667 0 -35.334 9 -44.001 27l-235 479c-0.666992 1.33301 -1.33398 1.66602 -2.00098 0.999023c-1.33301 0 -2 -0.666992 -2 -2v-456c0 -13.333 -4.83301 -24.833 -14.5 -34.5
s-21.167 -14.5 -34.5 -14.5s-24.833 4.83301 -34.5 14.5s-14.5 21.167 -14.5 34.5v677c0 14 4.83301 25.833 14.5 35.5s21.167 14.5 34.5 14.5c20.667 0 35.334 -9.33301 44.001 -28l235 -479c0.666992 -0.666992 1.33398 -1 2.00098 -1c1.33301 0 2 0.666992 2 2v456
c0 14 4.83301 25.833 14.5 35.5s21.167 14.5 34.5 14.5s24.833 -4.83301 34.5 -14.5s14.5 -21.5 14.5 -35.5v-677z" />
    <glyph glyph-name="Ograve" unicode="&#xd2;" 
d="M299 805c-13.333 0 -25 4.66602 -35 13.999l-46 46c-9.33301 10 -14 21.667 -14 35s4.83301 24.833 14.5 34.5s21.167 14.5 34.5 14.5s25 -4.66699 35 -14l46 -47c9.33301 -9.33301 14 -20.666 14 -33.999s-4.83301 -24.833 -14.5 -34.5s-21.167 -14.5 -34.5 -14.5z
M491 187.999c0 -52 -18.5 -96.333 -55.5 -133s-81.167 -55 -132.5 -55h-54c-51.333 0 -95.5 18.333 -132.5 55s-55.5 81 -55.5 133v403c0 52 18.5 96.333 55.5 133s81.167 55 132.5 55h54c52 0 96.333 -18.333 133 -55s55 -81 55 -133v-403zM393 187.999v403
c0 24.667 -8.83301 45.834 -26.5 63.501s-38.834 26.5 -63.501 26.5h-54c-24.667 0 -45.834 -8.83301 -63.501 -26.5s-26.5 -38.834 -26.5 -63.501v-403c0 -24.667 8.83301 -45.834 26.5 -63.501s38.834 -26.5 63.501 -26.5h54c24.667 0 45.834 8.83301 63.501 26.5
s26.5 38.834 26.5 63.501z" />
    <glyph glyph-name="Oacute" unicode="&#xd3;" 
d="M334 865l-46 -45.999c-10 -9.33301 -21.667 -14 -35 -14s-24.833 4.83301 -34.5 14.5s-14.5 21.167 -14.5 34.5s4.66699 24.666 14 33.999l46 47c10 9.33301 21.667 14 35 14s24.833 -4.83301 34.5 -14.5s14.5 -21.167 14.5 -34.5s-4.66699 -25 -14 -35zM491 188.001
c0 -52 -18.5 -96.333 -55.5 -133s-81.167 -55 -132.5 -55h-54c-51.333 0 -95.5 18.333 -132.5 55s-55.5 81 -55.5 133v403c0 52 18.5 96.333 55.5 133s81.167 55 132.5 55h54c51.333 0 95.5 -18.333 132.5 -55s55.5 -81 55.5 -133v-403zM393 188.001v403
c0 24.667 -8.83301 45.834 -26.5 63.501s-38.834 26.5 -63.501 26.5h-54c-24.667 0 -45.834 -8.83301 -63.501 -26.5s-26.5 -38.834 -26.5 -63.501v-403c0 -24.667 8.83301 -45.834 26.5 -63.501s38.834 -26.5 63.501 -26.5h54c24.667 0 45.834 8.83301 63.501 26.5
s26.5 38.834 26.5 63.501z" />
    <glyph glyph-name="Ocircumflex" unicode="&#xd4;" 
d="M385 886c9.33301 -10 13.999 -21.667 13.999 -35s-4.83301 -24.833 -14.5 -34.5s-21.167 -14.5 -34.5 -14.5s-25 5 -35 15l-31 31c-5.33301 5.33301 -10.666 5.33301 -15.999 0l-31 -31c-10 -10 -21.667 -15 -35 -15s-24.833 4.83301 -34.5 14.5s-14.5 21.167 -14.5 34.5
s4.66699 25 14 35l74 74c10 9.33301 21.667 14 35 14s25 -4.66699 35 -14zM490.999 188c0 -52 -18.5 -96.333 -55.5 -133s-81.167 -55 -132.5 -55h-54c-51.333 -0 -95.5 18.333 -132.5 55s-55.5 81 -55.5 133v403c0 52 18.5 96.333 55.5 133s81.167 55 132.5 55h54
c51.333 0 95.5 -18.333 132.5 -55s55.5 -81 55.5 -133v-403zM392.999 188v403c0 24.667 -8.83301 45.834 -26.5 63.501s-38.834 26.5 -63.501 26.5h-54c-24.667 0 -45.834 -8.83301 -63.501 -26.5s-26.5 -38.834 -26.5 -63.501v-403c0 -24.667 8.83301 -45.834 26.5 -63.501
s38.834 -26.5 63.501 -26.5h54c24.667 0 45.834 8.83301 63.501 26.5s26.5 38.834 26.5 63.501z" />
    <glyph glyph-name="Otilde" unicode="&#xd5;" 
d="M417 866l-34.999 -34c-14 -14.667 -31.333 -22 -52 -22c-10 0 -19.333 2 -28 6l-64 27c-7.33301 3.33301 -13.333 2.33301 -18 -3l-16 -15c-9.33301 -10 -20.666 -15 -33.999 -15s-24.833 4.83301 -34.5 14.5s-14.5 21.167 -14.5 34.5c0 14 4.66699 25.667 14 35l35 35
c14 14 31.333 21 52 21c9.33301 0 18.666 -2 27.999 -6l64 -27c7.33301 -2.66699 13.333 -1.66699 18 3l16 16c9.33301 9.33301 20.666 14 33.999 14s24.833 -4.83301 34.5 -14.5s14.5 -21.167 14.5 -34.5s-4.66699 -25 -14 -35zM491.001 188
c0 -52 -18.5 -96.333 -55.5 -133s-81.167 -55 -132.5 -55h-54c-51.333 -0 -95.5 18.333 -132.5 55s-55.5 81 -55.5 133v403c0 52 18.5 96.333 55.5 133s81.167 55 132.5 55h54c51.333 0 95.5 -18.333 132.5 -55s55.5 -81 55.5 -133v-403zM393.001 188v403
c0 24.667 -8.83301 45.834 -26.5 63.501s-38.834 26.5 -63.501 26.5h-54c-24.667 0 -45.834 -8.83301 -63.501 -26.5s-26.5 -38.834 -26.5 -63.501v-403c0 -24.667 8.83301 -45.834 26.5 -63.501s38.834 -26.5 63.501 -26.5h54c24.667 0 45.834 8.83301 63.501 26.5
s26.5 38.834 26.5 63.501z" />
    <glyph glyph-name="Odieresis" unicode="&#xd6;" 
d="M403 853c0 -13.333 -4.83301 -24.833 -14.5 -34.5s-21.167 -14.5 -34.5 -14.5s-24.666 4.83301 -33.999 14.5s-14 21.167 -14 34.5s4.66699 24.666 14 33.999s20.666 14 33.999 14s24.833 -4.66699 34.5 -14s14.5 -20.666 14.5 -33.999zM246 853
c0 -13.333 -4.66699 -24.833 -14 -34.5s-20.666 -14.5 -33.999 -14.5s-24.833 4.83301 -34.5 14.5s-14.5 21.167 -14.5 34.5s4.83301 24.666 14.5 33.999s21.167 14 34.5 14s24.666 -4.66699 33.999 -14s14 -20.666 14 -33.999zM491 188c0 -52 -18.5 -96.333 -55.5 -133
s-81.167 -55 -132.5 -55h-54c-51.333 -0 -95.5 18.333 -132.5 55s-55.5 81 -55.5 133v403c0 52 18.5 96.333 55.5 133s81.167 55 132.5 55h54c51.333 0 95.5 -18.333 132.5 -55s55.5 -81 55.5 -133v-403zM393 188v403c0 24.667 -8.83301 45.834 -26.5 63.501
s-38.834 26.5 -63.501 26.5h-54c-24.667 0 -45.834 -8.83301 -63.501 -26.5s-26.5 -38.834 -26.5 -63.501v-403c0 -24.667 8.83301 -45.834 26.5 -63.501s38.834 -26.5 63.501 -26.5h54c24.667 0 45.834 8.83301 63.501 26.5s26.5 38.834 26.5 63.501z" />
    <glyph glyph-name="multiply" unicode="&#xd7;" horiz-adv-x="396" 
d="M321 343l-50 -49c-2.66699 -2.66699 -2.66699 -5.33398 0 -8.00098l50 -49c9.33301 -10 14 -21.667 14 -35c0 -14 -4.83301 -25.667 -14.5 -35s-21.167 -14 -34.5 -14s-25 4.66699 -35 14l-49 49c-2.66699 2.66699 -5.33398 2.66699 -8.00098 0l-49 -49
c-10 -9.33301 -21.667 -14 -35 -14c-14 0 -25.667 4.66699 -35 14s-14 21 -14 35c0 13.333 4.66699 25 14 35l49 49c2.66699 2.66699 2.66699 5.33398 0 8.00098l-49 49c-9.33301 10 -14 21.667 -14 35s4.66699 24.833 14 34.5s21 14.5 35 14.5c13.333 0 25 -4.66699 35 -14
l49 -50c2.66699 -2 5.33398 -2 8.00098 0l49 50c10 9.33301 21.667 14 35 14c14 0 25.667 -4.66699 35 -14s14 -21 14 -35c0 -13.333 -4.66699 -25 -14 -35z" />
    <glyph glyph-name="Oslash" unicode="&#xd8;" horiz-adv-x="561" 
d="M499 775l-32 -75c-2 -3.33301 -2 -6.66602 0 -9.99902c19.333 -30.667 29 -64 29 -100v-406c0 -52 -18.333 -96.333 -55 -133s-81 -55 -133 -55h-55c-24.667 0 -49 5 -73 15c-3.33301 1.33301 -5.66602 0.333008 -6.99902 -3l-20 -47c-8.66699 -20 -23.667 -30 -45 -30
c-14 0 -25.833 4.66699 -35.5 14s-14.5 21 -14.5 35c0 6.66699 1.33301 13 4 19l32 76c2 3.33301 2 6.33301 0 9c-19.333 30.667 -29 64 -29 100v406c0 52 18.333 96.5 55 133.5s81 55.5 133 55.5h55c24.667 0 49 -5 73 -15c3.33301 -2 5.66602 -1.33301 6.99902 2l20 48
c8.66699 20 23.667 30 45 30c14 0 25.833 -4.83301 35.5 -14.5s14.5 -21.167 14.5 -34.5c0 -6.66699 -1.33301 -13.334 -4 -20.001zM345 665c1.33301 4 0.333008 6.66895 -3 8.00195c-11.333 4.66699 -22.666 7 -33.999 7h-55c-24.667 0 -45.834 -8.83301 -63.501 -26.5
s-26.5 -38.834 -26.5 -63.501v-342c0 -1.33301 0.666992 -2 2 -2c1.33301 -0.666992 2.33301 -0.333984 3 0.999023zM398 184.002v342.998c0 0.666992 -0.666992 1.33398 -2 2.00098c-1.33301 0 -2.33301 -0.666992 -3 -2l-177 -418c-1.33301 -3.33301 -0.333008 -6 3 -8
c11.333 -4.66699 22.666 -7 33.999 -7h55c24.667 0 45.834 8.83301 63.501 26.5s26.5 38.834 26.5 63.501z" />
    <glyph glyph-name="Ugrave" unicode="&#xd9;" 
d="M299 805c-13.333 0 -25 4.66602 -35 13.999l-46 46c-9.33301 10 -14 21.667 -14 35s4.83301 24.833 14.5 34.5s21.167 14.5 34.5 14.5s25 -4.66699 35 -14l46 -47c9.33301 -9.33301 14 -20.666 14 -33.999s-4.83301 -24.833 -14.5 -34.5s-21.167 -14.5 -34.5 -14.5z
M491 187.999c0 -52 -18.502 -96.333 -55.502 -133s-81.167 -55 -132.5 -55h-54c-51.333 0 -95.5 18.333 -132.5 55s-55.5 81 -55.5 133v539c0 13.333 4.83301 24.833 14.5 34.5s21.167 14.5 34.5 14.5c14 0 25.667 -4.83301 35 -14.5s14 -21.167 14 -34.5v-539
c0 -24.667 8.83301 -45.834 26.5 -63.501s38.834 -26.5 63.501 -26.5h54c24.667 0 45.834 8.83301 63.501 26.5s26.5 38.834 26.5 63.501v539c0 13.333 4.66699 24.833 14 34.5s21 14.5 35 14.5c13.333 0 24.833 -4.83301 34.5 -14.5s14.5 -21.167 14.5 -34.5v-539z" />
    <glyph glyph-name="Uacute" unicode="&#xda;" 
d="M334 865l-46 -45.999c-10 -9.33301 -21.667 -14 -35 -14s-24.833 4.83301 -34.5 14.5s-14.5 21.167 -14.5 34.5s4.66699 24.666 14 33.999l46 47c10 9.33301 21.667 14 35 14s24.833 -4.83301 34.5 -14.5s14.5 -21.167 14.5 -34.5s-4.66699 -25 -14 -35zM491 188.001
c0 -52 -18.335 -96.333 -55.002 -133s-81 -55 -133 -55h-54c-51.333 0 -95.5 18.333 -132.5 55s-55.5 81 -55.5 133v539c0 13.333 4.83301 24.833 14.5 34.5s21.167 14.5 34.5 14.5c14 0 25.667 -4.83301 35 -14.5s14 -21.167 14 -34.5v-539
c0 -24.667 8.83301 -45.834 26.5 -63.501s38.834 -26.5 63.501 -26.5h54c24.667 0 45.834 8.83301 63.501 26.5s26.5 38.834 26.5 63.501v539c0 13.333 4.66699 24.833 14 34.5s21 14.5 35 14.5c13.333 0 24.833 -4.83301 34.5 -14.5s14.5 -21.167 14.5 -34.5v-539z" />
    <glyph glyph-name="Ucircumflex" unicode="&#xdb;" 
d="M385 886c9.33301 -10 13.999 -21.667 13.999 -35s-4.83301 -24.833 -14.5 -34.5s-21.167 -14.5 -34.5 -14.5s-25 5 -35 15l-31 31c-5.33301 5.33301 -10.666 5.33301 -15.999 0l-31 -31c-10 -10 -21.667 -15 -35 -15s-24.833 4.83301 -34.5 14.5s-14.5 21.167 -14.5 34.5
s4.66699 25 14 35l74 74c10 9.33301 21.667 14 35 14s25 -4.66699 35 -14zM490.999 188c0 -52 -18.502 -96.333 -55.502 -133s-81.167 -55 -132.5 -55h-54c-51.333 -0 -95.5 18.333 -132.5 55s-55.5 81 -55.5 133v539c0 13.333 4.83301 24.833 14.5 34.5
s21.167 14.5 34.5 14.5c14 0 25.667 -4.83301 35 -14.5s14 -21.167 14 -34.5v-539c0 -24.667 8.83301 -45.834 26.5 -63.501s38.834 -26.5 63.501 -26.5h54c24.667 0 45.834 8.83301 63.501 26.5s26.5 38.834 26.5 63.501v539c0 13.333 4.66699 24.833 14 34.5
s21 14.5 35 14.5c13.333 0 24.833 -4.83301 34.5 -14.5s14.5 -21.167 14.5 -34.5v-539z" />
    <glyph glyph-name="Udieresis" unicode="&#xdc;" 
d="M403 853c0 -13.333 -4.83301 -24.833 -14.5 -34.5s-21.167 -14.5 -34.5 -14.5s-24.666 4.83301 -33.999 14.5s-14 21.167 -14 34.5s4.66699 24.666 14 33.999s20.666 14 33.999 14s24.833 -4.66699 34.5 -14s14.5 -20.666 14.5 -33.999zM246 853
c0 -13.333 -4.66699 -24.833 -14 -34.5s-20.666 -14.5 -33.999 -14.5s-24.833 4.83301 -34.5 14.5s-14.5 21.167 -14.5 34.5s4.83301 24.666 14.5 33.999s21.167 14 34.5 14s24.666 -4.66699 33.999 -14s14 -20.666 14 -33.999zM491 188c0 -52 -18.502 -96.333 -55.502 -133
s-81.167 -55 -132.5 -55h-54c-51.333 -0 -95.5 18.333 -132.5 55s-55.5 81 -55.5 133v539c0 13.333 4.83301 24.833 14.5 34.5s21.167 14.5 34.5 14.5c14 0 25.667 -4.83301 35 -14.5s14 -21.167 14 -34.5v-539c0 -24.667 8.83301 -45.834 26.5 -63.501
s38.834 -26.5 63.501 -26.5h54c24.667 0 45.834 8.83301 63.501 26.5s26.5 38.834 26.5 63.501v539c0 13.333 4.66699 24.833 14 34.5s21 14.5 35 14.5c13.333 0 24.833 -4.83301 34.5 -14.5s14.5 -21.167 14.5 -34.5v-539z" />
    <glyph glyph-name="Yacute" unicode="&#xdd;" horiz-adv-x="546" 
d="M331 865l-46 -46c-10 -10 -21.667 -15 -35 -15s-24.833 4.83301 -34.5 14.5s-14.5 21.167 -14.5 34.5c0 14 4.66699 25.667 14 35l46 46c10 10 21.667 15 35 15s24.833 -4.83301 34.5 -14.5s14.5 -21.167 14.5 -34.5c0 -14 -4.66699 -25.667 -14 -35zM483 705
l-159.001 -325c-1.33301 -2 -2 -4.33301 -2 -7v-324c0 -13.333 -4.83301 -24.833 -14.5 -34.5s-21.167 -14.5 -34.5 -14.5s-24.833 4.83301 -34.5 14.5s-14.5 21.167 -14.5 34.5v324c0 2.66699 -0.333008 4.66699 -1 6l-160 326c-3.33301 6.66699 -5 13.667 -5 21
c0 14 4.83301 25.833 14.5 35.5s21.167 14.5 34.5 14.5c20.667 0 35.334 -9.33301 44.001 -28l120 -244c1.33301 -3.33301 2.66602 -3.33301 3.99902 0l120 244c8.66699 18.667 23.334 28 44.001 28c13.333 0 24.833 -4.83301 34.5 -14.5s14.5 -21.5 14.5 -35.5
c0 -7.33301 -1.66699 -14.333 -5 -21z" />
    <glyph glyph-name="Thorn" unicode="&#xde;" horiz-adv-x="479" 
d="M419 293c0 -52 -18.5 -96.333 -55.5 -133s-81.5 -55 -133.5 -55h-60c-7.33301 0 -11 -3.66699 -11 -11v-46c0 -14 -4.83301 -25.667 -14.5 -35s-21.5 -14 -35.5 -14c-13.333 0 -24.833 4.66699 -34.5 14s-14.5 21 -14.5 35v679c0 13.333 4.83301 24.833 14.5 34.5
s21.167 14.5 34.5 14.5c14 0 25.833 -4.83301 35.5 -14.5s14.5 -21.167 14.5 -34.5v-46c0 -7.33301 3.66699 -11 11 -11h60c52 0 96.5 -18.5 133.5 -55.5s55.5 -81.5 55.5 -133.5v-188zM320 293v187.998c0 24.667 -8.66699 45.834 -26 63.501s-38.666 26.5 -63.999 26.5h-66
c-3.33301 0 -5 -1.66699 -5 -5v-357c0 -4 1.66699 -6 5 -6h66c25.333 0 46.666 8.83301 63.999 26.5s26 38.834 26 63.501z" />
    <glyph glyph-name="germandbls" unicode="&#xdf;" horiz-adv-x="607" 
d="M547 150c0 -42 -14.833 -77.835 -44.5 -107.502s-65.5 -44.5 -107.5 -44.5h-162c-13.333 0 -24.833 4.83301 -34.5 14.5s-14.5 21.167 -14.5 34.5c0 14 4.83301 25.833 14.5 35.5s21.167 14.5 34.5 14.5h162c14.667 0 27.334 5.16699 38.001 15.5s16 22.833 16 37.5v151
c0 20 -5.83301 38 -17.5 54s-27.167 27 -46.5 33l-67 22c-21.333 6.66699 -38.166 19 -50.499 37s-18.166 38.333 -17.499 61c1.33301 22 8.83301 41.5 22.5 58.5s31.5 27.833 53.5 32.5c20 4.66699 30 17.334 30 38.001c0 10.667 -3.83301 19.834 -11.5 27.501
s-16.834 11.5 -27.501 11.5h-105c-14.667 0 -27.334 -5.16699 -38.001 -15.5s-16 -22.833 -16 -37.5v-575c0 -14 -4.66699 -25.667 -14 -35s-21 -14 -35 -14c-13.333 0 -24.833 4.66699 -34.5 14s-14.5 21 -14.5 35v575c0 41.333 14.833 76.833 44.5 106.5
s65.5 44.5 107.5 44.5h105c38 0 70.333 -13.333 97 -40s40 -59 40 -97c0 -29.333 -8.33301 -55.833 -25 -79.5s-39 -40.167 -67 -49.5c-2 -0.666992 -3 -2.33398 -3 -5.00098c0 -2 1.33301 -3.33301 4 -4l52 -17c39.333 -12.667 71.166 -35.667 95.499 -69
s36.5 -70.666 36.5 -111.999v-151z" />
    <glyph glyph-name="agrave" unicode="&#xe0;" horiz-adv-x="502" 
d="M274 614c-13.333 0 -25 4.66602 -35 13.999l-46 46c-9.33301 10 -14 21.667 -14 35s4.83301 24.833 14.5 34.5s21.167 14.5 34.5 14.5s25 -4.66699 35 -14l46 -47c9.33301 -9.33301 14 -20.666 14 -33.999c0 -14 -4.83301 -25.667 -14.5 -35s-21.167 -14 -34.5 -14z
M441 187.999c0 -52 -18.332 -96.3311 -54.999 -132.998s-81 -55 -133 -55h-4c-52 0 -96.333 18.333 -133 55s-55 81 -55 133v29c0 52 18.333 96.5 55 133.5s81 55.5 133 55.5h4c30 0 58.333 -7 85 -21c3.33301 -1.33301 5 -0.333008 5 3v3
c0 25.333 -8.83301 46.666 -26.5 63.999s-38.834 26 -63.501 26h-4c-24.667 0 -45.667 -8.66699 -63 -26c-10 -9.33301 -21.667 -14 -35 -14c-14 0 -25.667 4.66699 -35 14s-14 21 -14 35c0 13.333 4.66699 24.666 14 33.999c36.667 37.333 81 56 133 56h4
c52 0 96.333 -18.5 133 -55.5s55 -81.5 55 -133.5v-203zM343.001 188.001v29c0 25.333 -8.83301 46.666 -26.5 63.999s-38.834 26 -63.501 26h-4c-24.667 0 -45.834 -8.66699 -63.501 -26s-26.5 -38.666 -26.5 -63.999v-29c0 -24.667 8.83301 -45.834 26.5 -63.501
s38.834 -26.5 63.501 -26.5h4c24.667 0 45.834 8.83301 63.501 26.5s26.5 38.834 26.5 63.501z" />
    <glyph glyph-name="aacute" unicode="&#xe1;" horiz-adv-x="502" 
d="M309 674l-46 -45.999c-10 -9.33301 -21.667 -14 -35 -14s-24.833 4.66699 -34.5 14s-14.5 21 -14.5 35c0 13.333 4.66699 24.666 14 33.999l46 47c10 9.33301 21.667 14 35 14s24.833 -4.83301 34.5 -14.5s14.5 -21.167 14.5 -34.5s-4.66699 -25 -14 -35zM441 188.001
c0 -52 -18.332 -96.3311 -54.999 -132.998s-81 -55 -133 -55h-4c-52 0 -96.333 18.333 -133 55s-55 81 -55 133v29c0 52 18.333 96.5 55 133.5s81 55.5 133 55.5h4c30 0 58.333 -7 85 -21c3.33301 -1.33301 5 -0.333008 5 3v3c0 25.333 -8.83301 46.666 -26.5 63.999
s-38.834 26 -63.501 26h-4c-24.667 0 -45.667 -8.66699 -63 -26c-10 -9.33301 -21.667 -14 -35 -14c-14 0 -25.667 4.66699 -35 14s-14 21 -14 35c0 13.333 4.66699 24.666 14 33.999c36.667 37.333 81 56 133 56h4c52 0 96.333 -18.5 133 -55.5s55 -81.5 55 -133.5v-203z
M343.001 188.003v29c0 25.333 -8.83301 46.666 -26.5 63.999s-38.834 26 -63.501 26h-4c-24.667 0 -45.834 -8.66699 -63.501 -26s-26.5 -38.666 -26.5 -63.999v-29c0 -24.667 8.83301 -45.834 26.5 -63.501s38.834 -26.5 63.501 -26.5h4
c24.667 0 45.834 8.83301 63.501 26.5s26.5 38.834 26.5 63.501z" />
    <glyph glyph-name="acircumflex" unicode="&#xe2;" horiz-adv-x="502" 
d="M360 695c9.33301 -10 13.9971 -21.667 13.9971 -35s-4.66699 -24.833 -14 -34.5s-21 -14.5 -35 -14.5c-13.333 0 -24.666 4.66699 -33.999 14l-32 32c-5.33301 5.33301 -10.666 5.33301 -15.999 0l-32 -32c-9.33301 -9.33301 -20.666 -14 -33.999 -14
c-14 0 -25.667 4.83301 -35 14.5s-14 21.167 -14 34.5s4.66699 25 14 35l74 74c10 9.33301 21.667 14 35 14s25 -4.66699 35 -14zM440.997 188c0 -52 -18.332 -96.3311 -54.999 -132.998s-81 -55 -133 -55h-4c-52 0 -96.333 18.333 -133 55s-55 81 -55 133v29
c0 52 18.333 96.5 55 133.5s81 55.5 133 55.5h4c30 0 58.333 -7 85 -21c3.33301 -1.33301 5 -0.333008 5 3v3c0 25.333 -8.83301 46.666 -26.5 63.999s-38.834 26 -63.501 26h-4c-24.667 0 -45.667 -8.66699 -63 -26c-10 -9.33301 -21.667 -14 -35 -14
c-14 0 -25.667 4.66699 -35 14s-14 21 -14 35c0 13.333 4.66699 24.666 14 33.999c36.667 37.333 81 56 133 56h4c52 0 96.333 -18.5 133 -55.5s55 -81.5 55 -133.5v-203zM342.998 188.002v29c0 25.333 -8.83301 46.666 -26.5 63.999s-38.834 26 -63.501 26h-4
c-24.667 0 -45.834 -8.66699 -63.501 -26s-26.5 -38.666 -26.5 -63.999v-29c0 -24.667 8.83301 -45.834 26.5 -63.501s38.834 -26.5 63.501 -26.5h4c24.667 0 45.834 8.83301 63.501 26.5s26.5 38.834 26.5 63.501z" />
    <glyph glyph-name="atilde" unicode="&#xe3;" horiz-adv-x="502" 
d="M392 672l-34 -34.001c-14.667 -14.667 -32.334 -22 -53.001 -22c-9.33301 0 -18.666 2 -27.999 6l-65 27c-6.66699 2.66699 -12.667 1.33398 -18 -3.99902l-15 -15c-9.33301 -9.33301 -21 -14 -35 -14c-13.333 0 -24.833 4.83301 -34.5 14.5s-14.5 21.167 -14.5 34.5
s5 25 15 35l35 34c14 14.667 31 22 51 22c10 0 19.667 -2 29 -6l65 -27c6.66699 -3.33301 12.667 -2.33301 18 3l15 15c9.33301 10 21 15 35 15c13.333 0 24.833 -4.83301 34.5 -14.5s14.5 -21.167 14.5 -34.5c0 -14 -5 -25.667 -15 -35zM441 187.999
c0 -52 -18.332 -96.3311 -54.999 -132.998s-81 -55 -133 -55h-4c-52 0 -96.333 18.333 -133 55s-55 81 -55 133v29c0 52 18.333 96.5 55 133.5s81 55.5 133 55.5h4c30 0 58.333 -7 85 -21c3.33301 -1.33301 5 -0.333008 5 3v3c0 25.333 -8.83301 46.666 -26.5 63.999
s-38.834 26 -63.501 26h-4c-24.667 0 -45.667 -8.66699 -63 -26c-10 -9.33301 -21.667 -14 -35 -14c-14 0 -25.667 4.66699 -35 14s-14 21 -14 35c0 13.333 4.66699 24.666 14 33.999c36.667 37.333 81 56 133 56h4c52 0 96.333 -18.5 133 -55.5s55 -81.5 55 -133.5v-203z
M343.001 188.001v29c0 25.333 -8.83301 46.666 -26.5 63.999s-38.834 26 -63.501 26h-4c-24.667 0 -45.834 -8.66699 -63.501 -26s-26.5 -38.666 -26.5 -63.999v-29c0 -24.667 8.83301 -45.834 26.5 -63.501s38.834 -26.5 63.501 -26.5h4
c24.667 0 45.834 8.83301 63.501 26.5s26.5 38.834 26.5 63.501z" />
    <glyph glyph-name="adieresis" unicode="&#xe4;" horiz-adv-x="502" 
d="M379 662c0 -13.333 -4.83301 -24.666 -14.5 -33.999s-21.167 -14 -34.5 -14s-24.833 4.66699 -34.5 14s-14.5 20.666 -14.5 33.999s4.83301 24.833 14.5 34.5s21.167 14.5 34.5 14.5s24.833 -4.83301 34.5 -14.5s14.5 -21.167 14.5 -34.5zM221 662
c0 -13.333 -4.66699 -24.666 -14 -33.999s-20.666 -14 -33.999 -14s-24.833 4.66699 -34.5 14s-14.5 20.666 -14.5 33.999s4.83301 24.833 14.5 34.5s21.167 14.5 34.5 14.5s24.666 -4.83301 33.999 -14.5s14 -21.167 14 -34.5zM441 188
c0 -52 -18.332 -96.3311 -54.999 -132.998s-81 -55 -133 -55h-4c-52 0 -96.333 18.333 -133 55s-55 81 -55 133v29c0 52 18.333 96.5 55 133.5s81 55.5 133 55.5h4c30 0 58.333 -7 85 -21c3.33301 -1.33301 5 -0.333008 5 3v3c0 25.333 -8.83301 46.666 -26.5 63.999
s-38.834 26 -63.501 26h-4c-24.667 0 -45.667 -8.66699 -63 -26c-10 -9.33301 -21.667 -14 -35 -14c-14 0 -25.667 4.66699 -35 14s-14 21 -14 35c0 13.333 4.66699 24.666 14 33.999c36.667 37.333 81 56 133 56h4c52 0 96.333 -18.5 133 -55.5s55 -81.5 55 -133.5v-203z
M343.001 188.002v29c0 25.333 -8.83301 46.666 -26.5 63.999s-38.834 26 -63.501 26h-4c-24.667 0 -45.834 -8.66699 -63.501 -26s-26.5 -38.666 -26.5 -63.999v-29c0 -24.667 8.83301 -45.834 26.5 -63.501s38.834 -26.5 63.501 -26.5h4
c24.667 0 45.834 8.83301 63.501 26.5s26.5 38.834 26.5 63.501z" />
    <glyph glyph-name="aring" unicode="&#xe5;" horiz-adv-x="502" 
d="M347 714c0 -26.667 -9.33301 -49.334 -28 -68.001s-41.334 -28 -68.001 -28s-49.334 9.33301 -68.001 28s-28 41.334 -28 68.001c0 26 9.33301 48.5 28 67.5s41.334 28.5 68.001 28.5s49.334 -9.5 68.001 -28.5s28 -41.5 28 -67.5zM441 188
c0 -52 -18.332 -96.3311 -54.999 -132.998s-81 -55 -133 -55h-4c-52 0 -96.333 18.333 -133 55s-55 81 -55 133v29c0 52 18.333 96.5 55 133.5s81 55.5 133 55.5h4c30 0 58.333 -7 85 -21c3.33301 -1.33301 5 -0.333008 5 3v3c0 25.333 -8.83301 46.666 -26.5 63.999
s-38.834 26 -63.501 26h-4c-24.667 0 -45.667 -8.66699 -63 -26c-10 -9.33301 -21.667 -14 -35 -14c-14 0 -25.667 4.66699 -35 14s-14 21 -14 35c0 13.333 4.66699 24.666 14 33.999c36.667 37.333 81 56 133 56h4c52 0 96.333 -18.5 133 -55.5s55 -81.5 55 -133.5v-203z
M269.001 714.002c0 11.333 -6 17 -18 17s-18 -5.66699 -18 -17c0 -12 6 -18 18 -18s18 6 18 18zM343.001 188.002v29c0 25.333 -8.83301 46.666 -26.5 63.999s-38.834 26 -63.501 26h-4c-24.667 0 -45.834 -8.66699 -63.501 -26s-26.5 -38.666 -26.5 -63.999v-29
c0 -24.667 8.83301 -45.834 26.5 -63.501s38.834 -26.5 63.501 -26.5h4c24.667 0 45.834 8.83301 63.501 26.5s26.5 38.834 26.5 63.501z" />
    <glyph glyph-name="ae" unicode="&#xe6;" horiz-adv-x="785" 
d="M724 289c0 -13.333 -4.83301 -24.8301 -14.5 -34.4971s-21.167 -14.5 -34.5 -14.5h-221c-8 0 -12 -4 -12 -12v-40v-3v-4c0.666992 -24 9.66699 -44.333 27 -61s38.333 -25 63 -25h3c36 0 62.333 15.667 79 47c9.33301 16.667 24 25 44 25
c13.333 0 24.833 -4.66699 34.5 -14s14.5 -21 14.5 -35c0 -8 -2 -15.667 -6 -23c-16.667 -30.667 -39.834 -54.834 -69.501 -72.501s-61.834 -26.5 -96.501 -26.5h-3c-52 0 -96.333 18.333 -133 55c-5.33301 5.33301 -10.666 5.33301 -15.999 0
c-36 -34.667 -79.333 -52 -130 -52h-3c-52 0 -96.5 18.5 -133.5 55.5s-55.5 81.5 -55.5 133.5v29c0 52 18.5 96.333 55.5 133s81.5 55 133.5 55h3c27.333 0 53.333 -5.33301 78 -16c3.33301 -1.33301 6 -1.33301 8 0c2.66699 2 4 4.33301 4 7
c-1.33301 24 -10.666 44.167 -27.999 60.5s-38 24.5 -62 24.5h-3c-25.333 0 -46.666 -8.66699 -63.999 -26c-9.33301 -9.33301 -21 -14 -35 -14c-13.333 0 -24.833 4.66699 -34.5 14s-14.5 21 -14.5 35c0 13.333 4.66699 24.666 14 33.999c37.333 37.333 82 56 134 56h3
c50.667 0 94 -17.667 130 -53c5.33301 -4.66699 10.666 -4.33398 15.999 0.999023c36.667 36 81 54 133 54h3c52 0 96.5 -18.333 133.5 -55s55.5 -81 55.5 -133v-105zM625 344.003l0.000976562 50c0 24.667 -8.83301 45.834 -26.5 63.501s-38.834 26.5 -63.501 26.5h-3
c-24.667 0 -45.667 -8.33301 -63 -25s-26.333 -37.334 -27 -62.001v-3v-3v-41c0 -8 4 -12 12 -12h166c3.33301 0 5 2 5 6zM343.001 182.003c0 -0.666992 0.000976562 0.334961 0.000976562 3.00195v38c0 23.333 -9 43.166 -27 59.499s-39 24.5 -63 24.5h-3
c-24.667 0 -45.834 -8.83301 -63.501 -26.5s-26.5 -38.834 -26.5 -63.501v-29c0 -25.333 8.83301 -46.666 26.5 -63.999s38.834 -26 63.501 -26h3c24 0 44.667 8.16699 62 24.5s26.666 36.166 27.999 59.499z" />
    <glyph glyph-name="ccedilla" unicode="&#xe7;" horiz-adv-x="486" 
d="M419 95c-23.333 -44 -58.999 -73.665 -106.999 -88.998c-6.66699 -2.66699 -10 -7.66699 -10 -15v-47c0 -28.667 -10.333 -53.334 -31 -74.001s-45.334 -31 -74.001 -31h-50c-13.333 0 -24.833 4.83301 -34.5 14.5s-14.5 21.5 -14.5 35.5
c0 13.333 4.83301 24.833 14.5 34.5s21.167 14.5 34.5 14.5h50c4.66699 0 7 2 7 6v46c0 7.33301 -3.66699 12.333 -11 15c-38.667 12 -70.334 34.5 -95.001 67.5s-37 70.167 -37 111.5v209c0 52 18.5 96.5 55.5 133.5s81.167 55.5 132.5 55.5h4
c34.667 0 66.834 -8.83301 96.501 -26.5s52.834 -41.5 69.501 -71.5c4 -7.33301 6 -15.333 6 -24c0 -13.333 -4.83301 -24.833 -14.5 -34.5s-21.167 -14.5 -34.5 -14.5c-20 0 -34.667 8.66699 -44 26c-16.667 31.333 -43 47 -79 47h-4
c-24.667 0 -45.834 -8.83301 -63.501 -26.5s-26.5 -39.167 -26.5 -64.5v-209c0 -24.667 8.83301 -45.834 26.5 -63.501s38.834 -26.5 63.501 -26.5h4c36 0 62.667 16 80 48c9.33301 17.333 23.666 26 42.999 26c13.333 0 24.833 -4.83301 34.5 -14.5s14.5 -21.5 14.5 -35.5
c0 -8 -2 -15.667 -6 -23z" />
    <glyph glyph-name="egrave" unicode="&#xe8;" horiz-adv-x="501" 
d="M274 626c-14 0 -25.667 4.66602 -35 13.999l-46 46c-10 10 -15 21.667 -15 35s4.83301 24.833 14.5 34.5s21.167 14.5 34.5 14.5c14 0 25.667 -4.66699 35 -14l46 -47c10 -9.33301 15 -20.666 15 -33.999c0 -14 -4.83301 -25.667 -14.5 -35s-21.167 -14 -34.5 -14z
M440 290.999c0 -13.333 -4.83301 -24.832 -14.5 -34.499s-21.167 -14.5 -34.5 -14.5h-227c-3.33301 0 -5 -1.66699 -5 -5v-49c0 -24.667 8.83301 -45.834 26.5 -63.501s38.834 -26.5 63.501 -26.5h3c36 0 62.333 15.667 79 47c9.33301 16.667 23.666 25 42.999 25
c13.333 0 24.833 -4.66699 34.5 -14s14.5 -21 14.5 -35c0 -8 -2 -15.667 -6 -23c-16.667 -30 -39.667 -53.833 -69 -71.5s-61.333 -26.5 -96 -26.5h-3c-52 0 -96.333 18.333 -133 55s-55 81 -55 133v208c0 51.333 18.333 95.5 55 132.5s81 55.5 133 55.5h3
c52 0 96.333 -18.5 133 -55.5s55 -81.167 55 -132.5v-105zM342 346l0.00195312 50c0 24.667 -8.83301 45.834 -26.5 63.501s-38.834 26.5 -63.501 26.5h-3c-24.667 0 -45.834 -8.83301 -63.501 -26.5s-26.5 -38.834 -26.5 -63.501v-50c0 -4 1.66699 -6 5 -6h173
c3.33301 0 5 2 5 6z" />
    <glyph glyph-name="eacute" unicode="&#xe9;" horiz-adv-x="502" 
d="M309 686l-46 -45.999c-10 -9.33301 -21.667 -14 -35 -14s-24.833 4.66699 -34.5 14s-14.5 21 -14.5 35c0 13.333 4.66699 24.666 14 33.999l46 47c10 9.33301 21.667 14 35 14s24.833 -4.83301 34.5 -14.5s14.5 -21.167 14.5 -34.5s-4.66699 -25 -14 -35zM441 291.001
c0 -13.333 -4.83105 -24.832 -14.498 -34.499s-21.167 -14.5 -34.5 -14.5h-227c-4 0 -6 -1.66699 -6 -5v-49c0 -24.667 8.83301 -45.834 26.5 -63.501s38.834 -26.5 63.501 -26.5h4c35.333 0 61.666 15.667 78.999 47c9.33301 16.667 23.666 25 42.999 25
c13.333 0 24.833 -4.66699 34.5 -14s14.5 -21 14.5 -35c0 -8 -2 -15.667 -6 -23c-16.667 -30 -39.834 -53.833 -69.501 -71.5s-61.5 -26.5 -95.5 -26.5h-4c-51.333 0 -95.5 18.333 -132.5 55s-55.5 81 -55.5 133v208c0 51.333 18.5 95.5 55.5 132.5s81.167 55.5 132.5 55.5
h4c51.333 0 95.5 -18.5 132.5 -55.5s55.5 -81.167 55.5 -132.5v-105zM343.002 346.002l0.00195312 50c0 24.667 -8.83301 45.834 -26.5 63.501s-38.834 26.5 -63.501 26.5h-4c-24.667 0 -45.834 -8.83301 -63.501 -26.5s-26.5 -38.834 -26.5 -63.501v-50c0 -4 2 -6 6 -6h172
c4 0 6 2 6 6z" />
    <glyph glyph-name="ecircumflex" unicode="&#xea;" horiz-adv-x="501" 
d="M359 707c10 -10 15.001 -21.667 15.001 -35s-4.83301 -24.833 -14.5 -34.5s-21.167 -14.5 -34.5 -14.5c-14 0 -25.667 4.66699 -35 14l-32 32c-5.33301 5.33301 -10.333 5.33301 -15 0l-32 -32c-9.33301 -9.33301 -21 -14 -35 -14c-13.333 0 -24.833 4.83301 -34.5 14.5
s-14.5 21.167 -14.5 34.5s5 25 15 35l74 74c9.33301 9.33301 20.666 14 33.999 14c14 0 25.667 -4.66699 35 -14zM440.001 291c0 -13.333 -4.83301 -24.832 -14.5 -34.499s-21.167 -14.5 -34.5 -14.5h-227c-3.33301 0 -5 -1.66699 -5 -5v-49
c0 -24.667 8.83301 -45.834 26.5 -63.501s38.834 -26.5 63.501 -26.5h3c36 0 62.333 15.667 79 47c9.33301 16.667 23.666 25 42.999 25c13.333 0 24.833 -4.66699 34.5 -14s14.5 -21 14.5 -35c0 -8 -2 -15.667 -6 -23c-16.667 -30 -39.667 -53.833 -69 -71.5
s-61.333 -26.5 -96 -26.5h-3c-52 -0 -96.333 18.333 -133 55s-55 81 -55 133v208c0 51.333 18.333 95.5 55 132.5s81 55.5 133 55.5h3c52 0 96.333 -18.5 133 -55.5s55 -81.167 55 -132.5v-105zM342.001 346.001l0.00195312 50c0 24.667 -8.83301 45.834 -26.5 63.501
s-38.834 26.5 -63.501 26.5h-3c-24.667 0 -45.834 -8.83301 -63.501 -26.5s-26.5 -38.834 -26.5 -63.501v-50c0 -4 1.66699 -6 5 -6h173c3.33301 0 5 2 5 6z" />
    <glyph glyph-name="edieresis" unicode="&#xeb;" horiz-adv-x="501" 
d="M377 663c0 -13.333 -4.66699 -24.666 -14 -33.999s-20.666 -14 -33.999 -14s-24.833 4.66699 -34.5 14s-14.5 20.666 -14.5 33.999s4.83301 24.833 14.5 34.5s21.167 14.5 34.5 14.5s24.666 -4.83301 33.999 -14.5s14 -21.167 14 -34.5zM221 663
c0 -13.333 -4.83301 -24.666 -14.5 -33.999s-21.167 -14 -34.5 -14s-24.666 4.66699 -33.999 14s-14 20.666 -14 33.999s4.66699 24.833 14 34.5s20.666 14.5 33.999 14.5s24.833 -4.83301 34.5 -14.5s14.5 -21.167 14.5 -34.5zM440 291
c0 -13.333 -4.83301 -24.832 -14.5 -34.499s-21.167 -14.5 -34.5 -14.5h-227c-3.33301 0 -5 -1.66699 -5 -5v-49c0 -24.667 8.83301 -45.834 26.5 -63.501s38.834 -26.5 63.501 -26.5h3c36 0 62.333 15.667 79 47c9.33301 16.667 23.666 25 42.999 25
c13.333 0 24.833 -4.66699 34.5 -14s14.5 -21 14.5 -35c0 -8 -2 -15.667 -6 -23c-16.667 -30 -39.667 -53.833 -69 -71.5s-61.333 -26.5 -96 -26.5h-3c-52 -0 -96.333 18.333 -133 55s-55 81 -55 133v208c0 51.333 18.333 95.5 55 132.5s81 55.5 133 55.5h3
c52 0 96.333 -18.5 133 -55.5s55 -81.167 55 -132.5v-105zM342 346.001l0.00195312 50c0 24.667 -8.83301 45.834 -26.5 63.501s-38.834 26.5 -63.501 26.5h-3c-24.667 0 -45.834 -8.83301 -63.501 -26.5s-26.5 -38.834 -26.5 -63.501v-50c0 -4 1.66699 -6 5 -6h173
c3.33301 0 5 2 5 6z" />
    <glyph glyph-name="igrave" unicode="&#xec;" horiz-adv-x="267" 
d="M157 622c-14 0 -25.667 4.66797 -35 14.001l-46 47c-10 9.33301 -15 20.666 -15 33.999c0 14 4.83301 25.833 14.5 35.5s21.167 14.5 34.5 14.5c14 0 25.667 -5 35 -15l46 -46c10 -10 15 -21.667 15 -35s-4.83301 -24.833 -14.5 -34.5s-21.167 -14.5 -34.5 -14.5z
M183 49.001c0 -13.333 -4.83301 -24.833 -14.5 -34.5s-21.167 -14.5 -34.5 -14.5c-14 0 -25.833 4.83301 -35.5 14.5s-14.5 21.167 -14.5 34.5v482c0 13.333 4.83301 24.833 14.5 34.5s21.5 14.5 35.5 14.5c13.333 0 24.833 -4.83301 34.5 -14.5s14.5 -21.167 14.5 -34.5
v-482z" />
    <glyph glyph-name="iacute" unicode="&#xed;" horiz-adv-x="267" 
d="M191 683l-46 -47.001c-9.33301 -9.33301 -21 -14 -35 -14c-13.333 0 -24.833 4.83301 -34.5 14.5s-14.5 21.167 -14.5 34.5s5 25 15 35l46 46c9.33301 10 21 15 35 15c13.333 0 24.833 -4.83301 34.5 -14.5s14.5 -21.5 14.5 -35.5c0 -13.333 -5 -24.666 -15 -33.999z
M183 48.999c0 -13.333 -4.83301 -24.833 -14.5 -34.5s-21.5 -14.5 -35.5 -14.5c-13.333 0 -24.833 4.83301 -34.5 14.5s-14.5 21.167 -14.5 34.5v482c0 13.333 4.83301 24.833 14.5 34.5s21.167 14.5 34.5 14.5c14 0 25.833 -4.83301 35.5 -14.5s14.5 -21.167 14.5 -34.5
v-482z" />
    <glyph glyph-name="icircumflex" unicode="&#xee;" horiz-adv-x="369" 
d="M294 706c9.33301 -10 14.001 -21.667 14.001 -35s-4.83301 -24.833 -14.5 -34.5s-21.167 -14.5 -34.5 -14.5c-14 0 -25.667 4.66699 -35 14l-32 32c-4.66699 5.33301 -9.66699 5.33301 -15 0l-32 -32c-9.33301 -9.33301 -21 -14 -35 -14
c-13.333 0 -24.833 4.83301 -34.5 14.5s-14.5 21.167 -14.5 34.5s4.66699 25 14 35l75 74c9.33301 10 20.666 15 33.999 15c14 0 25.667 -5 35 -15zM234.001 49c0 -13.333 -4.83301 -24.833 -14.5 -34.5s-21.5 -14.5 -35.5 -14.5c-13.333 -0 -24.833 4.83301 -34.5 14.5
s-14.5 21.167 -14.5 34.5v482c0 13.333 4.83301 24.833 14.5 34.5s21.167 14.5 34.5 14.5c14 0 25.833 -4.83301 35.5 -14.5s14.5 -21.167 14.5 -34.5v-482z" />
    <glyph glyph-name="idieresis" unicode="&#xef;" horiz-adv-x="377" 
d="M316 671c0 -13.333 -4.83301 -24.833 -14.5 -34.5s-21.167 -14.5 -34.5 -14.5s-24.833 4.83301 -34.5 14.5s-14.5 21.167 -14.5 34.5s4.83301 24.666 14.5 33.999s21.167 14 34.5 14s24.833 -4.66699 34.5 -14s14.5 -20.666 14.5 -33.999zM159 671
c0 -13.333 -4.83301 -24.833 -14.5 -34.5s-21.167 -14.5 -34.5 -14.5s-24.833 4.83301 -34.5 14.5s-14.5 21.167 -14.5 34.5s4.83301 24.666 14.5 33.999s21.167 14 34.5 14s24.833 -4.66699 34.5 -14s14.5 -20.666 14.5 -33.999zM238 49
c0 -13.333 -4.83301 -24.833 -14.5 -34.5s-21.5 -14.5 -35.5 -14.5c-13.333 -0 -24.833 4.83301 -34.5 14.5s-14.5 21.167 -14.5 34.5v482c0 13.333 4.83301 24.833 14.5 34.5s21.167 14.5 34.5 14.5c14 0 25.833 -4.83301 35.5 -14.5s14.5 -21.167 14.5 -34.5v-482z" />
    <glyph glyph-name="eth" unicode="&#xf0;" horiz-adv-x="508" 
d="M443 188c0 -52 -18.333 -96.499 -55 -133.499s-81 -55.5 -133 -55.5h-4c-52 0 -96.5 18.5 -133.5 55.5s-55.5 81.5 -55.5 133.5v203c0 52 18.5 96.5 55.5 133.5s81.5 55.5 133.5 55.5h4c30 0 58.333 -7 85 -21c3.33301 -1.33301 5 -0.333008 5 3v30
c0 32 -9.33301 61.333 -28 88c-2 2.66699 -4.33301 2.66699 -7 0l-42 -42c-10 -9.33301 -21.667 -14 -35 -14s-24.833 4.83301 -34.5 14.5s-14.5 21.167 -14.5 34.5s4.66699 25 14 35l43 43c1.33301 0.666992 2 2 2 4c0 1.33301 -0.666992 2.66602 -2 3.99902l-39 39
c-9.33301 9.33301 -14 21 -14 35c0 13.333 4.66699 24.833 14 34.5s21 14.5 35 14.5c13.333 0 25 -5 35 -15l39 -39c2.66699 -2.66699 5.33398 -2.66699 8.00098 0l43 43c9.33301 10 20.666 15 33.999 15c14 0 25.833 -4.83301 35.5 -14.5s14.5 -21.5 14.5 -35.5
c0 -13.333 -5 -24.666 -15 -33.999l-43 -44c-2.66699 -2.66699 -3 -5.33398 -1 -8.00098c37.333 -46 56 -98.667 56 -158v-404zM345 188.001v203c0 24.667 -8.83301 45.834 -26.5 63.501s-38.834 26.5 -63.501 26.5h-4c-24.667 0 -45.834 -8.83301 -63.501 -26.5
s-26.5 -38.834 -26.5 -63.501v-203c0 -25.333 8.83301 -46.666 26.5 -63.999s38.834 -26 63.501 -26h4c24.667 0 45.834 8.66699 63.501 26s26.5 38.666 26.5 63.999z" />
    <glyph glyph-name="ntilde" unicode="&#xf1;" horiz-adv-x="503" 
d="M393 672l-35 -35c-14 -14.667 -31.333 -22 -52 -22c-10 0 -19.667 2 -29 6l-64 27c-6.66699 3.33301 -12.667 2.33301 -18 -3l-15 -15c-10 -10 -21.667 -15 -35 -15c-14 0 -25.667 4.83301 -35 14.5s-14 21.167 -14 34.5c0 14 4.66699 25.667 14 35l35 35
c14.667 14 32 21 52 21c10 0 19.667 -1.66699 29 -5l64 -28c6.66699 -2.66699 12.667 -1.33398 18 3.99902l15 15c10 9.33301 21.667 14 35 14c14 0 25.667 -4.66699 35 -14s14 -21 14 -35c0 -13.333 -4.66699 -24.666 -14 -33.999zM442 50
c0 -13.333 -4.83301 -24.833 -14.5 -34.5s-21.167 -14.5 -34.5 -14.5c-14 0 -25.667 4.83301 -35 14.5s-14 21.167 -14 34.5v343c0 24.667 -8.83301 45.834 -26.5 63.501s-39.167 26.5 -64.5 26.5h-3c-25.333 0 -46.833 -8.83301 -64.5 -26.5s-26.5 -38.834 -26.5 -63.501
v-343c0 -13.333 -4.66699 -24.833 -14 -34.5s-21 -14.5 -35 -14.5c-13.333 0 -24.833 4.83301 -34.5 14.5s-14.5 21.167 -14.5 34.5v343c0 52 18.5 96.5 55.5 133.5s81.5 55.5 133.5 55.5h3c52 0 96.5 -18.5 133.5 -55.5s55.5 -81.5 55.5 -133.5v-343z" />
    <glyph glyph-name="ograve" unicode="&#xf2;" horiz-adv-x="501" 
d="M274 615c-14 0 -25.667 4.66602 -35 13.999l-46 46c-10 10 -15 21.667 -15 35s4.83301 24.833 14.5 34.5s21.167 14.5 34.5 14.5c14 0 25.667 -5 35 -15l46 -46c10 -9.33301 15 -20.666 15 -33.999c0 -14 -4.83301 -25.667 -14.5 -35s-21.167 -14 -34.5 -14zM440 187.999
c0 -52 -18.333 -96.333 -55 -133s-81 -55 -133 -55h-3c-52 0 -96.333 18.333 -133 55s-55 81 -55 133v208c0 51.333 18.333 95.5 55 132.5s81 55.5 133 55.5h3c52 0 96.333 -18.5 133 -55.5s55 -81.167 55 -132.5v-208zM342 187.999v208
c0 24.667 -8.83301 45.834 -26.5 63.501s-38.834 26.5 -63.501 26.5h-3c-24.667 0 -45.834 -8.83301 -63.501 -26.5s-26.5 -38.834 -26.5 -63.501v-208c0 -24.667 8.83301 -45.834 26.5 -63.501s38.834 -26.5 63.501 -26.5h3c24.667 0 45.834 8.83301 63.501 26.5
s26.5 38.834 26.5 63.501z" />
    <glyph glyph-name="oacute" unicode="&#xf3;" horiz-adv-x="501" 
d="M308 675l-46 -45.999c-9.33301 -9.33301 -21 -14 -35 -14c-13.333 0 -24.833 4.66699 -34.5 14s-14.5 21 -14.5 35c0 13.333 5 24.666 15 33.999l46 46c9.33301 10 21 15 35 15c13.333 0 24.833 -4.83301 34.5 -14.5s14.5 -21.167 14.5 -34.5s-5 -25 -15 -35z
M440 188.001c0 -52 -18.333 -96.333 -55 -133s-81 -55 -133 -55h-3c-52 0 -96.333 18.333 -133 55s-55 81 -55 133v208c0 51.333 18.333 95.5 55 132.5s81 55.5 133 55.5h3c52 0 96.333 -18.5 133 -55.5s55 -81.167 55 -132.5v-208zM342 188.001v208
c0 24.667 -8.83301 45.834 -26.5 63.501s-38.834 26.5 -63.501 26.5h-3c-24.667 0 -45.834 -8.83301 -63.501 -26.5s-26.5 -38.834 -26.5 -63.501v-208c0 -24.667 8.83301 -45.834 26.5 -63.501s38.834 -26.5 63.501 -26.5h3c24.667 0 45.834 8.83301 63.501 26.5
s26.5 38.834 26.5 63.501z" />
    <glyph glyph-name="ocircumflex" unicode="&#xf4;" horiz-adv-x="501" 
d="M325 612c-14 0 -25.666 4.66699 -34.999 14l-32 32c-5.33301 5.33301 -10.333 5.33301 -15 0l-32 -32c-9.33301 -9.33301 -21 -14 -35 -14c-13.333 0 -24.833 4.83301 -34.5 14.5s-14.5 21.167 -14.5 34.5s5 25 15 35l74 74c9.33301 9.33301 20.666 14 33.999 14
c14 0 25.667 -4.66699 35 -14l74 -74c10 -10 15 -21.667 15 -35s-4.83301 -24.833 -14.5 -34.5s-21.167 -14.5 -34.5 -14.5zM440.001 188c0 -52 -18.333 -96.333 -55 -133s-81 -55 -133 -55h-3c-52 -0 -96.333 18.333 -133 55s-55 81 -55 133v208
c0 51.333 18.333 95.5 55 132.5s81 55.5 133 55.5h3c52 0 96.333 -18.5 133 -55.5s55 -81.167 55 -132.5v-208zM342.001 188v208c0 24.667 -8.83301 45.834 -26.5 63.501s-38.834 26.5 -63.501 26.5h-3c-24.667 0 -45.834 -8.83301 -63.501 -26.5
s-26.5 -38.834 -26.5 -63.501v-208c0 -24.667 8.83301 -45.834 26.5 -63.501s38.834 -26.5 63.501 -26.5h3c24.667 0 45.834 8.83301 63.501 26.5s26.5 38.834 26.5 63.501z" />
    <glyph glyph-name="otilde" unicode="&#xf5;" horiz-adv-x="501" 
d="M391 673l-34 -34c-14.667 -14.667 -32 -22 -52 -22c-10 0 -19.667 2 -29 6l-64 27c-6.66699 2.66699 -12.667 1.33398 -18 -3.99902l-15 -15c-9.33301 -9.33301 -21 -14 -35 -14c-13.333 0 -24.833 4.83301 -34.5 14.5s-14.5 21.167 -14.5 34.5s5 24.666 15 33.999l34 35
c14.667 14.667 32 22 52 22c10 0 19.667 -2 29 -6l64 -27c6.66699 -3.33301 12.667 -2.33301 18 3l15 15c9.33301 10 21 15 35 15c13.333 0 24.833 -4.83301 34.5 -14.5s14.5 -21.167 14.5 -34.5c0 -14 -5 -25.667 -15 -35zM440 188c0 -52 -18.333 -96.333 -55 -133
s-81 -55 -133 -55h-3c-52 -0 -96.333 18.333 -133 55s-55 81 -55 133v208c0 51.333 18.333 95.5 55 132.5s81 55.5 133 55.5h3c52 0 96.333 -18.5 133 -55.5s55 -81.167 55 -132.5v-208zM342 188v208c0 24.667 -8.83301 45.834 -26.5 63.501s-38.834 26.5 -63.501 26.5h-3
c-24.667 0 -45.834 -8.83301 -63.501 -26.5s-26.5 -38.834 -26.5 -63.501v-208c0 -24.667 8.83301 -45.834 26.5 -63.501s38.834 -26.5 63.501 -26.5h3c24.667 0 45.834 8.83301 63.501 26.5s26.5 38.834 26.5 63.501z" />
    <glyph glyph-name="odieresis" unicode="&#xf6;" horiz-adv-x="501" 
d="M377 663c0 -13.333 -4.66699 -24.666 -14 -33.999s-20.666 -14 -33.999 -14s-24.833 4.66699 -34.5 14s-14.5 20.666 -14.5 33.999s4.83301 24.833 14.5 34.5s21.167 14.5 34.5 14.5s24.666 -4.83301 33.999 -14.5s14 -21.167 14 -34.5zM221 663
c0 -13.333 -4.83301 -24.666 -14.5 -33.999s-21.167 -14 -34.5 -14s-24.666 4.66699 -33.999 14s-14 20.666 -14 33.999s4.66699 24.833 14 34.5s20.666 14.5 33.999 14.5s24.833 -4.83301 34.5 -14.5s14.5 -21.167 14.5 -34.5zM440 188c0 -52 -18.333 -96.333 -55 -133
s-81 -55 -133 -55h-3c-52 -0 -96.333 18.333 -133 55s-55 81 -55 133v208c0 51.333 18.333 95.5 55 132.5s81 55.5 133 55.5h3c52 0 96.333 -18.5 133 -55.5s55 -81.167 55 -132.5v-208zM342 188v208c0 24.667 -8.83301 45.834 -26.5 63.501s-38.834 26.5 -63.501 26.5h-3
c-24.667 0 -45.834 -8.83301 -63.501 -26.5s-26.5 -38.834 -26.5 -63.501v-208c0 -24.667 8.83301 -45.834 26.5 -63.501s38.834 -26.5 63.501 -26.5h3c24.667 0 45.834 8.83301 63.501 26.5s26.5 38.834 26.5 63.501z" />
    <glyph glyph-name="divide" unicode="&#xf7;" horiz-adv-x="469" 
d="M293 438c0 -16.667 -5.66699 -30.667 -17 -42s-25 -17 -41 -17c-16.667 0 -30.834 5.66699 -42.501 17s-17.5 25.333 -17.5 42c0 16 5.83301 29.833 17.5 41.5s25.834 17.5 42.501 17.5c16 0 29.667 -5.83301 41 -17.5s17 -25.5 17 -41.5zM408 290
c0 -13.333 -4.66699 -24.833 -14 -34.5s-21 -14.5 -35 -14.5h-249c-14 0 -25.667 4.83301 -35 14.5s-14 21.167 -14 34.5c0 14 4.66699 25.833 14 35.5s21 14.5 35 14.5h249c14 0 25.667 -4.83301 35 -14.5s14 -21.5 14 -35.5zM293 143c0 -16.667 -5.66699 -30.667 -17 -42
s-25 -17 -41 -17c-16.667 0 -30.834 5.66699 -42.501 17s-17.5 25.333 -17.5 42c0 16 5.83301 29.833 17.5 41.5s25.834 17.5 42.501 17.5c16 0 29.667 -5.83301 41 -17.5s17 -25.5 17 -41.5z" />
    <glyph glyph-name="oslash" unicode="&#xf8;" horiz-adv-x="693" 
d="M628 281c0 -78 -27.501 -144.499 -82.501 -199.499s-121.167 -82.5 -198.5 -82.5c-57.333 0 -109.666 16 -156.999 48c-3.33301 2 -6.33301 1.66699 -9 -1l-40 -40c-9.33301 -9.33301 -21 -14 -35 -14c-13.333 0 -24.833 4.83301 -34.5 14.5s-14.5 21.167 -14.5 34.5
s5 25 15 35l40 40c2.66699 2.66699 2.66699 5.33398 0 8.00098c-31.333 47.333 -47 99.666 -47 156.999c0 78 27.5 144.5 82.5 199.5s121.5 82.5 199.5 82.5c56.667 0 108.667 -16 156 -48c3.33301 -2 6.33301 -1.66699 9 1l40 40c9.33301 9.33301 21 14 35 14
c13.333 0 24.833 -4.83301 34.5 -14.5s14.5 -21.167 14.5 -34.5s-5 -25 -15 -35l-40 -40c-2.66699 -2.66699 -2.66699 -5.33398 0 -8.00098c31.333 -48 47 -100.333 47 -157zM529.999 281.001c0 30 -7 58.334 -21 85.001c-2 3.33301 -4.33301 3.66602 -7 0.999023l-242 -242
c-2.66699 -2.66699 -2.33398 -4.66699 0.999023 -6c26.667 -14.667 55.334 -22 86.001 -22c50 0 93 18 129 54s54 79.333 54 130zM432.999 437.002c2.66699 2.66699 2.33301 4.66602 -1 5.99902c-26.667 14.667 -55 22 -85 22c-50.667 0 -94 -18 -130 -54
s-54 -79.333 -54 -130c0 -30 7 -58.333 21 -85c2 -3.33301 4.33301 -3.66602 7 -0.999023z" />
    <glyph glyph-name="ugrave" unicode="&#xf9;" horiz-adv-x="501" 
d="M274 615c-14 0 -25.667 4.66602 -35 13.999l-46 46c-10 10 -15 21.667 -15 35s4.83301 24.833 14.5 34.5s21.167 14.5 34.5 14.5c14 0 25.667 -5 35 -15l46 -46c10 -9.33301 15 -20.666 15 -33.999c0 -14 -4.83301 -25.667 -14.5 -35s-21.167 -14 -34.5 -14zM440 187.999
c0 -52 -18.335 -96.333 -55.002 -133s-81 -55 -133 -55h-3c-52 0 -96.333 18.333 -133 55s-55 81 -55 133v344c0 13.333 4.83301 24.833 14.5 34.5s21.167 14.5 34.5 14.5s24.833 -4.83301 34.5 -14.5s14.5 -21.167 14.5 -34.5v-344c0 -24.667 8.83301 -45.834 26.5 -63.501
s38.834 -26.5 63.501 -26.5h3c24.667 0 45.834 8.83301 63.501 26.5s26.5 38.834 26.5 63.501v344c0 13.333 4.83301 24.833 14.5 34.5s21.167 14.5 34.5 14.5s24.833 -4.83301 34.5 -14.5s14.5 -21.167 14.5 -34.5v-344z" />
    <glyph glyph-name="uacute" unicode="&#xfa;" horiz-adv-x="501" 
d="M308 675l-46 -45.999c-9.33301 -9.33301 -21 -14 -35 -14c-13.333 0 -24.833 4.66699 -34.5 14s-14.5 21 -14.5 35c0 13.333 5 24.666 15 33.999l46 46c9.33301 10 21 15 35 15c13.333 0 24.833 -4.83301 34.5 -14.5s14.5 -21.167 14.5 -34.5s-5 -25 -15 -35z
M440 188.001c0 -52 -18.335 -96.333 -55.002 -133s-81 -55 -133 -55h-3c-52 0 -96.333 18.333 -133 55s-55 81 -55 133v344c0 13.333 4.83301 24.833 14.5 34.5s21.167 14.5 34.5 14.5s24.833 -4.83301 34.5 -14.5s14.5 -21.167 14.5 -34.5v-344
c0 -24.667 8.83301 -45.834 26.5 -63.501s38.834 -26.5 63.501 -26.5h3c24.667 0 45.834 8.83301 63.501 26.5s26.5 38.834 26.5 63.501v344c0 13.333 4.83301 24.833 14.5 34.5s21.167 14.5 34.5 14.5s24.833 -4.83301 34.5 -14.5s14.5 -21.167 14.5 -34.5v-344z" />
    <glyph glyph-name="ucircumflex" unicode="&#xfb;" horiz-adv-x="502" 
d="M325 612c-13.333 0 -25.001 4.66699 -35.001 14l-31 32c-5.33301 5.33301 -10.666 5.33301 -15.999 0l-31 -32c-10 -9.33301 -21.667 -14 -35 -14s-24.833 4.83301 -34.5 14.5s-14.5 21.167 -14.5 34.5s4.66699 25 14 35l74 74c10 9.33301 21.667 14 35 14
s25 -4.66699 35 -14l74 -74c9.33301 -10 14 -21.667 14 -35s-4.83301 -24.833 -14.5 -34.5s-21.167 -14.5 -34.5 -14.5zM440.999 188c0 -52 -18.502 -96.333 -55.502 -133s-81.167 -55 -132.5 -55h-4c-51.333 -0 -95.5 18.333 -132.5 55s-55.5 81 -55.5 133v344
c0 13.333 4.83301 24.833 14.5 34.5s21.167 14.5 34.5 14.5c14 0 25.667 -4.83301 35 -14.5s14 -21.167 14 -34.5v-344c0 -24.667 8.83301 -45.834 26.5 -63.501s38.834 -26.5 63.501 -26.5h4c24.667 0 45.834 8.83301 63.501 26.5s26.5 38.834 26.5 63.501v344
c0 13.333 4.66699 24.833 14 34.5s21 14.5 35 14.5c13.333 0 24.833 -4.83301 34.5 -14.5s14.5 -21.167 14.5 -34.5v-344z" />
    <glyph glyph-name="udieresis" unicode="&#xfc;" horiz-adv-x="501" 
d="M377 663c0 -13.333 -4.66699 -24.666 -14 -33.999s-20.666 -14 -33.999 -14s-24.833 4.66699 -34.5 14s-14.5 20.666 -14.5 33.999s4.83301 24.833 14.5 34.5s21.167 14.5 34.5 14.5s24.666 -4.83301 33.999 -14.5s14 -21.167 14 -34.5zM221 663
c0 -13.333 -4.83301 -24.666 -14.5 -33.999s-21.167 -14 -34.5 -14s-24.666 4.66699 -33.999 14s-14 20.666 -14 33.999s4.66699 24.833 14 34.5s20.666 14.5 33.999 14.5s24.833 -4.83301 34.5 -14.5s14.5 -21.167 14.5 -34.5zM440 188c0 -52 -18.335 -96.333 -55.002 -133
s-81 -55 -133 -55h-3c-52 -0 -96.333 18.333 -133 55s-55 81 -55 133v344c0 13.333 4.83301 24.833 14.5 34.5s21.167 14.5 34.5 14.5s24.833 -4.83301 34.5 -14.5s14.5 -21.167 14.5 -34.5v-344c0 -24.667 8.83301 -45.834 26.5 -63.501s38.834 -26.5 63.501 -26.5h3
c24.667 0 45.834 8.83301 63.501 26.5s26.5 38.834 26.5 63.501v344c0 13.333 4.83301 24.833 14.5 34.5s21.167 14.5 34.5 14.5s24.833 -4.83301 34.5 -14.5s14.5 -21.167 14.5 -34.5v-344z" />
    <glyph glyph-name="yacute" unicode="&#xfd;" horiz-adv-x="500" 
d="M308 669l-46 -46c-10 -10 -21.667 -15 -35 -15c-14 0 -25.667 4.83301 -35 14.5s-14 21.167 -14 34.5c0 14 4.66699 25.667 14 35l46 47c10 9.33301 21.667 14 35 14c14 0 25.667 -4.83301 35 -14.5s14 -21.167 14 -34.5c0 -14 -4.66699 -25.667 -14 -35zM438 517
l-170.002 -583.001c-9.33301 -32 -28.333 -61.333 -57 -88c-30.667 -28.667 -61.667 -43 -93 -43c-13.333 0 -24.833 4.83301 -34.5 14.5s-14.5 21.167 -14.5 34.5c0 26 12.667 42 38 48c34.667 8 56.667 28.667 66 62l25 83c0.666992 2.66699 0.666992 5.33398 0 8.00098
l-136 464c-1.33301 4.66699 -2 9.33398 -2 14.001c0 13.333 4.83301 24.833 14.5 34.5s21.167 14.5 34.5 14.5c24.667 0 40.334 -11.667 47.001 -35l92 -314c0 -1.33301 0.666992 -2 2 -2s2 0.666992 2 2l92 314c6.66699 23.333 22.334 35 47.001 35
c13.333 0 24.833 -4.83301 34.5 -14.5s14.5 -21.167 14.5 -34.5c0 -4.66699 -0.666992 -9.33398 -2 -14.001z" />
    <glyph glyph-name="thorn" unicode="&#xfe;" horiz-adv-x="501" 
d="M441 283c0 -52 -18.5 -96.5 -55.5 -133.5s-81.5 -55.5 -133.5 -55.5h-3c-28.667 0 -55.667 6 -81 18c-6.66699 3.33301 -10 1.33301 -10 -6v-58c0 -14 -4.66699 -25.667 -14 -35s-21 -14 -35 -14c-13.333 0 -24.833 4.66699 -34.5 14s-14.5 21 -14.5 35v679
c0 13.333 4.83301 24.833 14.5 34.5s21.167 14.5 34.5 14.5c14 0 25.667 -4.83301 35 -14.5s14 -21.167 14 -34.5v-59c0 -6.66699 3.33301 -8.66699 10 -6c25.333 12 52.333 18 81 18h3c52 0 96.5 -18.333 133.5 -55s55.5 -81 55.5 -133v-209zM343 283v209
c0 24.667 -8.83301 45.834 -26.5 63.501s-39.167 26.5 -64.5 26.5h-3c-25.333 0 -46.833 -8.83301 -64.5 -26.5s-26.5 -38.834 -26.5 -63.501v-209c0 -25.333 8.83301 -46.833 26.5 -64.5s39.167 -26.5 64.5 -26.5h3c25.333 0 46.833 8.83301 64.5 26.5
s26.5 39.167 26.5 64.5z" />
    <glyph glyph-name="ydieresis" unicode="&#xff;" horiz-adv-x="501" 
d="M378 657c0 -14 -4.83301 -25.667 -14.5 -35s-21.167 -14 -34.5 -14s-24.833 4.66699 -34.5 14s-14.5 21 -14.5 35c0 13.333 4.83301 24.666 14.5 33.999s21.167 14 34.5 14s24.833 -4.66699 34.5 -14s14.5 -20.666 14.5 -33.999zM221 657
c0 -14 -4.83301 -25.667 -14.5 -35s-21.167 -14 -34.5 -14s-24.833 4.66699 -34.5 14s-14.5 21 -14.5 35c0 13.333 4.83301 24.666 14.5 33.999s21.167 14 34.5 14s24.833 -4.66699 34.5 -14s14.5 -20.666 14.5 -33.999zM439 517l-171.001 -583.001
c-9.33301 -32 -28 -61.333 -56 -88c-31.333 -28.667 -62.333 -43 -93 -43c-13.333 0 -24.833 4.83301 -34.5 14.5s-14.5 21.167 -14.5 34.5c0 26 12.667 42 38 48c34 8 56 28.667 66 62l24 83c0.666992 2.66699 0.666992 5.33398 0 8.00098l-136 464
c-1.33301 4.66699 -2 9.33398 -2 14.001c0 13.333 4.83301 24.833 14.5 34.5s21.167 14.5 34.5 14.5c24.667 0 40.667 -11.667 48 -35l91 -314c0.666992 -1.33301 1.66699 -2 3 -2c0.666992 0 1.33398 0.666992 2.00098 2l91 314c7.33301 23.333 23.333 35 48 35
c13.333 0 24.833 -4.83301 34.5 -14.5s14.5 -21.167 14.5 -34.5c0 -4.66699 -0.666992 -9.33398 -2 -14.001z" />
    <glyph glyph-name="dotlessi" unicode="&#x131;" horiz-adv-x="220" 
d="M159 49c0 -13.333 -4.83301 -24.833 -14.5 -34.5s-21.167 -14.5 -34.5 -14.5s-24.833 4.83301 -34.5 14.5s-14.5 21.167 -14.5 34.5v679c0 13.333 4.83301 24.833 14.5 34.5s21.167 14.5 34.5 14.5s24.833 -4.83301 34.5 -14.5s14.5 -21.167 14.5 -34.5v-679z" />
    <glyph glyph-name="Lslash" unicode="&#x141;" horiz-adv-x="632" 
d="M572 48c0 -14 -4.83301 -25.667 -14.5 -35s-21.167 -14 -34.5 -14h-294c-14 0 -25.667 4.66699 -35 14s-14 21 -14 35v188c0 4 -1.33301 4.66699 -4 2l-32 -32c-9.33301 -9.33301 -21 -14 -35 -14c-13.333 0 -24.833 4.83301 -34.5 14.5s-14.5 21.167 -14.5 34.5
s5 25 15 35l101 101c2.66699 2.66699 4 5.66699 4 9v341c0 13.333 4.66699 24.833 14 34.5s21 14.5 35 14.5c13.333 0 24.833 -4.83301 34.5 -14.5s14.5 -21.167 14.5 -34.5v-242c0 -4 1.33301 -4.66699 4 -2l32 32c9.33301 10 21 15 35 15
c13.333 0 24.833 -4.83301 34.5 -14.5s14.5 -21.167 14.5 -34.5c0 -14 -4.66699 -25.667 -14 -35l-102 -102c-2.66699 -2.66699 -4 -5.66699 -4 -9v-232c0 -4 2 -6 6 -6h239c13.333 0 24.833 -4.83301 34.5 -14.5s14.5 -21.167 14.5 -34.5z" />
    <glyph glyph-name="lslash" unicode="&#x142;" horiz-adv-x="460" 
d="M384 446l-101 -101.999c-2.66699 -2.66699 -4 -5.66699 -4 -9v-287c0 -14 -4.83301 -25.667 -14.5 -35s-21.167 -14 -34.5 -14s-24.833 4.66699 -34.5 14s-14.5 21 -14.5 35v189c0 3.33301 -1.33301 3.66602 -4 0.999023l-32 -32c-9.33301 -9.33301 -21 -14 -35 -14
c-13.333 0 -24.833 4.83301 -34.5 14.5s-14.5 21.167 -14.5 34.5s5 25 15 35l101 101c2.66699 2.66699 4 6 4 10v340c0 13.333 4.83301 24.833 14.5 34.5s21.167 14.5 34.5 14.5s24.833 -4.83301 34.5 -14.5s14.5 -21.167 14.5 -34.5v-242c0 -3.33301 1.33301 -4 4 -2l32 32
c9.33301 10 21 15 35 15c13.333 0 24.833 -4.83301 34.5 -14.5s14.5 -21.167 14.5 -34.5c0 -14 -5 -25.667 -15 -35z" />
    <glyph glyph-name="OE" unicode="&#x152;" horiz-adv-x="846" 
d="M786 52c0 -13.333 -4.83301 -24.833 -14.5 -34.5s-21.5 -14.5 -35.5 -14.5h-293c-14.667 0 -26.667 5.33301 -36 16c-5.33301 4.66699 -11 5.66699 -17 3c-27.333 -14.667 -56.333 -22 -87 -22h-54c-52 0 -96.5 18.5 -133.5 55.5s-55.5 81.5 -55.5 133.5v405
c0 52 18.5 96.5 55.5 133.5s81.5 55.5 133.5 55.5h54c30.667 0 59.667 -7.33301 87 -22c6 -3.33301 11.667 -2.33301 17 3c9.33301 10.667 21.333 16 36 16h293c14 0 25.833 -4.83301 35.5 -14.5s14.5 -21.167 14.5 -34.5c0 -14 -4.83301 -25.667 -14.5 -35
s-21.5 -14 -35.5 -14h-239c-3.33301 0 -5 -2 -5 -6v-230c0 -3.33301 1.66699 -5 5 -5h200c14 0 25.667 -4.83301 35 -14.5s14 -21.5 14 -35.5c0 -13.333 -4.66699 -24.833 -14 -34.5s-21 -14.5 -35 -14.5h-200c-3.33301 0 -5 -1.66699 -5 -5v-230c0 -4 1.66699 -6 5 -6h239
c14 0 25.833 -4.83301 35.5 -14.5s14.5 -21.167 14.5 -34.5zM393 189v405c0 24.667 -8.83301 45.834 -26.5 63.501s-38.834 26.5 -63.501 26.5h-54c-24.667 0 -45.834 -8.83301 -63.501 -26.5s-26.5 -38.834 -26.5 -63.501v-405c0 -25.333 8.83301 -46.833 26.5 -64.5
s38.834 -26.5 63.501 -26.5h54c24.667 0 45.834 8.83301 63.501 26.5s26.5 39.167 26.5 64.5z" />
    <glyph glyph-name="oe" unicode="&#x153;" horiz-adv-x="784" 
d="M723 289c0 -13.333 -4.66309 -24.832 -13.9961 -34.499s-21 -14.5 -35 -14.5h-227c-3.33301 0 -5.33301 -1.66699 -6 -5v-52c-1.33301 -24 7.16699 -44.667 25.5 -62s39.833 -26 64.5 -26h4c35.333 0 61.666 15.667 78.999 47c9.33301 16.667 23.666 25 42.999 25
c14 0 25.833 -4.66699 35.5 -14s14.5 -21 14.5 -35c0 -8 -2 -15.667 -6 -23c-16.667 -30.667 -39.834 -54.834 -69.501 -72.501s-61.834 -26.5 -96.501 -26.5h-4c-50.667 0 -94.334 18 -131.001 54c-2 2 -4.66699 3 -8 3s-6 -1 -8 -3c-36.667 -36 -80.334 -54 -131.001 -54
h-4c-52 0 -96.333 18.5 -133 55.5s-55 81.5 -55 133.5v209c0 52 18.333 96.333 55 133s81 55 133 55h4c50.667 0 94.334 -17.667 131.001 -53c2 -2.66699 4.66699 -4 8 -4s6 1.33301 8 4c36.667 35.333 80.334 53 131.001 53h4c52 0 96.333 -18.333 133 -55s55 -81 55 -133
v-105zM625.004 344.001l0.000976562 49.999c0 24.667 -8.83301 45.834 -26.5 63.501s-38.834 26.5 -63.501 26.5h-4c-24.667 0 -46.167 -8.66699 -64.5 -26s-26.833 -38 -25.5 -62v-2v-51c0.666992 -3.33301 2.66699 -5 6 -5h173c3.33301 0 5 2 5 6zM343.005 183v2.00195
v211c1.33301 24 -7.16699 44.667 -25.5 62s-39.833 26 -64.5 26h-4c-24.667 0 -45.834 -8.83301 -63.501 -26.5s-26.5 -38.834 -26.5 -63.501v-209c0 -24.667 8.83301 -45.834 26.5 -63.501s38.834 -26.5 63.501 -26.5h4c24.667 0 46.167 8.66699 64.5 26s26.833 38 25.5 62
z" />
    <glyph glyph-name="Scaron" unicode="&#x160;" 
d="M385 891l-73.999 -74c-10 -10 -21.667 -15 -35 -15s-25 5 -35 15l-74 74c-9.33301 9.33301 -14 20.666 -14 33.999c0 14 4.83301 25.667 14.5 35s21.167 14 34.5 14s25 -4.66699 35 -14l31 -32c5.33301 -5.33301 10.666 -5.33301 15.999 0l31 32
c10 9.33301 21.667 14 35 14s24.833 -4.66699 34.5 -14s14.5 -21 14.5 -35c0 -13.333 -4.66699 -24.666 -14 -33.999zM490.001 189c0 -52 -18.3311 -96.4971 -54.998 -133.497s-80.667 -55.5 -132 -55.5h-54c-44 0 -83.333 14.167 -118 42.5s-56.667 64.5 -66 108.5
c-2.66699 13.333 -0.166992 25.666 7.5 36.999s18.167 18.333 31.5 21c12.667 2.66699 24.667 0.166992 36 -7.5s18.333 -18.167 21 -31.5c4.66699 -20.667 15.167 -37.834 31.5 -51.501s35.166 -20.5 56.499 -20.5h54c24.667 0 45.834 8.83301 63.501 26.5
s26.5 39.167 26.5 64.5v33c0 28.667 -9.16699 53.834 -27.5 75.501s-41.166 34.834 -68.499 39.501l-58 9c-51.333 9.33301 -93.666 33.833 -126.999 73.5s-50 85.834 -50 138.501v33c0 52 18.333 96.5 55 133.5s80.667 55.5 132 55.5h54c46 0 86.5 -15 121.5 -45
s56.167 -68 63.5 -114c2 -13.333 -1 -25.5 -9 -36.5s-18.667 -17.5 -32 -19.5s-25.333 1 -36 9s-17.334 18.667 -20.001 32c-3.33301 22 -13.333 40.167 -30 54.5s-36 21.5 -58 21.5h-54c-24.667 0 -45.834 -9 -63.501 -27s-26.5 -39.333 -26.5 -64v-33
c0 -28.667 9.16699 -53.834 27.5 -75.501s41.166 -34.834 68.499 -39.501l58 -10c51.333 -8.66699 93.666 -32.834 126.999 -72.501s50 -85.834 50 -138.501v-33z" />
    <glyph glyph-name="scaron" unicode="&#x161;" horiz-adv-x="446" 
d="M332 700l-73.999 -74c-10 -9.33301 -21.667 -14 -35 -14s-25 4.66699 -35 14l-74 74c-9.33301 10 -14 21.667 -14 35s4.83301 24.833 14.5 34.5s21.167 14.5 34.5 14.5s25 -4.66699 35 -14l31 -32c5.33301 -5.33301 10.666 -5.33301 15.999 0l31 32
c10 9.33301 21.667 14 35 14s24.833 -4.83301 34.5 -14.5s14.5 -21.167 14.5 -34.5s-4.66699 -25 -14 -35zM378.001 118c-10 -35.333 -29.167 -63.833 -57.5 -85.5s-60.5 -32.5 -96.5 -32.5h-3c-61.333 -0 -111 24.333 -149 73c-6.66699 9.33301 -10 19.333 -10 30
c0 16 6.33301 29 19 39c9.33301 6.66699 19.333 10 30 10c16 0 29 -6.33301 39 -19c18 -23.333 41.667 -35 71 -35h3c18 0 32.833 6.16699 44.5 18.5s17.5 27.5 17.5 45.5c0 23.333 -10.333 41 -31 53l-115 69c-52 31.333 -78 77 -78 137c0 15.333 2 30.333 6 45
c10 34.667 29 62.834 57 84.501s60.333 32.5 97 32.5h3c62 0 111.667 -25 149 -75c6.66699 -8.66699 10 -18.334 10 -29.001c0 -16.667 -6.33301 -29.667 -19 -39c-9.33301 -6.66699 -19.333 -10 -30 -10c-16 0 -29 6.33301 -39 19c-18 24 -41.667 36 -71 36h-3
c-18 0 -32.833 -6.16699 -44.5 -18.5s-17.5 -27.5 -17.5 -45.5c0 -23.333 10 -41 30 -53l116 -69c52 -31.333 78 -77 78 -137c0 -15.333 -2 -30 -6 -44z" />
    <glyph glyph-name="Ydieresis" unicode="&#x178;" horiz-adv-x="547" 
d="M401 853c0 -14 -4.83301 -25.667 -14.5 -35s-21.167 -14 -34.5 -14s-24.833 4.66699 -34.5 14s-14.5 21 -14.5 35c0 13.333 4.83301 24.666 14.5 33.999s21.167 14 34.5 14s24.833 -4.66699 34.5 -14s14.5 -20.666 14.5 -33.999zM244 853
c0 -14 -4.83301 -25.667 -14.5 -35s-21.167 -14 -34.5 -14s-24.833 4.66699 -34.5 14s-14.5 21 -14.5 35c0 13.333 4.83301 24.666 14.5 33.999s21.167 14 34.5 14s24.833 -4.66699 34.5 -14s14.5 -20.666 14.5 -33.999zM484 705l-160.002 -325
c-0.666992 -2 -1 -4.33301 -1 -7v-324c0 -13.333 -4.83301 -24.833 -14.5 -34.5s-21.167 -14.5 -34.5 -14.5c-14 -0 -25.833 4.83301 -35.5 14.5s-14.5 21.167 -14.5 34.5v324c0 2.66699 -0.333008 4.66699 -1 6l-160 326c-3.33301 6.66699 -5 13.667 -5 21
c0 14 4.83301 25.833 14.5 35.5s21.167 14.5 34.5 14.5c20.667 0 35.334 -9.33301 44.001 -28l120 -244c2 -3.33301 3.66699 -3.33301 5 0l120 244c8.66699 18.667 23.334 28 44.001 28c13.333 0 24.833 -4.83301 34.5 -14.5s14.5 -21.5 14.5 -35.5
c0 -7.33301 -1.66699 -14.333 -5 -21z" />
    <glyph glyph-name="Zcaron" unicode="&#x17d;" 
d="M385 890l-73.9971 -74c-10 -9.33301 -21.667 -14 -35 -14s-25 4.66699 -35 14l-74 74c-9.33301 10 -14 21.667 -14 35s4.66699 24.833 14 34.5s21 14.5 35 14.5c13.333 0 24.666 -4.66699 33.999 -14l32 -32c5.33301 -5.33301 10.666 -5.33301 15.999 0l32 32
c9.33301 9.33301 20.666 14 33.999 14c14 0 25.667 -4.83301 35 -14.5s14 -21.167 14 -34.5s-4.66699 -25 -14 -35zM491.003 49c0 -13.333 -4.83301 -24.832 -14.5 -34.499s-21.167 -14.5 -34.5 -14.5h-332c-13.333 0 -24.833 4.83301 -34.5 14.5s-14.5 21.167 -14.5 34.5
c0 7.33301 1.66699 14.666 5 21.999l295 601c1.33301 3.33301 0.333008 5 -3 5h-248c-13.333 0 -24.833 4.83301 -34.5 14.5s-14.5 21.167 -14.5 34.5c0 14 4.83301 25.833 14.5 35.5s21.167 14.5 34.5 14.5h332c13.333 0 24.833 -4.83301 34.5 -14.5s14.5 -21.5 14.5 -35.5
c0 -7.33301 -1.66699 -14.333 -5 -21l-295 -602c-1.33301 -3.33301 -0.333008 -5 3 -5h248c13.333 0 24.833 -4.83301 34.5 -14.5s14.5 -21.167 14.5 -34.5z" />
    <glyph glyph-name="zcaron" unicode="&#x17e;" horiz-adv-x="501" 
d="M360 700l-75.001 -75c-9.33301 -9.33301 -20.666 -14 -33.999 -14c-14 0 -25.667 4.66699 -35 14l-75 75c-9.33301 9.33301 -14 20.666 -14 33.999c0 14 4.83301 25.667 14.5 35s21.167 14 34.5 14c14 0 25.667 -4.66699 35 -14l32 -32
c4.66699 -5.33301 9.66699 -5.33301 15 0l32 32c9.33301 9.33301 21 14 35 14c13.333 0 24.833 -4.66699 34.5 -14s14.5 -21 14.5 -35c0 -13.333 -4.66699 -24.666 -14 -33.999zM440.999 49c0 -13.333 -4.83301 -24.834 -14.5 -34.501s-21.5 -14.5 -35.5 -14.5h-281
c-14 0 -25.833 4.83301 -35.5 14.5s-14.5 21.167 -14.5 34.5c0 8.66699 2.33301 17 7 25l236 403c2 2.66699 1 4 -3 4h-190c-14 0 -25.833 4.83301 -35.5 14.5s-14.5 21.5 -14.5 35.5c0 13.333 4.83301 24.833 14.5 34.5s21.5 14.5 35.5 14.5h281
c14 0 25.833 -4.83301 35.5 -14.5s14.5 -21.167 14.5 -34.5c0 -9.33301 -2.33301 -17.666 -7 -24.999l-236 -403c-2 -3.33301 -1 -5 3 -5h190c14 0 25.833 -4.83301 35.5 -14.5s14.5 -21.167 14.5 -34.5z" />
    <glyph glyph-name="florin" unicode="&#x192;" horiz-adv-x="805" 
d="M744 833c0 -14 -4.83105 -25.667 -14.498 -35s-21.5 -14 -35.5 -14h-62c-31.333 0 -52 -15.333 -62 -46l-34 -107c-0.666992 -4 0.666016 -6 3.99902 -6h64c14 0 25.833 -4.66699 35.5 -14s14.5 -21 14.5 -35c0 -13.333 -4.83301 -24.833 -14.5 -34.5
s-21.5 -14.5 -35.5 -14.5h-95c-3.33301 0 -5.66602 -1.66699 -6.99902 -5l-165 -523c-10.667 -34 -30.334 -61.5 -59.001 -82.5s-61 -31.5 -97 -31.5h-70c-14 0 -25.833 4.83301 -35.5 14.5s-14.5 21.167 -14.5 34.5s4.83301 24.833 14.5 34.5s21.5 14.5 35.5 14.5h70
c32 0 52.667 15.333 62 46l156 493c1.33301 3.33301 0 5 -4 5h-67c-14 0 -25.667 4.83301 -35 14.5s-14 21.167 -14 34.5c0 14 4.66699 25.667 14 35s21 14 35 14h98c4 0 6.33301 2 7 6l43 137c11.333 34 31.166 61.5 59.499 82.5s60.5 31.5 96.5 31.5h62
c14 0 25.833 -4.83301 35.5 -14.5s14.5 -21.167 14.5 -34.5z" />
    <glyph glyph-name="circumflex" unicode="&#x2c6;" horiz-adv-x="420" 
d="M350 643c8.66699 -9.33301 12.998 -20.333 12.998 -33c0 -14.667 -5.16699 -26.5 -15.5 -35.5s-21.833 -13.5 -34.5 -13.5c-14.667 0 -26.667 5.66699 -36 17l-63 71c-1.33301 1.33301 -2.66602 2 -3.99902 2s-2.66602 -0.666992 -3.99902 -2l-62 -71
c-10 -11.333 -22.333 -17 -37 -17c-12.667 0 -23.667 4.33301 -33 13c-11.333 9.33301 -17 21.333 -17 36c0 12.667 4.33301 23.667 13 33l103 117c10 11.333 22.333 17 37 17s27 -5.66699 37 -17z" />
    <glyph glyph-name="caron" unicode="&#x2c7;" horiz-adv-x="421" 
d="M351 695l-104.001 -117c-9.33301 -11.333 -21.333 -17 -36 -17c-15.333 0 -27.666 5.66699 -36.999 17l-104 117c-8 9.33301 -12 20.333 -12 33c0 14.667 5.66699 27 17 37c9.33301 8 20 12 32 12c14.667 0 27 -5.66699 37 -17l63 -71c2.66699 -2.66699 5 -2.66699 7 0
l63 71c10 11.333 22.333 17 37 17c12 0 22.667 -4 32 -12c11.333 -10 17 -22.333 17 -37c0 -12.667 -4 -23.667 -12 -33z" />
    <glyph glyph-name="breve" unicode="&#x2d8;" horiz-adv-x="421" 
d="M351 695l-104.001 -117c-9.33301 -11.333 -21.333 -17 -36 -17c-15.333 0 -27.666 5.66699 -36.999 17l-104 117c-8 9.33301 -12 20.333 -12 33c0 14.667 5.66699 27 17 37c9.33301 8 20 12 32 12c14.667 0 27 -5.66699 37 -17l63 -71c2.66699 -2.66699 5 -2.66699 7 0
l63 71c10 11.333 22.333 17 37 17c12 0 22.667 -4 32 -12c11.333 -10 17 -22.333 17 -37c0 -12.667 -4 -23.667 -12 -33z" />
    <glyph glyph-name="dotaccent" unicode="&#x2d9;" horiz-adv-x="387" 
d="M327 643c0 -36.667 -13 -68 -39 -94s-57.333 -39 -94 -39c-37.333 0 -69 13 -95 39s-39 57.333 -39 94s13 68 39 94s57.667 39 95 39c36.667 0 68 -13 94 -39s39 -57.333 39 -94z" />
    <glyph glyph-name="ring" unicode="&#x2da;" horiz-adv-x="387" 
d="M327 643c0 -36.667 -13 -68 -39 -94s-57.333 -39 -94 -39c-37.333 0 -69 13 -95 39s-39 57.333 -39 94s13 68 39 94s57.667 39 95 39c36.667 0 68 -13 94 -39s39 -57.333 39 -94zM228 643c0 10 -3.33301 18.333 -10 25s-14.667 10 -24 10c-10 0 -18.333 -3.33301 -25 -10
s-10 -15 -10 -25c0 -9.33301 3.33301 -17.5 10 -24.5s15 -10.5 25 -10.5c9.33301 0 17.333 3.5 24 10.5s10 15.167 10 24.5z" />
    <glyph glyph-name="ogonek" unicode="&#x2db;" horiz-adv-x="323" 
d="M263 -126c0 -13.333 -4.66699 -24.834 -14 -34.501s-21 -14.5 -35 -14.5h-50c-28.667 0 -53.167 10.333 -73.5 31s-30.5 45.334 -30.5 74.001v80c0 14 4.66699 25.833 14 35.5s21 14.5 35 14.5c13.333 0 24.833 -4.83301 34.5 -14.5s14.5 -21.5 14.5 -35.5v-80
c0 -4.66699 2 -7 6 -7h50c14 0 25.667 -4.66699 35 -14s14 -21 14 -35z" />
    <glyph glyph-name="tilde" unicode="&#x2dc;" horiz-adv-x="534" 
d="M469 344l-14 -24c-24.667 -43.333 -62 -65 -112 -65s-87.333 21.667 -112 65l-14 24c-5.33301 10 -14 15 -26 15s-21 -5 -27 -15l-14 -24c-9.33301 -16.667 -23.333 -25 -42 -25c-13.333 0 -24.833 4.83301 -34.5 14.5s-14.5 21.167 -14.5 34.5c0 8.66699 2 17 6 25
l14 24c24.667 43.333 62 65 112 65s87.333 -21.667 112 -65l14 -24c5.33301 -10.667 14 -16 26 -16s21 5.33301 27 16l13 24c10 16 24.333 24 43 24c14 0 25.667 -4.66699 35 -14s14 -21 14 -35c0 -8.66699 -2 -16.667 -6 -24z" />
    <glyph glyph-name="hungarumlaut" unicode="&#x2dd;" horiz-adv-x="534" 
d="M469 662l-14 -24c-24.667 -43.333 -62 -65 -112 -65s-87.333 21.667 -112 65l-14 24c-5.33301 10.667 -14 16 -26 16s-21 -5.33301 -27 -16l-14 -24c-9.33301 -16.667 -23.333 -25 -42 -25c-13.333 0 -24.833 4.83301 -34.5 14.5s-14.5 21.5 -14.5 35.5
c0 8.66699 2 16.667 6 24l14 24c24.667 43.333 62 65 112 65s87.333 -21.667 112 -65l14 -24c5.33301 -10 14 -15 26 -15s21 5 27 15l13 24c10 16.667 24.333 25 43 25c14 0 25.667 -4.83301 35 -14.5s14 -21.167 14 -34.5c0 -8.66699 -2 -17 -6 -25z" />
    <glyph glyph-name="Delta" unicode="&#x394;" horiz-adv-x="722" 
d="M655 137c8.66699 -14.667 12.998 -30 12.998 -46s-4.33301 -31.333 -13 -46c-17.333 -30.667 -43.666 -46 -78.999 -46h-430c-35.333 0 -61.666 15.333 -78.999 46c-8.66699 14.667 -13 30 -13 46s4.33301 31.333 13 46l214 372c18 30.667 44.667 46 80 46
s62 -15.333 80 -46zM558.998 107l-192 333c-1.33301 2.66699 -3.33301 4 -6 4s-4.66699 -1.33301 -6 -4l-192 -333c-4 -6.66699 -2.33301 -10 5 -10h385c8 0 10 3.33301 6 10z" />
    <glyph glyph-name="Delta" unicode="&#x2206;" horiz-adv-x="722" 
d="M655 137c8.66699 -14.667 12.998 -30 12.998 -46s-4.33301 -31.333 -13 -46c-17.333 -30.667 -43.666 -46 -78.999 -46h-430c-35.333 0 -61.666 15.333 -78.999 46c-8.66699 14.667 -13 30 -13 46s4.33301 31.333 13 46l214 372c18 30.667 44.667 46 80 46
s62 -15.333 80 -46zM558.998 107l-192 333c-1.33301 2.66699 -3.33301 4 -6 4s-4.66699 -1.33301 -6 -4l-192 -333c-4 -6.66699 -2.33301 -10 5 -10h385c8 0 10 3.33301 6 10z" />
    <glyph glyph-name="Omega" unicode="&#x3a9;" horiz-adv-x="607" 
d="M547 49c0 -13.333 -4.83398 -24.833 -14.501 -34.5s-21.5 -14.5 -35.5 -14.5h-118c-14 -0 -25.833 4.83301 -35.5 14.5s-14.5 21.167 -14.5 34.5v110c0 21.333 9.66699 36.333 29 45c24 10.667 43 27 57 49s21 46 21 72c0 36.667 -13 68 -39 94s-57.333 39 -94 39
c-36 0 -67 -13 -93 -39s-39 -57.333 -39 -94c0 -26 7 -50 21 -72s33 -38.333 57 -49c19.333 -8.66699 29 -23.667 29 -45v-110c0 -13.333 -4.83301 -24.833 -14.5 -34.5s-21.5 -14.5 -35.5 -14.5h-118c-14 -0 -25.833 4.83301 -35.5 14.5s-14.5 21.167 -14.5 34.5v41
c0 13.333 4.83301 24.833 14.5 34.5s21.5 14.5 35.5 14.5c21.333 0 36 -10.333 44 -31c2.66699 -6.66699 7.33398 -10 14.001 -10c7.33301 0 11 3.66699 11 11v10c0 7.33301 -3 13 -9 17c-65.333 46 -98 109 -98 189c0 63.333 22.667 117.666 68 162.999
s99.666 68 162.999 68c64 0 118.667 -22.667 164 -68s68 -99.666 68 -162.999c0 -80 -32.667 -143 -98 -189c-6 -4 -9 -9.66699 -9 -17v-10c0 -7.33301 3.66699 -11 11 -11c6.66699 0 11.334 3.33301 14.001 10c8 20.667 22.667 31 44 31c14 0 25.833 -4.83301 35.5 -14.5
s14.5 -21.167 14.5 -34.5v-41z" />
    <glyph glyph-name="Omega" unicode="&#x2126;" horiz-adv-x="607" 
d="M547 49c0 -13.333 -4.83398 -24.833 -14.501 -34.5s-21.5 -14.5 -35.5 -14.5h-118c-14 -0 -25.833 4.83301 -35.5 14.5s-14.5 21.167 -14.5 34.5v110c0 21.333 9.66699 36.333 29 45c24 10.667 43 27 57 49s21 46 21 72c0 36.667 -13 68 -39 94s-57.333 39 -94 39
c-36 0 -67 -13 -93 -39s-39 -57.333 -39 -94c0 -26 7 -50 21 -72s33 -38.333 57 -49c19.333 -8.66699 29 -23.667 29 -45v-110c0 -13.333 -4.83301 -24.833 -14.5 -34.5s-21.5 -14.5 -35.5 -14.5h-118c-14 -0 -25.833 4.83301 -35.5 14.5s-14.5 21.167 -14.5 34.5v41
c0 13.333 4.83301 24.833 14.5 34.5s21.5 14.5 35.5 14.5c21.333 0 36 -10.333 44 -31c2.66699 -6.66699 7.33398 -10 14.001 -10c7.33301 0 11 3.66699 11 11v10c0 7.33301 -3 13 -9 17c-65.333 46 -98 109 -98 189c0 63.333 22.667 117.666 68 162.999
s99.666 68 162.999 68c64 0 118.667 -22.667 164 -68s68 -99.666 68 -162.999c0 -80 -32.667 -143 -98 -189c-6 -4 -9 -9.66699 -9 -17v-10c0 -7.33301 3.66699 -11 11 -11c6.66699 0 11.334 3.33301 14.001 10c8 20.667 22.667 31 44 31c14 0 25.833 -4.83301 35.5 -14.5
s14.5 -21.167 14.5 -34.5v-41z" />
    <glyph glyph-name="pi" unicode="&#x3c0;" horiz-adv-x="899" 
d="M838 388c0 -106.667 -38 -198 -114 -274s-167.333 -114 -274 -114c-107.333 0 -199 38 -275 114s-114 167.333 -114 274c0 107.333 38 199 114 275s167.667 114 275 114c106.667 0 198 -38 274 -114s114 -167.667 114 -275zM740 388c0 80 -28.333 148.333 -85 205
s-125 85 -205 85s-148.5 -28.333 -205.5 -85s-85.5 -125 -85.5 -205s28.5 -148.333 85.5 -205s125.5 -85 205.5 -85s148.333 28.333 205 85s85 125 85 205zM592 457c0 -31.333 -11.167 -58.168 -33.5 -80.501s-49.166 -33.5 -80.499 -33.5h-47c-4 0 -6 -1.66699 -6 -5v-121
c0 -12 -4.33301 -22.333 -13 -31s-19 -13 -31 -13s-22.333 4.33301 -31 13s-13 19 -13 31v341c0 12 4.33301 22.333 13 31s19 13 31 13h97c31.333 0 58.166 -11.167 80.499 -33.5s33.5 -49.166 33.5 -80.499v-31zM504 456.998v31c0 16.667 -8.66699 25 -26 25h-47
c-4 0 -6 -1.66699 -6 -5v-71c0 -3.33301 2 -5 6 -5h47c17.333 0 26 8.33301 26 25z" />
    <glyph glyph-name="endash" unicode="&#x2013;" horiz-adv-x="469" 
d="M408 290c0 -13.333 -4.66699 -24.833 -14 -34.5s-21 -14.5 -35 -14.5h-249c-14 0 -25.667 4.83301 -35 14.5s-14 21.167 -14 34.5s4.66699 24.833 14 34.5s21 14.5 35 14.5h249c14 0 25.667 -4.83301 35 -14.5s14 -21.167 14 -34.5z" />
    <glyph glyph-name="emdash" unicode="&#x2014;" horiz-adv-x="539" 
d="M474 290c0 -13.333 -4.83301 -24.833 -14.5 -34.5s-21.5 -14.5 -35.5 -14.5h-309c-14 0 -25.833 4.83301 -35.5 14.5s-14.5 21.167 -14.5 34.5s4.83301 24.833 14.5 34.5s21.5 14.5 35.5 14.5h309c14 0 25.833 -4.83301 35.5 -14.5s14.5 -21.167 14.5 -34.5z" />
    <glyph glyph-name="quoteleft" unicode="&#x2018;" horiz-adv-x="240" 
d="M179 666c0 -16 -5.83301 -29.833 -17.5 -41.5s-25.5 -17.5 -41.5 -17.5s-29.833 5.83301 -41.5 17.5s-17.5 25.5 -17.5 41.5v89c0 16 8.33301 24 25 24c16 0 24 -8 24 -24v-25c0 -3.33301 2 -5 6 -5h4c16 0 29.833 -5.66699 41.5 -17s17.5 -25.333 17.5 -42z" />
    <glyph glyph-name="quoteright" unicode="&#x2019;" horiz-adv-x="239" 
d="M178 632c0 -16.667 -8.00098 -25 -24.001 -25c-16.667 0 -25 8.33301 -25 25v25c0 3.33301 -1.66699 5 -5 5c-1.33301 -0.666992 -2.66602 -1 -3.99902 -1c-16.667 0 -30.667 5.83301 -42 17.5s-17 25.5 -17 41.5c0 16.667 5.66699 30.667 17 42s25.333 17 42 17
c16 0 29.667 -5.66699 41 -17s17 -25.333 17 -42v-88z" />
    <glyph glyph-name="quotesinglbase" unicode="&#x201a;" horiz-adv-x="240" 
d="M179 -29c0 -16.667 -8.33301 -25 -25 -25c-16 0 -24 8.33301 -24 25v24c0 4 -2 5.66699 -6 5h-4c-16 0 -29.833 5.66699 -41.5 17s-17.5 25.333 -17.5 42c0 16 5.83301 29.833 17.5 41.5s25.5 17.5 41.5 17.5s29.833 -5.83301 41.5 -17.5s17.5 -25.5 17.5 -41.5v-88z" />
    <glyph glyph-name="quotedblleft" unicode="&#x201c;" horiz-adv-x="383" 
d="M322 666c0 -16 -5.66699 -29.833 -17 -41.5s-25.333 -17.5 -42 -17.5c-16 0 -29.833 5.83301 -41.5 17.5s-17.5 25.5 -17.5 41.5v89c0 16 8.33301 24 25 24s25 -8 25 -24v-25c0 -3.33301 1.66699 -5 5 -5h4c16.667 0 30.667 -5.66699 42 -17s17 -25.333 17 -42zM179 666
c0 -16 -5.83301 -29.833 -17.5 -41.5s-25.834 -17.5 -42.501 -17.5c-16 0 -29.667 5.83301 -41 17.5s-17 25.5 -17 41.5v89c0 16 8 24 24 24c16.667 0 25 -8 25 -24v-25c0 -3.33301 1.66699 -5 5 -5h4c16.667 0 30.834 -5.66699 42.501 -17s17.5 -25.333 17.5 -42z" />
    <glyph glyph-name="quotedblright" unicode="&#x201d;" horiz-adv-x="383" 
d="M322 632c0 -16.667 -8.00098 -25 -24.001 -25c-16.667 0 -25 8.33301 -25 25v25c0 3.33301 -1.66699 5 -5 5c-1.33301 -0.666992 -2.66602 -1 -3.99902 -1c-16.667 0 -30.834 5.83301 -42.501 17.5s-17.5 25.5 -17.5 41.5c0 16.667 5.83301 30.667 17.5 42
s25.834 17 42.501 17c16 0 29.667 -5.66699 41 -17s17 -25.333 17 -42v-88zM178.999 632c0 -16.667 -8.33398 -25 -25.001 -25s-25 8.33301 -25 25v25c0 3.33301 -1.66699 5 -5 5c-1.33301 -0.666992 -2.66602 -1 -3.99902 -1c-16.667 0 -30.667 5.83301 -42 17.5
s-17 25.5 -17 41.5c0 16.667 5.66699 30.667 17 42s25.333 17 42 17c16 0 29.833 -5.66699 41.5 -17s17.5 -25.333 17.5 -42v-88z" />
    <glyph glyph-name="quotedblbase" unicode="&#x201e;" horiz-adv-x="375" 
d="M314 -30c0 -16.667 -8 -25 -24 -25c-16.667 0 -25 8.33301 -25 25v25c0 3.33301 -1.66699 5 -5 5c-2 -0.666992 -3.66699 -1 -5 -1c-16 0 -29.833 5.83301 -41.5 17.5s-17.5 25.5 -17.5 41.5c0 16.667 5.83301 30.667 17.5 42s25.5 17 41.5 17
c16.667 0 30.667 -5.66699 42 -17s17 -25.333 17 -42v-88zM179 -30c0 -16.667 -8.33398 -25 -25.001 -25c-16 0 -24 8.33301 -24 25v25c0 3.33301 -2 5 -6 5c-1.33301 -0.666992 -2.66602 -1 -3.99902 -1c-16.667 0 -30.667 5.83301 -42 17.5s-17 25.5 -17 41.5
c0 16.667 5.66699 30.667 17 42s25.333 17 42 17c16 0 29.833 -5.66699 41.5 -17s17.5 -25.333 17.5 -42v-88z" />
    <glyph glyph-name="dagger" unicode="&#x2020;" horiz-adv-x="514" 
d="M453 484c0 -14 -4.83301 -25.833 -14.5 -35.5s-21.167 -14.5 -34.5 -14.5h-99c-4 0 -6 -1.66699 -6 -5v-381c0 -14 -4.66699 -25.667 -14 -35s-21 -14 -35 -14c-13.333 0 -24.833 4.66699 -34.5 14s-14.5 21 -14.5 35v381c0 3.33301 -2 5 -6 5h-85
c-13.333 0 -24.833 4.83301 -34.5 14.5s-14.5 21.5 -14.5 35.5c0 13.333 4.83301 24.833 14.5 34.5s21.167 14.5 34.5 14.5h85c4 0 6 1.66699 6 5v189c0 13.333 4.83301 24.833 14.5 34.5s21.167 14.5 34.5 14.5c14 0 25.667 -4.83301 35 -14.5s14 -21.167 14 -34.5v-189
c0 -3.33301 2 -5 6 -5h99c13.333 0 24.833 -4.83301 34.5 -14.5s14.5 -21.167 14.5 -34.5z" />
    <glyph glyph-name="daggerdbl" unicode="&#x2021;" horiz-adv-x="527" 
d="M460 292c0 -14 -4.83301 -25.667 -14.5 -35s-21.5 -14 -35.5 -14h-99c-3.33301 0 -5 -2 -5 -6v-189c0 -14 -4.83301 -25.667 -14.5 -35s-21.167 -14 -34.5 -14c-14 0 -25.833 4.66699 -35.5 14s-14.5 21 -14.5 35v189c0 4 -1.66699 6 -5 6h-85
c-14 0 -25.833 4.66699 -35.5 14s-14.5 21 -14.5 35c0 13.333 4.83301 24.833 14.5 34.5s21.5 14.5 35.5 14.5h85c3.33301 0 5 2 5 6v82c0 3.33301 -1.66699 5 -5 5h-85c-14 0 -25.833 4.83301 -35.5 14.5s-14.5 21.5 -14.5 35.5c0 13.333 4.83301 24.833 14.5 34.5
s21.5 14.5 35.5 14.5h85c3.33301 0 5 1.66699 5 5v189c0 13.333 4.83301 24.833 14.5 34.5s21.5 14.5 35.5 14.5c13.333 0 24.833 -4.83301 34.5 -14.5s14.5 -21.167 14.5 -34.5v-189c0 -3.33301 1.66699 -5 5 -5h99c14 0 25.833 -4.83301 35.5 -14.5
s14.5 -21.167 14.5 -34.5c0 -14 -4.83301 -25.833 -14.5 -35.5s-21.5 -14.5 -35.5 -14.5h-99c-3.33301 0 -5 -1.66699 -5 -5v-82c0 -4 1.66699 -6 5 -6h99c14 0 25.833 -4.83301 35.5 -14.5s14.5 -21.167 14.5 -34.5z" />
    <glyph glyph-name="bullet" unicode="&#x2022;" horiz-adv-x="899" 
d="M838 389c0 -107.333 -38 -199 -114 -275s-167.333 -114 -274 -114c-107.333 0 -199 38 -275 114s-114 167.667 -114 275c0 106.667 38 198 114 274s167.667 114 275 114c106.667 0 198 -38 274 -114s114 -167.333 114 -274z" />
    <glyph glyph-name="ellipsis" unicode="&#x2026;" horiz-adv-x="547" 
d="M487 59c0 -16.667 -5.83301 -30.667 -17.5 -42s-25.5 -17 -41.5 -17c-16.667 0 -30.667 5.66699 -42 17s-17 25.333 -17 42c0 16 5.66699 29.833 17 41.5s25.333 17.5 42 17.5c16 0 29.833 -5.83301 41.5 -17.5s17.5 -25.5 17.5 -41.5zM332 59
c0 -16.667 -5.66699 -30.667 -17 -42s-25.333 -17 -42 -17c-16 0 -29.833 5.66699 -41.5 17s-17.5 25.333 -17.5 42c0 16 5.83301 29.833 17.5 41.5s25.5 17.5 41.5 17.5c16.667 0 30.667 -5.83301 42 -17.5s17 -25.5 17 -41.5zM178 59c0 -16.667 -5.66699 -30.667 -17 -42
s-25.333 -17 -42 -17c-16 0 -29.833 5.66699 -41.5 17s-17.5 25.333 -17.5 42c0 16 5.83301 29.833 17.5 41.5s25.5 17.5 41.5 17.5c16.667 0 30.667 -5.83301 42 -17.5s17 -25.5 17 -41.5z" />
    <glyph glyph-name="perthousand" unicode="&#x2030;" horiz-adv-x="888" 
d="M327 643c0 -36.667 -13.167 -68 -39.5 -94s-57.833 -39 -94.5 -39s-68 13 -94 39s-39 57.333 -39 94s13 68 39 94s57.333 39 94 39s68.167 -13 94.5 -39s39.5 -57.333 39.5 -94zM828 132c0 -36.667 -13 -68 -39 -94s-57.333 -39 -94 -39s-68.167 13 -94.5 39
s-39.5 57.333 -39.5 94s13.167 68 39.5 94s57.833 39 94.5 39s68 -13 94 -39s39 -57.333 39 -94zM532 703l-380 -679c-9.33301 -16.667 -23.666 -25 -42.999 -25c-13.333 0 -24.833 4.83301 -34.5 14.5s-14.5 21.167 -14.5 34.5c0 8.66699 2 16.667 6 24l380 679
c9.33301 16.667 23.666 25 42.999 25c13.333 0 24.833 -4.66699 34.5 -14s14.5 -21 14.5 -35c0 -8.66699 -2 -16.667 -6 -24zM538 132c0 -36.667 -13 -68 -39 -94s-57.333 -39 -94 -39s-68.167 13 -94.5 39s-39.5 57.333 -39.5 94s13.167 68 39.5 94s57.833 39 94.5 39
s68 -13 94 -39s39 -57.333 39 -94zM228 643c0 10 -3.33301 18.333 -10 25s-15 10 -25 10c-9.33301 0 -17.333 -3.33301 -24 -10s-10 -15 -10 -25c0 -9.33301 3.33301 -17.5 10 -24.5s14.667 -10.5 24 -10.5c10 0 18.333 3.5 25 10.5s10 15.167 10 24.5zM729 132
c0 10 -3.33301 18.333 -10 25s-14.667 10 -24 10c-10 0 -18.333 -3.33301 -25 -10s-10 -15 -10 -25c0 -9.33301 3.33301 -17.333 10 -24s15 -10 25 -10c9.33301 0 17.333 3.33301 24 10s10 14.667 10 24zM439 132c0 10 -3.33301 18.333 -10 25s-14.667 10 -24 10
c-10 0 -18.333 -3.33301 -25 -10s-10 -15 -10 -25c0 -9.33301 3.33301 -17.333 10 -24s15 -10 25 -10c9.33301 0 17.333 3.33301 24 10s10 14.667 10 24z" />
    <glyph glyph-name="guilsinglleft" unicode="&#x2039;" horiz-adv-x="371" 
d="M310 48c0 -14 -4.83301 -25.667 -14.5 -35s-21.167 -14 -34.5 -14c-18 0 -31.667 7.33301 -41 22l-151 228c-5.33301 8.66699 -8 17.667 -8 27c0 10 2.66699 19 8 27l151 229c9.33301 14.667 23 22 41 22c13.333 0 24.833 -4.83301 34.5 -14.5s14.5 -21.167 14.5 -34.5
c0 -10 -2.66699 -19 -8 -27l-130 -197c-2 -3.33301 -2 -6.33301 0 -9l130 -197c5.33301 -8 8 -17 8 -27z" />
    <glyph glyph-name="guilsinglright" unicode="&#x203a;" horiz-adv-x="371" 
d="M302 249l-151 -228c-9.33301 -14.667 -23 -22 -41 -22c-13.333 0 -24.833 4.66699 -34.5 14s-14.5 21 -14.5 35c0 10 2.66699 19 8 27l130 197c2 2.66699 2 5.66699 0 9l-130 197c-5.33301 8 -8 17 -8 27c0 13.333 4.83301 24.833 14.5 34.5s21.167 14.5 34.5 14.5
c18 0 31.667 -7.33301 41 -22l151 -229c5.33301 -8 8 -17 8 -27c0 -9.33301 -2.66699 -18.333 -8 -27z" />
    <glyph glyph-name="fraction" unicode="&#x2044;" horiz-adv-x="527" 
d="M462 707l-308 -679.001c-8.66699 -18.667 -23.667 -28 -45 -28c-13.333 0 -24.833 4.66699 -34.5 14s-14.5 21 -14.5 35c0 6.66699 1.66699 13.334 5 20.001l308 679c8.66699 19.333 23.667 29 45 29c13.333 0 24.833 -4.83301 34.5 -14.5s14.5 -21.167 14.5 -34.5
c0 -7.33301 -1.66699 -14.333 -5 -21z" />
    <glyph glyph-name="trademark" unicode="&#x2122;" horiz-adv-x="413" 
d="M353 19c0 -12.667 -6.66504 -19 -19.998 -19s-20 6.33301 -20 19v97c0 4.66699 -1.33301 5 -4 1l-15 -24c-4 -5.33301 -9.66699 -8 -17 -8c-6.66699 0 -12 2.66699 -16 8l-16 24c-2.66699 4 -4 3.66699 -4 -1v-97c0 -12.667 -6.33301 -19 -19 -19
c-13.333 -0 -20 6.33301 -20 19v170c0 10 4.66699 16.333 14 19s16.666 0 21.999 -8l36 -55c2 -3.33301 4 -3.33301 6 0l37 55c5.33301 8 12.666 10.667 21.999 8s14 -9 14 -19v-170zM183.002 189c0 -13.333 -6.66699 -20 -20 -20h-16c-4 0 -6 -1.66699 -6 -5v-145
c0 -12.667 -6.33301 -19 -19 -19c-13.333 -0 -20 6.33301 -20 19v145c0 3.33301 -2 5 -6 5h-16c-13.333 0 -20 6.66699 -20 20s6.66699 20 20 20h83c13.333 0 20 -6.66699 20 -20z" />
    <glyph glyph-name="partialdiff" unicode="&#x2202;" horiz-adv-x="502" 
d="M441 188c0 -52 -18.333 -96.501 -55 -133.501s-81 -55.5 -133 -55.5h-4c-52 0 -96.333 18.5 -133 55.5s-55 81.5 -55 133.5v99c0 52 18.333 96.333 55 133s81 55 133 55h4c30 0 58.333 -6.66699 85 -20c3.33301 -2 5 -1 5 3v29c0 42.667 -15 78.667 -45 108l-98 98
c-9.33301 10 -14 21.667 -14 35c0 14 4.83301 25.667 14.5 35s21.167 14 34.5 14s25 -4.66699 35 -14l98 -98c48.667 -49.333 73 -108.666 73 -177.999v-299zM343 187.999v99c0 24.667 -8.83301 45.834 -26.5 63.501s-38.834 26.5 -63.501 26.5h-4
c-24.667 0 -45.834 -8.83301 -63.501 -26.5s-26.5 -38.834 -26.5 -63.501v-99c0 -25.333 8.83301 -46.666 26.5 -63.999s38.834 -26 63.501 -26h4c24.667 0 45.834 8.66699 63.501 26s26.5 38.666 26.5 63.999z" />
    <glyph glyph-name="product" unicode="&#x220f;" 
d="M492 728c0 -14 -4.83301 -25.833 -14.5 -35.5s-21.5 -14.5 -35.5 -14.5h-332c-14 0 -25.833 4.83301 -35.5 14.5s-14.5 21.5 -14.5 35.5c0 13.333 4.83301 24.833 14.5 34.5s21.5 14.5 35.5 14.5h332c14 0 25.833 -4.83301 35.5 -14.5s14.5 -21.167 14.5 -34.5zM492 546
c0 -14 -4.83301 -25.833 -14.5 -35.5s-21.5 -14.5 -35.5 -14.5h-111c-4 0 -6 -1.66699 -6 -5v-442c0 -14 -4.83301 -25.667 -14.5 -35s-21.167 -14 -34.5 -14s-24.833 4.66699 -34.5 14s-14.5 21 -14.5 35v442c0 3.33301 -2 5 -6 5h-111c-14 0 -25.833 4.83301 -35.5 14.5
s-14.5 21.5 -14.5 35.5c0 13.333 4.83301 24.833 14.5 34.5s21.5 14.5 35.5 14.5h332c14 0 25.833 -4.83301 35.5 -14.5s14.5 -21.167 14.5 -34.5z" />
    <glyph glyph-name="summation" unicode="&#x2211;" horiz-adv-x="453" 
d="M392 48c0 -14 -4.66699 -25.666 -14 -34.999s-21 -14 -35 -14h-233c-14 0 -25.667 4.83301 -35 14.5s-14 21.167 -14 34.5c0 8 1.66699 15.667 5 23l101 193c2 3.33301 3 6.66602 3 9.99902c0 4 -1 7.33301 -3 10l-101 194c-3.33301 7.33301 -5 15 -5 23
c0 13.333 4.66699 24.833 14 34.5s21 14.5 35 14.5h233c14 0 25.667 -4.83301 35 -14.5s14 -21.167 14 -34.5v-77c0 -14 -4.66699 -25.667 -14 -35s-21 -14 -35 -14c-13.333 0 -24.833 4.66699 -34.5 14s-14.5 21 -14.5 35v17c0 7.33301 -3.66699 11 -11 11h-81
c-7.33301 0 -9.33301 -3.33301 -6 -10l76 -145c3.33301 -7.33301 5 -15 5 -23s-1.66699 -15.333 -5 -22l-76 -145c-3.33301 -6.66699 -1.33301 -10 6 -10h81c7.33301 0 11 3.66699 11 11v17c0 13.333 4.83301 24.833 14.5 34.5s21.167 14.5 34.5 14.5
c14 0 25.667 -4.83301 35 -14.5s14 -21.167 14 -34.5v-77z" />
    <glyph glyph-name="radical" unicode="&#x221a;" horiz-adv-x="396" 
d="M321 343l-50 -49c-2.66699 -2.66699 -2.66699 -5.33398 0 -8.00098l50 -49c9.33301 -10 14 -21.667 14 -35c0 -14 -4.83301 -25.667 -14.5 -35s-21.167 -14 -34.5 -14s-25 4.66699 -35 14l-49 49c-2.66699 2.66699 -5.33398 2.66699 -8.00098 0l-49 -49
c-10 -9.33301 -21.667 -14 -35 -14c-14 0 -25.667 4.66699 -35 14s-14 21 -14 35c0 13.333 4.66699 25 14 35l49 49c2.66699 2.66699 2.66699 5.33398 0 8.00098l-49 49c-9.33301 10 -14 21.667 -14 35s4.66699 24.833 14 34.5s21 14.5 35 14.5c13.333 0 25 -4.66699 35 -14
l49 -50c2.66699 -2 5.33398 -2 8.00098 0l49 50c10 9.33301 21.667 14 35 14c14 0 25.667 -4.66699 35 -14s14 -21 14 -35c0 -13.333 -4.66699 -25 -14 -35z" />
    <glyph glyph-name="infinity" unicode="&#x221e;" horiz-adv-x="1151" 
d="M1090 281c0 -78 -27.5 -144.5 -82.5 -199.5s-121.5 -82.5 -199.5 -82.5c-96.667 0 -173 39.667 -229 119c-0.666992 0.666992 -2 1 -4 1c-1.33301 0 -2.33301 -0.333008 -3 -1c-56 -79.333 -132.333 -119 -229 -119c-78 0 -144.5 27.5 -199.5 82.5
s-82.5 121.5 -82.5 199.5s27.5 144.5 82.5 199.5s121.5 82.5 199.5 82.5c96.667 0 173 -39.667 229 -119c0.666992 -0.666992 1.66699 -1 3 -1c2 0 3.33301 0.333008 4 1c56 79.333 132.333 119 229 119c78 0 144.5 -27.5 199.5 -82.5s82.5 -121.5 82.5 -199.5zM992 281
c0 50.667 -18 94 -54 130s-79.333 54 -130 54s-93.834 -18 -129.501 -54s-53.5 -79.333 -53.5 -130s17.833 -94 53.5 -130s78.834 -54 129.501 -54s94 18 130 54s54 79.333 54 130zM526 281c0 50.667 -17.833 94 -53.5 130s-78.834 54 -129.501 54s-94 -18 -130 -54
s-54 -79.333 -54 -130s18 -94 54 -130s79.333 -54 130 -54s93.834 18 129.501 54s53.5 79.333 53.5 130z" />
    <glyph glyph-name="integral" unicode="&#x222b;" horiz-adv-x="801" 
d="M742 833c0 -14 -4.83105 -25.667 -14.498 -35s-21.5 -14 -35.5 -14h-62c-31.333 0 -52 -15.333 -62 -46l-233 -739c-10.667 -34 -30.334 -61.5 -59.001 -82.5s-61 -31.5 -97 -31.5h-70c-14 0 -25.833 4.83301 -35.5 14.5s-14.5 21.167 -14.5 34.5
s4.83301 24.833 14.5 34.5s21.5 14.5 35.5 14.5h70c32 0 52.667 15.333 62 46l233 739c11.333 34 31.166 61.5 59.499 82.5s60.5 31.5 96.5 31.5h62c14 0 25.833 -4.83301 35.5 -14.5s14.5 -21.167 14.5 -34.5z" />
    <glyph glyph-name="approxequal" unicode="&#x2248;" horiz-adv-x="601" 
d="M543 428c0 -18.667 -8.33301 -32.999 -25 -42.999l-54 -30c-20.667 -12 -43 -18 -67 -18s-46 5.66699 -66 17l-109 61c-6 3.33301 -12.333 5 -19 5s-12.667 -1.66699 -18 -5l-54 -30c-7.33301 -4 -15.333 -6 -24 -6c-13.333 0 -24.833 4.83301 -34.5 14.5
s-14.5 21.167 -14.5 34.5c0 19.333 8.33301 33.666 25 42.999l54 30c20.667 11.333 42.667 17 66 17c24 0 46.333 -5.66699 67 -17l109 -61c12 -6.66699 24 -6.66699 36 0l55 31c7.33301 4 15.333 6 24 6c13.333 0 24.833 -4.83301 34.5 -14.5s14.5 -21.167 14.5 -34.5z
M543 254.001c0 -18.667 -8.33301 -32.666 -25 -41.999l-54 -31c-20.667 -12 -43 -18 -67 -18s-46 5.66699 -66 17l-109 61c-12 6.66699 -24.333 6.66699 -37 0l-54 -30c-7.33301 -4 -15.333 -6 -24 -6c-13.333 0 -24.833 4.83301 -34.5 14.5s-14.5 21.167 -14.5 34.5
c0 19.333 8.33301 33.666 25 42.999l54 30c20.667 11.333 42.667 17 66 17c24 0 46.333 -5.66699 67 -17l109 -61c12 -6.66699 24 -6.66699 36 0l55 31c7.33301 4.66699 15.333 7 24 7c13.333 0 24.833 -4.83301 34.5 -14.5s14.5 -21.5 14.5 -35.5z" />
    <glyph glyph-name="approxequal" unicode="&#x22f2;" horiz-adv-x="601" 
d="M543 428c0 -18.667 -8.33301 -32.999 -25 -42.999l-54 -30c-20.667 -12 -43 -18 -67 -18s-46 5.66699 -66 17l-109 61c-6 3.33301 -12.333 5 -19 5s-12.667 -1.66699 -18 -5l-54 -30c-7.33301 -4 -15.333 -6 -24 -6c-13.333 0 -24.833 4.83301 -34.5 14.5
s-14.5 21.167 -14.5 34.5c0 19.333 8.33301 33.666 25 42.999l54 30c20.667 11.333 42.667 17 66 17c24 0 46.333 -5.66699 67 -17l109 -61c12 -6.66699 24 -6.66699 36 0l55 31c7.33301 4 15.333 6 24 6c13.333 0 24.833 -4.83301 34.5 -14.5s14.5 -21.167 14.5 -34.5z
M543 254.001c0 -18.667 -8.33301 -32.666 -25 -41.999l-54 -31c-20.667 -12 -43 -18 -67 -18s-46 5.66699 -66 17l-109 61c-12 6.66699 -24.333 6.66699 -37 0l-54 -30c-7.33301 -4 -15.333 -6 -24 -6c-13.333 0 -24.833 4.83301 -34.5 14.5s-14.5 21.167 -14.5 34.5
c0 19.333 8.33301 33.666 25 42.999l54 30c20.667 11.333 42.667 17 66 17c24 0 46.333 -5.66699 67 -17l109 -61c12 -6.66699 24 -6.66699 36 0l55 31c7.33301 4.66699 15.333 7 24 7c13.333 0 24.833 -4.83301 34.5 -14.5s14.5 -21.5 14.5 -35.5z" />
    <glyph glyph-name="notequal" unicode="&#x2260;" horiz-adv-x="546" 
d="M486 202c0 -14 -4.83301 -25.666 -14.5 -34.999s-21.167 -14 -34.5 -14h-181c-3.33301 0 -6 -1.66699 -8 -5l-42 -73c-9.33301 -16.667 -23.666 -25 -42.999 -25c-13.333 0 -24.833 4.83301 -34.5 14.5s-14.5 21.167 -14.5 34.5c0 9.33301 2.33301 17.666 7 24.999l13 24
c2 3.33301 1.33301 5 -2 5h-23c-13.333 0 -24.833 4.66699 -34.5 14s-14.5 21 -14.5 35c0 13.333 4.83301 24.833 14.5 34.5s21.167 14.5 34.5 14.5h79c4 0 7 1.66699 9 5l39 67c2 3.33301 1 5 -3 5h-124c-13.333 0 -24.833 4.83301 -34.5 14.5s-14.5 21.167 -14.5 34.5
c0 14 4.83301 25.833 14.5 35.5s21.167 14.5 34.5 14.5h181c3.33301 0 6 1.33301 8 4l42 73c9.33301 16.667 23.666 25 42.999 25c13.333 0 24.833 -4.83301 34.5 -14.5s14.5 -21.167 14.5 -34.5c0 -8.66699 -2.33301 -17 -7 -25l-13 -24c-2 -2.66699 -1.33301 -4 2 -4h23
c13.333 0 24.833 -4.83301 34.5 -14.5s14.5 -21.5 14.5 -35.5c0 -13.333 -4.83301 -24.833 -14.5 -34.5s-21.167 -14.5 -34.5 -14.5h-79c-4 0 -7 -1.66699 -9 -5l-39 -67c-2 -3.33301 -1 -5 3 -5h124c13.333 0 24.833 -4.83301 34.5 -14.5s14.5 -21.167 14.5 -34.5z" />
    <glyph glyph-name="lessequal" unicode="&#x2264;" horiz-adv-x="469" 
d="M333 187c0 -13.333 -4.66699 -24.834 -14 -34.501s-21 -14.5 -35 -14.5c-13.333 0 -25 4.66699 -35 14l-143 144c-10 9.33301 -15 21 -15 35c0 13.333 5 25 15 35l143 143c10 10 21.667 15 35 15c14 0 25.667 -4.83301 35 -14.5s14 -21.167 14 -34.5
c0 -14 -4.66699 -25.667 -14 -35l-101 -101c-5.33301 -5.33301 -5.33301 -10.666 0 -15.999l101 -101c9.33301 -10 14 -21.667 14 -35zM408 47.999c0 -14 -4.66699 -25.667 -14 -35s-21 -14 -35 -14h-249c-14 0 -25.667 4.66699 -35 14s-14 21 -14 35
c0 13.333 4.66699 24.833 14 34.5s21 14.5 35 14.5h249c14 0 25.667 -4.83301 35 -14.5s14 -21.167 14 -34.5z" />
    <glyph glyph-name="greaterequal" unicode="&#x2265;" horiz-adv-x="468" 
d="M363 296l-144 -143.999c-9.33301 -9.33301 -21 -14 -35 -14c-13.333 0 -24.833 4.83301 -34.5 14.5s-14.5 21.167 -14.5 34.5s4.66699 25 14 35l102 101c4.66699 5.33301 4.66699 10.666 0 15.999l-102 101c-9.33301 9.33301 -14 21 -14 35
c0 13.333 4.83301 24.833 14.5 34.5s21.167 14.5 34.5 14.5c14 0 25.667 -5 35 -15l144 -143c9.33301 -10 14 -21.667 14 -35c0 -14 -4.66699 -25.667 -14 -35zM408 48.001c0 -14 -4.83301 -25.667 -14.5 -35s-21.167 -14 -34.5 -14h-250
c-13.333 0 -24.833 4.66699 -34.5 14s-14.5 21 -14.5 35c0 13.333 4.83301 24.833 14.5 34.5s21.167 14.5 34.5 14.5h250c13.333 0 24.833 -4.83301 34.5 -14.5s14.5 -21.167 14.5 -34.5z" />
    <glyph glyph-name="lozenge" unicode="&#x25ca;" horiz-adv-x="899" 
d="M838 388c0 -106.667 -38 -198 -114 -274s-167.333 -114 -274 -114c-107.333 0 -199 38 -275 114s-114 167.333 -114 274c0 107.333 38 199 114 275s167.667 114 275 114c106.667 0 198 -38 274 -114s114 -167.667 114 -275zM740 388c0 80 -28.333 148.333 -85 205
s-125 85 -205 85c-80.667 0 -149.334 -28.333 -206.001 -85s-85 -125 -85 -205s28.333 -148.333 85 -205s125.334 -85 206.001 -85c80 0 148.333 28.333 205 85s85 125 85 205z" />
    <glyph glyph-name="apple" unicode="&#xf000;" horiz-adv-x="781" 
d="M714 386c0 -82.667 -27.502 -154.499 -82.502 -215.499s-122.833 -96.167 -203.5 -105.5c-8 -1.33301 -14.667 -0.5 -20 2.5s-9.33301 7.83301 -12 14.5l-36 109c-4 12 0 18 12 18h20c52 0 96.5 18.5 133.5 55.5s55.5 82.833 55.5 137.5c0 54 -18.167 99 -54.5 135
s-81.166 54 -134.499 54h-265c-15.333 0 -28.666 5.33301 -39.999 16c-13.333 11.333 -20 25.666 -20 42.999c0 16.667 5.66699 30.667 17 42s25.333 17 42 17h265c88.667 0 164.667 -31.5 228 -94.5s95 -139.167 95 -228.5zM464.998 402.001
c0 -20 -6.83398 -37.665 -20.501 -52.998s-31.167 -23 -52.5 -23h-61c-12.667 0 -21 5.33301 -25 16l-7 21c-9.33301 26 -27.666 39 -54.999 39c-16 0 -29.667 -5.66699 -41 -17s-17 -25 -17 -41c0 -6.66699 1 -13.334 3 -20.001l72 -202c0.666992 -2.66699 1 -5 1 -7
c0 -10 -5.66699 -15 -17 -15c-4 0 -7.66699 1 -11 3c-50.667 28 -91.167 67.167 -121.5 117.5s-45.5 105.5 -45.5 165.5v32c0 15.333 5.33301 28.666 16 39.999s24.667 17 42 17h267c21.333 0 38.833 -6.66699 52.5 -20s20.5 -31 20.5 -53z" />
    <glyph glyph-name="fi" unicode="&#xf001;" horiz-adv-x="539" 
d="M478 718c0 -16.667 -5.66699 -30.667 -17 -42s-25.333 -17 -42 -17c-16 0 -29.833 5.66699 -41.5 17s-17.5 25.333 -17.5 42c0 16 5.83301 29.833 17.5 41.5s25.5 17.5 41.5 17.5c16.667 0 30.667 -5.83301 42 -17.5s17 -25.5 17 -41.5zM469 48
c0 -13.333 -4.83301 -24.833 -14.5 -34.5s-21.5 -14.5 -35.5 -14.5c-13.333 0 -24.833 4.83301 -34.5 14.5s-14.5 21.167 -14.5 34.5v483c0 13.333 4.83301 24.833 14.5 34.5s21.167 14.5 34.5 14.5c14 0 25.833 -4.83301 35.5 -14.5s14.5 -21.167 14.5 -34.5v-483zM324 531
c0 -14 -4.83203 -25.832 -14.499 -35.499s-21.167 -14.5 -34.5 -14.5h-110c-4 0 -6 -1.66699 -6 -5v-428c0 -13.333 -4.83301 -24.833 -14.5 -34.5s-21.167 -14.5 -34.5 -14.5c-14 0 -25.667 4.83301 -35 14.5s-14 21.167 -14 34.5v540c0 52 18.333 96.333 55 133
s81 55 133 55h26c13.333 0 24.833 -4.66699 34.5 -14s14.5 -21 14.5 -35c0 -13.333 -4.83301 -24.833 -14.5 -34.5s-21.167 -14.5 -34.5 -14.5h-26c-24.667 0 -45.834 -8.83301 -63.501 -26.5s-26.5 -38.834 -26.5 -63.501v-3c0 -3.33301 2 -5 6 -5h110
c13.333 0 24.833 -4.83301 34.5 -14.5s14.5 -21.167 14.5 -34.5z" />
    <glyph glyph-name="fl" unicode="&#xf002;" horiz-adv-x="598" 
d="M489 -1c-10 0 -19 2.66699 -27 8c-66 43.333 -99 104.333 -99 183v537c0 13.333 4.83301 24.833 14.5 34.5s21.167 14.5 34.5 14.5c14 0 25.667 -4.83301 35 -14.5s14 -21.167 14 -34.5v-537c0 -43.333 18.333 -77 55 -101c14.667 -9.33301 22 -23 22 -41
c0 -13.333 -4.83301 -24.833 -14.5 -34.5s-21.167 -14.5 -34.5 -14.5zM324 531c0 -14 -4.83301 -25.832 -14.5 -35.499s-21.5 -14.5 -35.5 -14.5h-110c-4 0 -6 -1.66699 -6 -5v-428c0 -13.333 -4.66699 -24.833 -14 -34.5s-21 -14.5 -35 -14.5
c-13.333 0 -24.833 4.83301 -34.5 14.5s-14.5 21.167 -14.5 34.5v540c0 52 18.5 96.333 55.5 133s81.5 55 133.5 55h25c14 0 25.833 -4.66699 35.5 -14s14.5 -21 14.5 -35c0 -13.333 -4.83301 -24.833 -14.5 -34.5s-21.5 -14.5 -35.5 -14.5h-25
c-25.333 0 -46.833 -8.83301 -64.5 -26.5s-26.5 -38.834 -26.5 -63.501v-3c0 -3.33301 2 -5 6 -5h110c14 0 25.833 -4.83301 35.5 -14.5s14.5 -21.167 14.5 -34.5z" />
    <glyph glyph-name=".null" horiz-adv-x="0" 
 />
    <glyph glyph-name="nonmarkingreturn" horiz-adv-x="300" 
 />
    <glyph glyph-name="DLE" horiz-adv-x="722" 
d="M613 235c-14 0 -25.667 4.66699 -35 14l-164 164c-2.66699 2.66699 -4 2.33398 -4 -0.999023v-367c0 -13.333 -4.83301 -24.833 -14.5 -34.5s-21.167 -14.5 -34.5 -14.5s-24.833 4.83301 -34.5 14.5s-14.5 21.167 -14.5 34.5v367c0 3.33301 -1.33301 3.66602 -4 0.999023
l-164 -164c-9.33301 -9.33301 -21 -14 -35 -14c-13.333 0 -24.833 4.83301 -34.5 14.5s-14.5 21.167 -14.5 34.5c0 14 5 25.667 15 35l251 252c10 9.33301 21.667 14 35 14s25 -4.66699 35 -14l251 -252c10 -9.33301 15 -21 15 -35c0 -13.333 -4.83301 -24.833 -14.5 -34.5
s-21.167 -14.5 -34.5 -14.5z" />
    <glyph glyph-name="DC1" horiz-adv-x="722" 
d="M662 297c0 -14 -5 -25.667 -15 -35l-251 -252c-10 -9.33301 -21.667 -14 -35 -14s-25 4.66699 -35 14l-251 252c-10 9.33301 -15 21 -15 35c0 13.333 4.83301 24.833 14.5 34.5s21.167 14.5 34.5 14.5c14 0 25.667 -4.66699 35 -14l164 -164c2.66699 -2.66699 4 -2 4 2
v366c0 13.333 4.83301 24.833 14.5 34.5s21.167 14.5 34.5 14.5s24.833 -4.83301 34.5 -14.5s14.5 -21.167 14.5 -34.5v-366c0 -4 1.33301 -4.66699 4 -2l164 164c9.33301 9.33301 21 14 35 14c13.333 0 24.833 -4.83301 34.5 -14.5s14.5 -21.167 14.5 -34.5z" />
    <glyph glyph-name="DC2" horiz-adv-x="709" 
d="M649 288c0 -14 -4.83301 -25.668 -14.5 -35.001s-21.167 -14 -34.5 -14h-366c-4 0 -4.66699 -1.33301 -2 -4l164 -164c9.33301 -10 14 -21.667 14 -35s-4.83301 -24.833 -14.5 -34.5s-21.167 -14.5 -34.5 -14.5c-14 0 -25.667 4.66699 -35 14l-252 252
c-9.33301 9.33301 -14 21 -14 35c0 13.333 4.66699 25 14 35l252 251c9.33301 10 21 15 35 15c13.333 0 24.833 -4.83301 34.5 -14.5s14.5 -21.5 14.5 -35.5c0 -13.333 -4.66699 -24.666 -14 -33.999l-164 -164c-2.66699 -2.66699 -2 -4 2 -4h366
c13.333 0 24.833 -4.83301 34.5 -14.5s14.5 -21.167 14.5 -34.5z" />
    <glyph glyph-name="DC3" horiz-adv-x="709" 
d="M635 253l-252 -251.999c-10 -9.33301 -21.667 -14 -35 -14s-24.833 4.83301 -34.5 14.5s-14.5 21.167 -14.5 34.5s4.66699 25 14 35l164 164c2.66699 2.66699 2 4 -2 4h-366c-13.333 0 -24.833 4.66699 -34.5 14s-14.5 21 -14.5 35c0 13.333 4.83301 24.833 14.5 34.5
s21.167 14.5 34.5 14.5h366c4 0 4.66699 1.33301 2 4l-164 164c-9.33301 9.33301 -14 20.666 -14 33.999c0 14 4.83301 25.833 14.5 35.5s21.167 14.5 34.5 14.5c14 0 25.667 -5 35 -15l252 -251c9.33301 -10 14 -21.667 14 -35c0 -14 -4.66699 -25.667 -14 -35z" />
    <glyph glyph-name="Euro" horiz-adv-x="656" 
d="M590 672c3.33301 -6.66699 5.00098 -13.666 5.00098 -20.999c0 -14 -4.83301 -25.833 -14.5 -35.5s-21.167 -14.5 -34.5 -14.5c-20.667 0 -35.334 9.33301 -44.001 28c-16.667 34.667 -44 52 -82 52h-54c-24.667 0 -45.834 -8.83301 -63.501 -26.5
s-26.5 -38.834 -26.5 -63.501v-47c0 -7.33301 3.66699 -11 11 -11h117c13.333 0 24.833 -4.83301 34.5 -14.5s14.5 -21.167 14.5 -34.5c0 -14 -4.83301 -25.833 -14.5 -35.5s-21.167 -14.5 -34.5 -14.5h-117c-7.33301 0 -11 -3.66699 -11 -11v-71
c0 -7.33301 3.66699 -11 11 -11h56c13.333 0 24.833 -4.83301 34.5 -14.5s14.5 -21.167 14.5 -34.5c0 -14 -4.83301 -25.667 -14.5 -35s-21.167 -14 -34.5 -14h-56c-7.33301 0 -11 -4 -11 -12v-46c0 -24.667 8.83301 -45.834 26.5 -63.501s38.834 -26.5 63.501 -26.5h54
c38 0 65 16.667 81 50c9.33301 18.667 24.333 28 45 28c13.333 0 24.833 -4.83301 34.5 -14.5s14.5 -21.167 14.5 -34.5c0 -7.33301 -1.66699 -14.666 -5 -21.999c-16 -32 -39.333 -57.667 -70 -77s-64 -29 -100 -29h-54c-52 0 -96.333 18.5 -133 55.5s-55 81.5 -55 133.5
v46c0 8 -4 12 -12 12h-56c-13.333 0 -24.833 4.66699 -34.5 14s-14.5 21 -14.5 35c0 13.333 4.83301 24.833 14.5 34.5s21.167 14.5 34.5 14.5h56c8 0 12 3.66699 12 11v71c0 7.33301 -4 11 -12 11h-56c-13.333 0 -24.833 4.83301 -34.5 14.5s-14.5 21.5 -14.5 35.5
c0 13.333 4.83301 24.833 14.5 34.5s21.167 14.5 34.5 14.5h56c8 0 12 3.66699 12 11v47c0 52 18.333 96.333 55 133s81 55 133 55h54c36 0 69.5 -9.66699 100.5 -29s54.167 -45.333 69.5 -78z" />
    </font>
</defs>
</svg>
